<mxfile host="Electron" modified="2024-11-02T01:31:03.370Z" agent="Mozilla/5.0 (Windows NT 10.0; Win64; x64) AppleWebKit/537.36 (KHTML, like Gecko) draw.io/22.1.18 Chrome/120.0.6099.199 Electron/28.1.2 Safari/537.36" etag="0BcTkFgJw-pOQ2gBkmJw" version="22.1.18" type="device" pages="2">
  <diagram name="Architecture" id="WWG5lKuy87tWIdrh_ieo">
    <mxGraphModel dx="1728" dy="1012" grid="1" gridSize="10" guides="1" tooltips="1" connect="1" arrows="1" fold="1" page="1" pageScale="1" pageWidth="850" pageHeight="1100" math="0" shadow="0">
      <root>
        <mxCell id="0" />
        <mxCell id="1" parent="0" />
        <mxCell id="1XSTCMhC93iYuo16Twu5-1" value="&lt;h1&gt;&lt;span style=&quot;background-color: initial;&quot;&gt;Vision Aid App Architecture&lt;/span&gt;&lt;br&gt;&lt;/h1&gt;" style="text;html=1;strokeColor=none;fillColor=none;spacing=5;spacingTop=-20;whiteSpace=wrap;overflow=hidden;rounded=0;" vertex="1" parent="1">
          <mxGeometry x="253" y="70" width="345" height="40" as="geometry" />
        </mxCell>
        <mxCell id="1XSTCMhC93iYuo16Twu5-3" value="" style="rounded=1;whiteSpace=wrap;html=1;fillColor=#d5e8d4;strokeColor=#82b366;" vertex="1" parent="1">
          <mxGeometry x="583" y="170" width="190" height="400" as="geometry" />
        </mxCell>
        <mxCell id="1XSTCMhC93iYuo16Twu5-5" value="" style="group" vertex="1" connectable="0" parent="1">
          <mxGeometry x="63" y="170" width="270" height="410" as="geometry" />
        </mxCell>
        <mxCell id="1XSTCMhC93iYuo16Twu5-2" value="" style="rounded=1;whiteSpace=wrap;html=1;fillColor=#dae8fc;strokeColor=#6c8ebf;" vertex="1" parent="1XSTCMhC93iYuo16Twu5-5">
          <mxGeometry width="270" height="410" as="geometry" />
        </mxCell>
        <mxCell id="1XSTCMhC93iYuo16Twu5-4" value="&lt;font style=&quot;font-size: 16px;&quot;&gt;Mobile App - Kivy Framework&lt;/font&gt;" style="text;html=1;strokeColor=none;fillColor=none;align=center;verticalAlign=middle;whiteSpace=wrap;rounded=0;" vertex="1" parent="1XSTCMhC93iYuo16Twu5-5">
          <mxGeometry x="25" width="220" height="30" as="geometry" />
        </mxCell>
        <mxCell id="1XSTCMhC93iYuo16Twu5-8" value="Phone Camera" style="html=1;verticalLabelPosition=bottom;align=center;labelBackgroundColor=#ffffff;verticalAlign=top;strokeWidth=2;strokeColor=#0080F0;shadow=0;dashed=0;shape=mxgraph.ios7.icons.camera;" vertex="1" parent="1XSTCMhC93iYuo16Twu5-5">
          <mxGeometry x="70" y="90" width="60" height="40" as="geometry" />
        </mxCell>
        <mxCell id="1XSTCMhC93iYuo16Twu5-16" value="User" style="html=1;verticalLabelPosition=bottom;align=center;labelBackgroundColor=#ffffff;verticalAlign=top;strokeWidth=2;strokeColor=#0080F0;shadow=0;dashed=0;shape=mxgraph.ios7.icons.user;" vertex="1" parent="1XSTCMhC93iYuo16Twu5-5">
          <mxGeometry x="-20" y="40" width="40" height="40" as="geometry" />
        </mxCell>
        <mxCell id="1XSTCMhC93iYuo16Twu5-21" style="edgeStyle=orthogonalEdgeStyle;rounded=0;orthogonalLoop=1;jettySize=auto;html=1;entryX=0.478;entryY=-0.05;entryDx=0;entryDy=0;entryPerimeter=0;" edge="1" parent="1XSTCMhC93iYuo16Twu5-5" source="1XSTCMhC93iYuo16Twu5-16" target="1XSTCMhC93iYuo16Twu5-8">
          <mxGeometry relative="1" as="geometry" />
        </mxCell>
        <mxCell id="1XSTCMhC93iYuo16Twu5-22" value="Take Image" style="edgeLabel;html=1;align=center;verticalAlign=middle;resizable=0;points=[];" vertex="1" connectable="0" parent="1XSTCMhC93iYuo16Twu5-21">
          <mxGeometry x="-0.4261" relative="1" as="geometry">
            <mxPoint x="3" as="offset" />
          </mxGeometry>
        </mxCell>
        <mxCell id="1XSTCMhC93iYuo16Twu5-29" value="&lt;font style=&quot;font-size: 11px;&quot;&gt;Text From&amp;nbsp; Image&lt;/font&gt;" style="html=1;strokeWidth=1;shadow=0;dashed=0;shape=mxgraph.ios7.misc.text_size;fillColor=#007AFF;strokeColor=none;buttonText=;strokeColor2=#222222;fontColor=#222222;fontSize=8;verticalLabelPosition=bottom;verticalAlign=top;align=center;sketch=0;" vertex="1" parent="1XSTCMhC93iYuo16Twu5-5">
          <mxGeometry x="70" y="210" width="60" height="60" as="geometry" />
        </mxCell>
        <mxCell id="1XSTCMhC93iYuo16Twu5-33" value="API Call" style="image;aspect=fixed;html=1;points=[];align=center;fontSize=12;image=img/lib/azure2/other/API_Proxy.svg;" vertex="1" parent="1XSTCMhC93iYuo16Twu5-5">
          <mxGeometry x="190" y="92" width="68" height="38" as="geometry" />
        </mxCell>
        <mxCell id="1XSTCMhC93iYuo16Twu5-35" style="edgeStyle=orthogonalEdgeStyle;rounded=0;orthogonalLoop=1;jettySize=auto;html=1;entryX=0.029;entryY=0.465;entryDx=0;entryDy=0;entryPerimeter=0;" edge="1" parent="1XSTCMhC93iYuo16Twu5-5" source="1XSTCMhC93iYuo16Twu5-8" target="1XSTCMhC93iYuo16Twu5-33">
          <mxGeometry relative="1" as="geometry" />
        </mxCell>
        <mxCell id="1XSTCMhC93iYuo16Twu5-32" value="API Call" style="image;aspect=fixed;html=1;points=[];align=center;fontSize=12;image=img/lib/azure2/other/API_Proxy.svg;" vertex="1" parent="1XSTCMhC93iYuo16Twu5-5">
          <mxGeometry x="190" y="221" width="68" height="38" as="geometry" />
        </mxCell>
        <mxCell id="1XSTCMhC93iYuo16Twu5-39" style="edgeStyle=orthogonalEdgeStyle;rounded=0;orthogonalLoop=1;jettySize=auto;html=1;entryX=0.561;entryY=0.036;entryDx=0;entryDy=0;entryPerimeter=0;" edge="1" parent="1XSTCMhC93iYuo16Twu5-5" source="1XSTCMhC93iYuo16Twu5-33" target="1XSTCMhC93iYuo16Twu5-29">
          <mxGeometry relative="1" as="geometry">
            <Array as="points">
              <mxPoint x="224" y="170" />
              <mxPoint x="104" y="170" />
            </Array>
          </mxGeometry>
        </mxCell>
        <mxCell id="1XSTCMhC93iYuo16Twu5-6" value="&lt;font style=&quot;font-size: 16px;&quot;&gt;Azure Cloud&lt;/font&gt;" style="text;html=1;strokeColor=none;fillColor=none;align=center;verticalAlign=middle;whiteSpace=wrap;rounded=0;" vertex="1" parent="1">
          <mxGeometry x="568" y="170" width="220" height="30" as="geometry" />
        </mxCell>
        <mxCell id="1XSTCMhC93iYuo16Twu5-7" value="&lt;font color=&quot;rgba(0, 0, 0, 0)&quot;&gt;&lt;b&gt;Azure OCR Engine&lt;/b&gt;&lt;/font&gt;" style="outlineConnect=0;dashed=0;verticalLabelPosition=bottom;verticalAlign=top;align=center;html=1;shape=mxgraph.aws3.camera;fillColor=#5294CF;gradientColor=none;" vertex="1" parent="1">
          <mxGeometry x="633" y="241.25" width="79.5" height="79.5" as="geometry" />
        </mxCell>
        <mxCell id="1XSTCMhC93iYuo16Twu5-20" value="Internet" style="image;aspect=fixed;perimeter=ellipsePerimeter;html=1;align=center;shadow=0;dashed=0;spacingTop=3;image=img/lib/active_directory/internet_cloud.svg;" vertex="1" parent="1">
          <mxGeometry x="423" y="265.25" width="50" height="31.5" as="geometry" />
        </mxCell>
        <mxCell id="1XSTCMhC93iYuo16Twu5-25" value="&lt;font style=&quot;font-size: 12px;&quot; color=&quot;rgba(0, 0, 0, 0)&quot;&gt;Azure Speech&lt;br&gt;Text-to-Speech&lt;/font&gt;" style="sketch=0;html=1;verticalAlign=top;labelPosition=center;verticalLabelPosition=bottom;align=center;spacingTop=-6;fontSize=11;fontStyle=1;fontColor=#999999;shape=image;aspect=fixed;imageAspect=0;image=data:image/svg+xml,PHN2ZyB4bWxucz0iaHR0cDovL3d3dy53My5vcmcvMjAwMC9zdmciIHhtbG5zOnY9Imh0dHBzOi8vdmVjdGEuaW8vbmFubyIgd2lkdGg9IjIwLjAwMDQ2MzQ4NTcxNzc3MyIgaGVpZ2h0PSIxNi42MzE1MTU1MDI5Mjk2ODgiIHZpZXdCb3g9IjAgMC4wMDAyNDE0MDk2NTI1MTcxNzcxNiAyMC4wMDA0NjM0ODU3MTc3NzMgMTYuNjMxNTE1NTAyOTI5Njg4Ij4mI3hhOwk8c3R5bGUgdHlwZT0idGV4dC9jc3MiPiYjeGE7CS5zdDB7ZmlsbDojNjY5ZGY2O30mI3hhOwkuc3Qxe2ZpbGw6IzQyODVmNDt9JiN4YTsJPC9zdHlsZT4mI3hhOwk8cGF0aCBjbGFzcz0ic3QwIiBkPSJNLjAxIDMuMzA2aDYuNjR2MS42N0guMDF6bS0uMDEgMTBoMCA5LjE3di0xLjY3SDB6bTAtNC4xN2g0LjE4SDEwbC0xLjY3LTEuNjZIMi41MSAweiIvPiYjeGE7CTxwYXRoIGNsYXNzPSJzdDEiIGQ9Ik0xMCA1LjM4NmEuNDIuNDIgMCAwIDEgLjQyLS4zNi40MS40MSAwIDAgMSAuNDEuMzZ2OS4xOGEyLjA5IDIuMDkgMCAwIDAgMi42MSAyIDIuMTYgMi4xNiAwIDAgMCAxLjU2LTIuMTFWMi4wNjZhLjQuNCAwIDAgMSAuMTktLjQuNDEuNDEgMCAwIDEgLjQ1IDAgLjQuNCAwIDAgMSAuMTkuNHY5LjE2YTIuMDcgMi4wNyAwIDAgMCAuODEgMS42NCAyIDIgMCAwIDAgMS44LjM3IDIuMTYgMi4xNiAwIDAgMCAxLjU2LTIuMTJ2LTIuOGgtMS42N3YyLjkyYS40LjQgMCAwIDEtLjE5LjQuNDEuNDEgMCAwIDEtLjQ1IDAgLjQuNCAwIDAgMS0uMTktLjR2LTkuMTdhMi4wOSAyLjA5IDAgMCAwLTIuNjEtMiAyLjE2IDIuMTYgMCAwIDAtMS41NiAyLjEzdjEyLjM3YS40LjQgMCAwIDEtLjE5LjQuNDEuNDEgMCAwIDEtLjQ1IDAgLjQuNCAwIDAgMS0uMTktLjR2LTkuMTdhMi4wNyAyLjA3IDAgMCAwLTQuMTEtLjM2IDIuNCAyLjQgMCAwIDAtLjA1LjQ2djJMMTAgOS4xMzZ6Ii8+JiN4YTs8L3N2Zz4=;" vertex="1" parent="1">
          <mxGeometry x="648.8399999999999" y="385" width="58.33" height="50" as="geometry" />
        </mxCell>
        <mxCell id="1XSTCMhC93iYuo16Twu5-36" style="edgeStyle=orthogonalEdgeStyle;rounded=0;orthogonalLoop=1;jettySize=auto;html=1;" edge="1" parent="1" source="1XSTCMhC93iYuo16Twu5-33" target="1XSTCMhC93iYuo16Twu5-7">
          <mxGeometry relative="1" as="geometry" />
        </mxCell>
        <mxCell id="1XSTCMhC93iYuo16Twu5-34" value="Internet" style="image;aspect=fixed;perimeter=ellipsePerimeter;html=1;align=center;shadow=0;dashed=0;spacingTop=3;image=img/lib/active_directory/internet_cloud.svg;" vertex="1" parent="1">
          <mxGeometry x="423" y="390" width="56.75" height="35.75" as="geometry" />
        </mxCell>
        <mxCell id="1XSTCMhC93iYuo16Twu5-13" value="Speaker" style="strokeColor=#dddddd;shadow=1;strokeWidth=1;rounded=1;absoluteArcSize=1;arcSize=2;labelPosition=center;verticalLabelPosition=middle;align=center;verticalAlign=bottom;spacingLeft=0;fontColor=#999999;fontSize=12;whiteSpace=wrap;spacingBottom=2;html=1;" vertex="1" parent="1">
          <mxGeometry x="163" y="540" width="70" height="85" as="geometry" />
        </mxCell>
        <mxCell id="1XSTCMhC93iYuo16Twu5-14" value="" style="sketch=0;dashed=0;connectable=0;html=1;fillColor=#757575;strokeColor=none;shape=mxgraph.gcp2.speaker;part=1;" vertex="1" parent="1XSTCMhC93iYuo16Twu5-13">
          <mxGeometry x="0.5" width="35" height="50" relative="1" as="geometry">
            <mxPoint x="-17.5" y="10" as="offset" />
          </mxGeometry>
        </mxCell>
        <mxCell id="1XSTCMhC93iYuo16Twu5-41" style="edgeStyle=orthogonalEdgeStyle;rounded=0;orthogonalLoop=1;jettySize=auto;html=1;" edge="1" parent="1" source="1XSTCMhC93iYuo16Twu5-29" target="1XSTCMhC93iYuo16Twu5-25">
          <mxGeometry relative="1" as="geometry" />
        </mxCell>
        <mxCell id="1XSTCMhC93iYuo16Twu5-43" style="edgeStyle=orthogonalEdgeStyle;rounded=0;orthogonalLoop=1;jettySize=auto;html=1;entryX=0.5;entryY=0;entryDx=0;entryDy=0;" edge="1" parent="1" source="1XSTCMhC93iYuo16Twu5-32" target="1XSTCMhC93iYuo16Twu5-13">
          <mxGeometry relative="1" as="geometry">
            <Array as="points">
              <mxPoint x="287" y="490" />
              <mxPoint x="198" y="490" />
            </Array>
          </mxGeometry>
        </mxCell>
        <mxCell id="1XSTCMhC93iYuo16Twu5-44" value="Output&amp;nbsp; Voice&amp;nbsp;" style="edgeLabel;html=1;align=center;verticalAlign=middle;resizable=0;points=[];" vertex="1" connectable="0" parent="1XSTCMhC93iYuo16Twu5-43">
          <mxGeometry x="0.13" y="-2" relative="1" as="geometry">
            <mxPoint x="8" as="offset" />
          </mxGeometry>
        </mxCell>
      </root>
    </mxGraphModel>
  </diagram>
  <diagram id="Ga0VQPh1roSGodpwgwLz" name="Scratch Notes">
    <mxGraphModel dx="2074" dy="1214" grid="1" gridSize="10" guides="1" tooltips="1" connect="1" arrows="1" fold="1" page="1" pageScale="1" pageWidth="850" pageHeight="1100" math="0" shadow="0">
      <root>
        <mxCell id="0" />
        <mxCell id="1" parent="0" />
        <mxCell id="8Hpya6iJfBatFBliKfcp-1" value="" style="shape=image;verticalLabelPosition=bottom;labelBackgroundColor=default;verticalAlign=top;aspect=fixed;imageAspect=0;image=data:image/png,iVBORw0KGgoAAAANSUhEUgAABAMAAAK7CAYAAACH90YMAAAgAElEQVR4Aey9/2tdx/rv139B3bdfKFyLkubW3FJaFQ6Hfm6dthcbThoOxPDx8W2KfWlCLo4JOc0pCUkVEDKOSyoI1DZ1ke6R/YN9XQ67pluGSgQjApbdRjZY1UWg/2bKzFrPzPM888xaa2/tLW1pv38QW3vtWTPPl9c8M/OsWWv9G3O9nsMfbAAGwAAYAANgAAyAATAABsAAGAADYGB2GPg34OzZcTZ8DV+DATAABsAAGAADYAAMgAEwAAbAgGcAyQDsjMDOEDAABsAAGAADYAAMgAEwAAbAABiYMQaQDJgxhyMLiCwgGAADYAAMgAEwAAbAABgAA2AADCAZgGQAMoBgAAyAATAABsAAGAADYAAMgAEwMGMMIBkwYw5HBhAZQDAABsAAGAADYAAMgAEwAAbAABhAMgDJAGQAwQAYAANgAAyAATAABsAAGAADYGDGGEAyYMYcjgwgMoBgAAyAATAABsAAGAADYAAMgAEwgGQAkgHIAIIBMAAGwAAYAANgAAyAATAABsDAjDGAZMCMORwZQGQAwQAYAANgAAyAATAABsAAGAADYADJACQDkAEEA2AADIABMAAGwAAYAANgAAyAgRljAMmAGXM4MoDIAIIBMAAGwAAYAANgAAyAATAABsAAkgFIBiADCAbAABgAA2AADIABMAAGwAAYAAMzxgCSATPmcGQAkQEEA2AADIABMAAGwAAYAANgAAyAASQDkAxABhAMgAEwAAbAABgAA2AADIABMAAGZowBJANmzOHIACIDCAbAABgAA2AADIABMAAGwAAYAANIBiAZgAwgGAADYAAMgAEwAAbAABgAA2AADMwYA0gGzJjDkQFEBhAMgAEwAAbAABgAA2AADIABMAAGkAxAMgAZQDAABsAAGAADYAAMgAEwAAbAABiYMQaQDJgxhyMDiAwgGAADYAAMgAEwAAbAABgAA2AADCAZgGQAMoBgAAyAATAABsAAGAADYAAMgAEwMGMMIBkwYw5HBhAZQDAABsAAGAADYAAMgAEwAAbAABhAMgDJAGQAwQAYAANgAAyAATAABsAAGAADYGDGGEAyYMYcjgwgMoBgAAyAATAABsAAGAADYAAMgAEwgGTASScDlvru8GCv+nu16q6etDxoHxlRMAAGppkBxEzwOc18DivbB5+6lUd9N3i07K6eP+qkdN5d/n7V9Z89cQ/+fNGdG1aWU1L+6tpOw7xpNmxwehdwV9z6q3rOe7DnBktHZR7nn14W4Ltp8R2SASc9+LVMbJsHvXF2pPfdR1/ccY83t93+uxSoQ6Li3a5786Lv1r//+MxOLo6vQ86762vb9URm261fm48T+6VBsvubtSvxeFG2T1bdG0okHfTd0kmz3Kn9RTeIMid9Y0LsYM/tv9p0/ZVP3aX5cfKNuooceb8Jlgy/7Ncx4Icr7r1Ofp6gvVtiZqOek5Z9fsFd/8u9Ko6+VXZ8W9vwx0/dhUnLgfrb4+eINjr37RO3H2PYrnv8RTfWP7pPcX/PHb574r4L8e2iu/uCcfLiZ3dpRLkC93+WsvX/3E2209ZnGudFp9EGmc/P8jiJZMCJ9reMtVMQIyDzxMYzYhHJgJOGrGVi2zjojUn2c5eX3YBlavnCTPyPnQtH7pALP/TjRHL77oeiPiQD2KTYT7bfbrq7LFlCQQufExi825IBcfGz5w5/fehufjABGbrGs5aYeTJ8zLtLf1512zoBwO0W/z8tibsT9HFXFk6i3Pw3rs8S5vuPb4g4bvMnF/37f/umTqzLhdHhUcdY3jem/qrr6H2mcV50qmxQ6mPtyYA4Nzt146RkHjsDSgzguB1LYZdJ2AXJgJOYTPA2+cBlTAQaBz1ez6j/f7DoBmxiEwaY/V23/5b97deLtEw+v5tg0T14tOFev912Dz5BJ23spPNfpUnki5/dR8pnk0gGvPfRDbd0/6HbernrXj8o7zY4t3DNfb2y6gYvdtz+s8UOk9tRfc0nObvu9WbfDZ7Vf35XCrFGC6d3T9zX2CFwJH90YkAkA3bcNvnkWd9teSa0X365c3JXt1tiZmMfVH1uPGUvuJuP2FVfYrf+DLFUxFgkA45i9048T8TPFPPm3Xd/203b1N8+dDfb2vvDz247crHr+n+hunruwlLfvfH9a3/H9b+9cKS+Pjd/zT34tRqv93/52V2f2th5tD7TOC+acht04/csj5NIBhwl/uHcFDthi/HZYuzJgH/w7/y77uK1v7gv/tf/23335P8Tf/6Y/82XgRNrJ7ZMbBsHvbYJSOvvalJzsOu2VqxtwNUtBIPn99QzDfiAtePWkQxo5Dr5csc9/iLdHkB9YRLJgK51Jtn23OHguJIBBjPzF93Xj+XCavvuxUa7kv3waQ8MnRgQyQBjsXr+U7f+ku/c2HR3/2C3N3E/tMTMibcv4iq/7Yfss+u2Hy2663/3vuR2fsFd/uKO6//68JTc0nNC/hX2zWXoxHNLHUdm5C98O/6Oe/xZLidv49LdzeGSB5OW/0TrP3qfEeNVdpGi2RfcLyfxfzd+W+ZWp3qcRDLgJLhDm9MdF07aP2NNBvzb/94/dJ/9z39zf/mXO+6f/nf/g/tHC/9E/Plj/jdfxpc9aeWnov2Wie1kBz12pdrfq/30xpDPBGgZsE50wjFlHZ9vLf31XrYrwLPYbZLA9GpbwA1Rp+DsJJMBnpn5G67Pt1tPVB5mzzPKayeuOrA0pxZAJ5b8a4mZxxnXzwmb7LnD35647y7mib7jlOmst9WJ54n3ZTl2vnn0acN8Rt0i0Om2grMbl8bRZ8R4NYvJgFM9TiIZcNZjNPQ7ffF7rMmA//LKDffVg203/x/+x8WB0f/my/iyAKbn5lomtpMd9Phifs91emidmGTx842rvKLs6esc4+Rz4ceNeGVo68cFk/2hJ7kdFnBd6xScTXTx3Y0ZLvdkdyqcfS65LYt9vANLMhmAnQFzvQ/jluxwe9W7DXf7JJ+lMCPxthPPx2CLm4/ZrQJNC1Jxi0D7LoJxjjvTV9d4+owYr5psfwwcDGvjbvye5XESyYBhmUH5sz9PO2kfjzUZ8M+++9/cf/s//e/ZQoffOnD5z/9LKOPL+v+PcutAPiDMu0vfP3Gv6f7MZ98oWd53V39YDfdPx4ev+CviLzeaX8Nz/kN3c+Vhfu/s/q57/XzVLf1JbQcVA5B/SM69cC92bDOcd696CNcRkwF8YKkWTVV7/h7x2N67bbd1/yvj6ew33GN+BfbVard7DLnM8T5I2iJbfaZFBx/U6tfInP/UPdikVwNtuwd/rzr6/EX3+coTt/2K6RCeZv7E3S7aet4tXFt060/98wvYeW1PpxeLoDqh4V/19Izdv76/47afLrvL8f5Ly8Y7bmvNsrHXbZ5d9d90K79T+ta8cF8m+9llQ+AQsvOt3dLmkQPuqzCBkoOyWY69pSDvbz137uJX7sFzbiv/xPQmP3HZSgmkBbfyC+OplJwYiZPKH9Qn473wdZ/82l/V5XzriWbR5txP0q7FBySNJP+8u/QvjLd+1E/7v/sFJZq4nZktMwZquVv1mnc3H1Of3XOHm8tuQcQ5pr9/ov4P9fMn+LMG3vlnRDx0t68ttOxAGiVmfuoe/5b0bHqo2znu38IunU4D82cP2ds89tz2T0e837tXeKNL7dsH335YfJMDjx00Dlz+/qHbYjE0jHNfMhnPX3G3n266NzRehrGwX4ixkqeK6ffd1R+fuG1m98O3pbGmPfFd2Zy3w+MDP578LGKW7qs9H58+dStKx8N3VTy3X+Mn2wl6lsarLx7Gh8EeHnBZWV/o9Zy4ReC3h+5z1W9y38nz585fcUtrfTkeel95Wz9alLvMRD8uy+SfEVOuc9ldXyjsbrHqNzgqjgFj6jPWWBT7rCWjsrkvOxY2/Hb9+37OkZi055OSK8EtxWTBLy9f8uMkx8kR51NkZ8+Ef5YUjy3+LUG3/BupOo6PVBc+1TpGxQfYB/YZAwNjTQZc/uon99//+FQ4Jt46sP7/uD/euOX+/f/oPwtlfFn//3/z2Q8j3zqgB4SbS+lJ7SHY8kWEv+e1frCOGYj94Pps0Xgo1jduwCe0FLjF564bLLFJVnTMBffd39gEWpzjXy/Ud0sr/bRoF4NB1eG1jldj3dXvciKx7K4/kPdbc133B7l+on4v36vSZJAFID6Z1jrV39Nilg9qe25w65q691gOdOcuLrsBG1i5/PT/6wfXssXEZf7apoJMh7/ey5MdeuLw/R23xQYwajN8vvTJknl3/e4mmwSmSUAoYzwYcK7HtpQ2vDqK+zLZj9ld+V6+Du74kwE3v3zoXpdsfVDqE5wH6fs4mfvgDnvY1p6znhkwKidzvSP2ScELtzn3U/tkZzT5L7ilZzLRJfg84Lt7uJ0Vo+QzHm+Kes27hYvX3O1nLI75uFW4Ah7eTMIXh9SW+nzzt2+MWOttOLp/Pn/EZCw+1G3B3d5M9nh9X77RIzKo+5rxXcbOvluKyULOQsf/P7jh1l80+9b7ev+F/VA4HjsOB3fcTfXcjcRJ3S8/+Mb1i37yD7jTi0HJ0+DWx25ls0HeECuV7nzc4OwJ2/J2eHzgx5P/kl5+7Fplz7SZd5duqfmAYvBwf9s9yN5WIttpHq9kAsqO2fIWAauM9J18Xsu5a/fc68b5h4pBoh9z+5Ev5t3lW32RxBI2jDYqPMxQ1//lYsN4LV+d6/vWuPqMqEf4Xb8m1bbBuNighzXmNtTjn+QqL6/55eUtHXpuboLj5MjzKZ9kufaz2y7NoQ723Ou1ZbfO3l5VTJaLuED84nOYMQplwUtXBsaaDPjHv/+n7ut/ueP+63/2ZUwI6FsH/ouPP3X/48P/1/0nF9IkbNRbB+SAsOG29OSGkgHzagH6dtv17y+727eW3YOn22Jhp1/3NtdLQdlf1Xpwqzrv9v0nIhvs3xusn3p+VS/M97fdVv2U7i3xMK56cqMHNT14Gr+LicS73UqX3zbrdjbURMIPUHTlsO4k2jb1ZCBk9ktX8P54I9ju9i2+GNx1W7VNvV2/u0btJPv5AXB7M22XrwZENtDpNxu82nDrK97ed9z6czbRP8gnq5GF3zbdYO1OLZ8+zy8sE3ehk4jJza7b94OY3wnw3D/hXttvLzxl/Y230f5O0cb9b9VE+u/vxUVz0xVL4cs4KStMfLPf+aTwQ3ez5vQxS4DtP79X22XZ3f7+mlvoLbjr39f94Dmb2P/6MJW7dSNeeYo29m2/3YlXFOMbATZ1Isp6wwTngfmeBn5/FY4viox+NTcyJ8aDq4btk4IXbnM+6LQkA0aU/yP+ELKDXff62apbqf284q8c/saTAV0ZqOUWehWY87snni07+4qqn5zmbyZ582KjfltE3pder+VJvSPFzD+mfnZ4UHj/+++W3VbsOxvudmGXTpcBVPTXhiRfa11WDH6Z7CauvPuEgJHUFbLQOFDX4d8GIRYf7/puUO+82f+1aicrk+2Y4P12z715VdfJxppMzmeLcvfIkZIBw/Hsn9C/H/285948r/vKyqrbYguRfNyWejaOV72eEwmozGY9N/c7ntjcdg/+yONE9b/wHc1ZfDzkb5/xurzacI/jGHvPPQ7xVsUg0Y/z+Krtksa6vhsY8XtdJ0tE/fV46Rd49VthMo7UnEXoeoQ+I8Yi1YZMkrfbYFQ29t9VY2aMcdp+Pmka48tw/PJ5p7nrZKLjJEvaDDuf+l3DGPB8s3prBuuXPi4hGZDHhNYxg+ZL+IxrTdjsaByNNRngnfFf/ekL9/3Tfx3+/G0A/nYAuiXAH/dvGPBltOOonD7e9F0MCCHA7LrttW/cR+elUUQ5/4AndVVLDJDvnrjvxBWeRff4+R17Aiwys/J1QXNi0ukncMtqm75x5UIPasMmA/yVQX3FTU/QB4vZVfU5P7D8whaDLFjv/7LqwtZpM+jwiVM+6Fa+42XqRcZvfWOr8IJbGjAZXtxj2/K9P9VCTk28rt7vu8d/vpjr1lPbm/UERExu/G6NDXebPwDs/I38Cpq+MvrBstxNoF/N90Pa/bH9EyVJJKPeVmKixHwgJvLF42pSWPuL12ldlaL+JfoIn5Ayv4syXo6X+fvmz11bjYkPL3d6nzbpy3mQrxbMXmFnXrk7Aifj6JOCF9vmc43bIEeV/2P3gCUQ7Sva77tLF3O+OjEg9CokA7zPi7ccKb3ebbiVyyop1rugrlirxdGR/SOv+luJN/7sjpxNYrTLp0z4HOW5FrJfbbvHfCt/6H/z7vJPG2xxu+t0wpH72Pc7/0C792LfnXeXVtjT7OsYIpMx8+76X3nSQN++xfut52PXbf3kt/xyW12QMfxA+fdIyYDUDtfVjGlqQbJ9X8mpki+yL2k9/UMhrfGqlkdse1f69npu4SdmdzVmUezl+giO2LjhkxZyXlK1f+7iRbnDRvRjNSYru+xv3lFjrE/o3XCPWZzxu+nEK3BF/T4ebKrdFWqcFrdPTKjP6HmTkLHZBkdjI989IeaSYaGrY6Ac501+Q5/iHB7zOOnnnSPOp0Ry7GDbrX+mbqHN3kqDZADFAXymGA9bHL8txp4M8E70twa8/5/+5+4fvnfe+dsBPr3zf7hz/8E/Dsestwj8m//g3wplfNlhIJCTqD335q/5lSaxRdtfUdZXbUPg5YOUWtSLyY52kNwCyLczi/sErauboV71aj89qA2bDChMGISdjDYqm/v7dFfdtrlFf8f1v7cW2nzAUoNutBsvUy+2VTImtC8espRPqkKZeV7XEA8w40/89r6IsukthXtOTgwrfwtf+t0Nxr3B4mFSL++5y7wNNgluyoKLSeH+rgvvJ3/b9MkXbfbClNdZnniwKwF+odApGVDyd899xG/ZyLZrcx9y+dn/9TMazCvQR+BE+HHUPikmmrbNG5MBI8svkwFvHnd/80cnBoReO2EHzKDexeSvGMZnK9QLyUO9DVzole/cSXG9vLV6HP459y175VvGHk8WlMYCHeNL3/mYUe4zSe9SPewWIh9b9M6lGEe47FV7fCHOfWwvHGU7h789dDdF0ltfxd5zgx+4zLLf+t0J5jMj+FtTQqxkySkWB+WW/lI7dozhuloxTXCkF7O1PcVzI0SCWOoZksPWeBX9Ijngc4C5nryn2xpbPB9cHxF7eTLgYNOtNMpR21D1Y/7GD2GXYvzruTmR4FA+EPXb4+WcGKf5Yk/aSuga7clZKP/fOKcRMkr5hQ2OyIadTJQ6Wnxyf1u/VzFDcUhxl39OaJxsjVnF+ZSMMcVYJnZwcT7K/m6VaUh+UB9sDQYkAxNJBnAj+9sB/G0B/vYAfpz/73/ztxf42wz48bb/xYDgB8u4JYspKQaG0uRdDsivH3ycy3H+9+76X5bd7fsPq+3jfpGm7uXjgZ0HfOsKFel27hbbNm8s1IWOxu+8neLg2mkSRjZ733307T25lTIMQPoeOF+eD1hy0CX9ZJk9V7QFl1EvpmOglwOtnKx6eebdwuUbbsnfVvC0Xz3wUT1M8JA9EC/IKPjYcevXyA7skw9+Bc7EFSDlp8vsdpGuyQDOUrIlk8nbRMhus835aKpTcNYlGVD0kZZL90vODEsA8EnOW+uqcq37ETjhtihy6O95bOqTHWzemAw4gvzCR37Xxa9P3MoXH7sFvaiL/aWyGde7yECrXu+7qyv86vSeEwkJrle2CJfciivQv9yJi0ou58j+6fGHoqont/Mt28aD3Ir9TNmzKicTwYfPl9VVcqlzsW5hd91XZB2CS2VjbjtbFimvbV9uOz1Jl/02j71JVi6LaIczomJksg9vxx5TeP0Wz/x3cyxvjJ28/YbxijEh+iVPLHDeDsrJay6vGMPVlfxwa9raorv+d+pqK5NFjgnSfrwd4Rd+fvj/mrinW+xmE7zK+pMP1Ti9RGxIBm1OqWzzp7C5ZqlBRm6Do7JRGst5G218Wr9XdpQcmrsDJzROJj8OOZ8Sdm+KZZKvkh2THM0soBzsAwaOzsDEkwHeSf62gO8e77nv/lV1m4C/VSD++WP/6l+btw60ObhxQKABjk9A+IKj4X8RoOc/dref6Xuh7UVMOk8OhmIwJbnok8unB7VhdwYUFnGNT0cnObJP/6TovrrHS99jywes0sSAl9ETzASw8GWDb/igyAeRC1+u5s+MMOtRi2YxgBV0EGXU+WS3Bj9y3bjMmu+2SYQuLyd+tlxd6+Qyigkp6adZLLEWynOfa5vav733d9fcCn9ugXmLgNrBYPo375uVzcfUJ7uw0HCbgLDzUPL7e4ivubvW7TxNV4jUlccUo1LfC1x10kvtZGK7bIRebQtjs6+MyT/qPm7+/neesCtdpc36GONf/7b0jLGmFue6bPG7ssX1hvaa+jvv56X+y8vYHEgfyFhl91tLL8ECjxNKV/0w3Kqu9naa9ZA68PGi/D+Pnbz98ngl9BZ9Jy36OW+HLOklzlX9U/vuwrdP1BhcM1d6A5KQhcdeaZetW/n2dS5X0cbF+nk8kW1xjsbSZ/RYpOdNRRmlXGUeWL8WFw+6sVG0Xd23235v6geTHycrP440n+L9uzEeSj9wPjiD+J/3KfwPHibLwLEkA7wT6daBf7TwTxz/87cTWLcOdHG8mHToAYEmVTxAdZx8p4mSvgeyelBOeIjPDzfc1T9cdCvP08CRzhsi2HH5DB3adOQDi55IRBu2tBHLkc3Y57kv1Ouz7l5kuyb44MgnHhxaXqY8uRJ6dvQTDSL6PvVD/1Crp9UDo77+5xfdpS+5Dnzip69iF3QQkwt1PtmqycbsN5LZsjn3ZWKJ21L930GurnUK+/MJPOmnJ2CFMkEv9sDEw+yKGOdB21v1N2Mrq5BzKE7G1Cc72LxpZ8Do8pPv6507/L5eskMhgdKJgU56qV0T/p7w+rWgQq8xJAOa+klrcpNvQ407APiW7cJtSIx1q3/qY2LLcfEWNPJb4ZPFBr91/iwkA/iCb/9vX6XxQul6ZpIBvQ8df6p8lfznvO25rR/Z7RKKM94/rTHcvwYwvAJS7UT0i9nsDUiiH/P4KuPfSSUDxtJn9Fik500dbXAakwFVDJrkOOnfBiCf+9N5PtWpf/s4KFlsjPWqr+gYjO+FcQV2S+MObNHJFseWDJhEpxUTUD0gEADXVtNrdN49cUt/uOgutf3RO3bFvXObboU/WC7ULwf8tICT2+H8swxK+ovB0dChTce2iURot3OQtgKL3NKVdPRlmxZ2VBcvU04GiC2wL+6FREubn34fHhQp76V98/QGe3BWLYN4H7RazBcnDiS/Thio84mzJhuz35p2iXBfSjszWag9/ylkt+XqWqfgrLDQF2UarnTNidsqtFycBz5ZrXVUW2P9YoLfG30UTlbqJ6j7SeDIfbKDzefEVnXJ/Ojy5wz4q0RLj9RrLuPiN5XvxEAnvXQyIPlP6NV4VagnH1QXEwfji5n+Xu30+sD6VgH+TIPN5XhrQikudzrO6/QJGf0cBd5XS//z8alwCxLJImysEgfcx9aC0tfBy9jxpWmSzvtt4U0NQUfpR7EVm8XB4jMDxNb6xBfZoF2PeXebJei3719pH+//8Hs2ZnA9Zd/lMuj/xXNSfGwUeugddalvan1KvgvtzS+4y1/ccQP+NoQDlWgQ/ZjbT9plmNsEROKgWD/XqYGjcfSZkZMB0gaTYqOtn7X9XrHFOeR+rO08wXEyxc49N9R8Soz7G+528fY1+WwBJAN438H/Orbi+/EwcfaTAeJhNsNdERLb/IyF+px6WBKfYH39N/ZkfOvcMHGSVxSsCZJYgBn18IGlOJHoMgkrTVaF/firyzygLQNWqJOXaZhc8UlG4UGIdlBous+16kRioia2/ekFtTHoeh24bPp8sluTjdn5TYtQ7kvOkq13N7m61ik465IMOChNcNVW8ixpwHmw7X2BP4H7YMc9/oJtaWW2tB+UVg6c4iGPhYdHzamrfFmfFLseCosikURUzB9B/hIH/kpOeN1l2CGQ27QTA1yuEuM95VteTpyvfEZ9JHzKhQJ/4Nq4Yqa3E3+QoL9VICVdj/rgQM7XvBMy+yu11hPahf78fH/rB+8P9sNJK7/LtzWIK+5qoV8aB9o5kL6Rk3QpJ7/9QnDJd2Xo1zvqB+IZz/jhb3swX6mmdLXiJI9l9kPelA+Ef6Se0gYN5wm9N92Du+xZQC3JJ+6Xku+EjXsX3G1+SxWP16of8gcIcruYD5AkO4g60m0PQQbxWx5rKjmbOBpDnxk5GSBvM5sUG9yfFp9tv1c25Bzadp7MOHmE+ZRI9Bivsa754rHZJ+Y79zHiE5/Fi4syTjTEK9gQNlQMnP1kQE9OoqzXoVUdqHqafv/nKxGSNIH0T8HXr/Z5333+V/ksAR74dcB7/Vf+qiffSfPzs4VH26CnJkbFiURxobroHjc9hOz8FbeyyZIafivsX3iA4QNWaZLNyzQFfjmBKE+qq2cZrMcnXcsss74X+NzFZTd4l27laH2A4Cdcv/p/MQHSV7rrMkUb+9+ZDbLFcWqv2yQhle+SpOB1Nk1+xESxsFAWZfzCJ3tdZs/pVyvl22OZLcRrp5hevSviNXq+X1yPVxlG5aTn5I6FPTdan5S87T9flq/2Uq8tyyc7o8q/4C5dLDw4TLziNG3dp4lBJwZaGc8fICh3bXzo7r5g/exdX76iMww8OubJhNK4YmalN/PTqyeuT7JlcZxzN8L/+tWtPiHzdtM9/uFa/mDH8793V7+44/q/PnRLcSDWiyPjdVw9/Rpa9WDEjuMA54CPVcRJ8/Zd3m+9nw05Nft6l4pYLBhv/8lsaS+CuB5mTBMsW69ArP18/oq7/WyV+cIfl3p2X6jwHRG77s2rNG4OllgyM/o9scb1EWP4BxfV64jpnHl382mq/5C/ylboruz3x5/dNt1SVIjf/jXD6/wWJJ3IaKo/6iZjXGbDzM/D9hm5qM/mTU0yit8mwwb3p9XP+O8mv8GOnHI9u6YAACAASURBVEPlR2Zn/rrZ8YyTLG4e5G+LaJ5PqYtbxhiQn980JyTe8ZliNGwBW0yGgRlIBvTcnBoE/QT99eYTt76y7G7fWnYPHm247d+qiawI3uoK3+GrjeqclVU3+NUPxrtuny00xbk9NTn2g7C/lz28riu1t/2CJRSMK/9iAWb8zgcWMZGIA0bPle+x5QPOXvUqu5cbLrxKLHsK/57zD0G6wOtV26HD045r/bbuU1JFtpFNDFh958Q2sz3n69t+/tA9uOX95N8QsOFe1/dNpnr4lmDvw133+um96Nc3+3tu/x2bOPGrmb5tMTkoDLqizCjJAH47Sd8txYWt7NTcl5IlWS4Gww5yiavhfnv8Zt/5V8ZtPb/n+D27YheMnyj+ulGVYwsXwSJNKt9uu61H98JbNrZe8PeU+23Tso1Kbs5Dwd7+yq56VsXrB8RTz43Gibeh0SdfVXoOnnXtk3rxtud8XKhew0d87rg37BWdidXKj6PJX0+wX264/tqdwLePXbfvP3GvWVvZxLjXc50YECypVws+23CvWZzz8fPwXd8t6VedfXLPvSYu6s83L5JtKMaG8w+st5MY/hkhZlL/kO+8ruP7o/ytNtw+TbfxUL3689y1n922tg/Z4V39alBxv7eKIWrLr7fPvo/D9asdt/jizI9da/krdHnsKI0DvIwdX5oWcbzfVrb0cr4J46iMzdG/P+j75HP/UpwZPN+sHpT3207jLhdve+6vSgYd04w+6jnyccr3mZVV19+kcVf5YuRkQI/tPkn2yS8i5LGc+0X4zieYxRhYj4PPeZxVV2BVP+Y7A7ztrrI32wQ/hfor+0UfRHatPt68C6nqG00c1THwiH1GjEV6XtRog8mzwf1p9bN2fr2NeH87znHyaPOpbGwLc+2aL+pz7zbdNrvVRY+POr7iex4zYBPYZNwMzEYyoNdz7322GheS1WSFDdg0+IVMKH+toHpQCyvn63j9YFm8gicL/D4Dzifq6nz/rmZ/JTXKowe1Y9gZMFAyRVnU8f1ffmZXZ1NHzCYX9XnJFnxQa8sC6ytgto+8jIPvkwzZA2+47G/7bmmF2fhEkgE9xxfbpStFbZOIrPOLSY+e1Nb2MRZowceaNWNBUrGQ6tUTsNtrNKE2/PTbE/edXiyGxA/noTzJ8a+JlFuwN93dP5LPR+Mk2G8MfXLOurIVmfOT8xsiLuSTnVHklxNss5+WXjXVhQHBkuHPqJ9Pfjxx32XPT6l807gwjnU0XJEbh38owSi2bnudrNvE+BVdtSWa6uny+cENt2696SHqzG2a+lTs0x984/p1Qtr0bV3P60c3VEK2sjuPHWJByWTnZVJ8pj7lPyVjklveb/fcYGVR7bji+u267bt5wsLr2hir/W6Da8sujUmF+NCF5/mL7vYzngTm8rH/9/vuO2YjuQhrG6+47XpuTjwnoGqjfOU3ncv9InzH5wYmR3su40H0Y8t+8+76XfWcEavuYiwZTzKgisWj9xk9FvHEdmuCf8JscH+a/awLvx2TAZMYJxv7aNt8qjfvruuEk+DL93H5HCoZZ1K/iLFR9E/8DruAgUkwMDPJgGC881fc0tqGe62ueu+/9VfCVt3StQXxsLLK4Bfczfv+nDSB8FdtHvz5ojunJk9m4Kc22ZWj/Vebrv/jleqhRXzA1wu0iScD5t3Cta/cg0d9t/VS7nLwE9J9f9X3acku1CGrbfvcPofvdtzgFr11QE0i4zuH6fz889zFT93K001xdTXK8+iOu/lRvl363OVl13+x4/bpChx/3Rq38QklA+Z+t+y2aFDMdlhUNmidROhBUUz8jAVGXf69Py27wUs2Md7fdW/8Fn9V37mLX7n1TWbDcIVy1X1el8snYN73T+KumrCI8czc/6qwvdXryXmwJquMhw+W3RbrN3pnyiichD49/7H7zscBVvcwfZJiiX7C9/7Lvrv9J89m06Iq6Tec/Avu+k8Pq35KjHue9nfDVeTHK5822LznWhkQLKVYFxemnpkXfbf+Qx23FDtVrKx1O/+hu7nyxG2zrdK8/35eSCTEOo4YM2M94kGCe+7QvP2F8Wj+nvyV6i0d8/F00a0/87GL9Tfmp/7ashm/Qt3zC+76D6u5j2l8CmzZbfPYIRaUzE+8jDlWNXLL7FTf5+vjxYPn2yzmekae1H3AltPraZ63ueq+DlzwdsrxoZXnoPe8u/Qv7shxgfni8coN91F4CC2Xlbc/ZDKgx3eA+T6kb6vj7aT/uV+E7/74jc1SEw+iHzfY76Mb+RjbJZZ0qr9b/Kv602h9Jh+Lkj1bkwETZoP70+5nHeLxCY+TI8+nlG35+PH6+b26jw/DB/Mri2XtsRjnwUZgYBgGTnUyYBhFURYd46QZSNuWmx6wNr1+apyAnaWBmiePjATdSXOE9rv2EbktPX9+Rc/NsYcvlibusLe391EWyV39hXJgDQyAATAABsDAcTOAZMBZWsRAl/jwx+PuSJ3a41vxX/zsPjpl/kIyAANUJ86nhGtx/2rhwYHp9p38oXynSdfJy4pkwORtjPgCG4MBMAAGwMDxM4BkwJRMXAH/8cN/EjbnT9vf/unCdCcvVN9AMmA2GD2JfjH2NtVT0d88vmHcAtZLz6V4+9DdVLyPXaZTXT+SAeAB8Q8MgAEwAAbOIgNIBpzqCRo65enrlPPuenzwnn+YTvNrp6ZJPyQD0N+miUcty9X7G277ed/lT0V/4r423+DxcXyFpX9Noq4P3znvSAaAB84D/gcPYAAMgIGzwgCSAUgGYBIMBjoxgGQABr5pHvgEn/Swzrd9d7vtgYXo/x36P5IB08w+ZENsBgNgAAyAgVEZQDIAE8EOE0F0sFE72Fk6Tyy2zvKD9fAAwVMZEy7fZ6+6fLftttYW3dXsafGIZaPFJCQDRrMbeIPdwAAYAANgYLoZQDIAyYBTOfFHYJnuwAL/wD9gAAyAATAABsAAGAADYGC6GUAyAMkAJAPAABgAA2AADIABMAAGwAAYAANgYMYYQDJgxhyO7Nx0Z+fgH/gHDIABMAAGwAAYAANgAAyAgeNgAMkAJAOQAQQDYAAMgAEwAAbAABgAA2AADICBGWMAyYAZc/hxZJjQBjKZYAAMgAEwAAbAABgAA2AADICB6WYAyQAkA5ABBANgAAyAATAABsAAGAADYAAMgIEZYwDJgBlzOLJz052dg3/gHzAABsAAGAADYAAMgAEwAAaOgwEkA5AMQAYQDIABMAAGwAAYAANgAAyAATAABmaMASQDZszhx5FhQhvIZIIBMAAGwAAYAANgAAyAATAABqabASQDkAxABvCIDFz47I57/KzvHv94xb13xLqmK2AuusHBnjus/wZL0x3Mpst2sBX8AQbAABgAA2AADIABMDDdDJzyZMDxLVbOLVxzS2t9t/1qNy6OaJG0/3bbbT264z7/YLqdfVo643sf3XArjzZyW7/bdW9e9N36D9fcwvyU2PoPP7tttmDe/vniGUqutPUv+Tv1h/i5P4X+Oo3Jmvlrbv1lnZR598R9PS3sn0ZbQuYzFJ+mZAwAU2AKDIABMAAGTjEDSAa0Ou+Cu7m26fbZgi8udtQxXDk94uRs/mN3+9lOlmwx7f12061/eeHkg88nq+4N4+DN2pWTl6mV6a5+kov9nG/5u+knss3bDbdyef4M2aarDcdU7oM7Mem0P1h0F8bm4zHJB3nANhgAA2AADIABMAAGTh0DSAY0Qjvvrq9t54vTt7tuP/6Vt1H73QRfr6y6wYsdt/9s8dTBcaw7CT74xvV/S7bkC8tg633rt103WJpkQuB999EXi+7Bow33+u22e/CJtXC64JYogfHqifvuTO0OkYv95mTArnu92XeDZ9Xf1stdt6999q7vln5n2RDHuvS1j+5u1rFo1w1+WEA8aYzdYKoLUygDTsAAGAADYAAMzDYDSAY0TSj/eM+9piub/vPlQ/f1xfzqZriF4NGme/yDhOnqGrvKPUAyoBhs+DZosvervrv9z38v7sE/t/Cx+y7bpbHt1q/lPim21eTv7De+GN5x62YyQPp8PO1OS51c/z3XnAww7DN/0X39WCbT3jz6FIvYjLOu/v7UPaaE2W8P3ecj19O1PZQ7W/0Z/oQ/wQAYAANgAAyAAckAkgENE+pL8Uqcvyq96VaGvOqLZICErdT50hXP6up/2zbo9z5blUmaV6vuaoMfS+22H+eLYWOxO5E2u9msXfZx1MP1HyEZEOzzoXvwK9vV8fKeu3zm7TYO29t1LPy4kXYHLGF3wPH0A9sXaBt2AQNgAAyAATAABk47A0gGNCxMxGL+oO+WGspaIIjzsTPAviI8/43rv+OLxVV3vcMD0mQCYdf1v53E7gC+GEYyYOidAXV/Ef1ghH5k9a2ZPTbPmNxcdgtDxqSZtRvsZMdf2AV2AQNgAAyAATAw0wyc7WSAeLhbvZg7f8Xdfrrp3rAF6JsXT9ztP72fgbDwE92j6xeru27rVpf706+49VdscUvb3sVnSiyIhVK4wj3vLn3/xL0m+Z59k8n13p8W3frzbXlPtn+jwf2v3KXSQvr8h+7mykO35Z9fwO/l3t91r5+vuiVDf79wWBowXUJCY95d/v6h22JvVdh/ueEe8If5GTbef9k3bXzu2yfs4YxDLOp1EmGw6M6xYJbL3XPv/WnZ9V+wWzeC7vfyWz+W+vlzIoT/9lx6UCBbnB1YV88pY+qfP3DHPd7cdvvkW19n/cT9B99+KG6J4Iu2XJd5d+nP95y/Lz8+W+HdJPzfphv/vZwsEYyLZMC8W7i26Naf+mcyMF0O9tz+q03XX/nU5FnU19pnxtVGz/lXSA64zX/bdP1bHyfu/G0R970uqc/sv9pw63++mMowRoOPz18x31JSvaFk0X2ky/fmWZ/cdCt4BkMWH3nfwf8Uf/AJFsAAGAADYAAMgIGcgdlKBny56AZsoh4XUmGhZ9x7/rtFN+ALt4Ndt73WsOAOE/ejJQNuLvXZ4njPHYodBe+7z60HGvKF6tu+W8puZ/jGDXgCgJeP/9sP45ML0TvuproHPNmwPr/hQYA+odL/i7yCf/MxWwT616Zli58cWurIS8/Souvw1aq7zs6Vci+7yz9tSLtGvX0dyvfjTgZ8cMOtv2B6iraTDvsvfjZ3RWhdrj+Q9+EnH+w5+xaLUf3PF/tWooP/Xk4GfP03pjvz0+X7ZT2iTr/ey2yikwFNfWZcbXzXwM/rtWvu3Pw1d7fBx9s/f5gtWs9du+deN/bLlDQk5v0nT1IO1HNKeDn8X44dsA1sAwbAABgAA2AADICBnpuhZMBuvCJLTz33V8njosMv0Ix7zy/oxbkvt++vwn7jPjpvdaIFd/37ZXf71rJ78Jwtgn59GI7547dv3YhX/OTCZsNt0QPCaMEYkwH6zQa77vXTe1Wd95+Iq5GHL36O9VeQp0Xb682H7kGQYdnd1ucZ7zAXC9F3u9WC+uVGeGp8Zr93fTf4pVrc7v9aKPPrPSbbvLv9PC2GD3+5M9S2Z2E7ccVZ7Wh4tVO9/m9/x20/r592r33Pn3T/xxu1rx6yZxPsuq37lV+9D7+7RvdrJ9t6lrKt9NbDEWv7DZ5tuG3lb2sxb/rgt023FZ7cv6EWlD4pQ7IRn0nG4fyfzjN16/Hf7WTAub+/F1+J5+vY/9tXcVEc/ffbphus3altfsetP5f9cvuuXEjH80KfbeozPRfLHqUN4p5svqmTGJtuMKhlflVxP9Bl3j1x3/FdO/NfydtjXm24x5Gve2EHyaFiOg5Y19LrLNMOFfI1PqOdWHIQx8AFGAADYAAMgAEwAAZyBmYoGbDnDt9tugfiyfN6gW0taKpt+2+sK3j7O27w45Xi9u64EPGLlriol04QZUICwO8+MBIN6paH/rfqloUP+C4Gvd1+0T1+fsddtZIX7P3l1ZV7KZ9YiB7sOf80+PfiJHveXVrht1JUC/twpZSVuf5Xvrjbdg/+ntpQuygKNip2XHEFX15F1XLvb95xl/lirNdzOtHz+r5cdM51WOzKMnkyQPp32z3mt1MEG82rXQvadyqx4X3wt2/ke+aF7yvW+C0TXsbR/M8X+7luUnfZd84tXHTXf+w72W823d0/ku977ur9vntsbqGfdzcfM2Ze/OwuRZ7YAp8SZmHHjtFneuNrY//5srhl4b0vn1QJpihDvivjwi25G0Vcxf+B3YqiEwW1rucuXpR+JhvML7stanfYPkN14DMmpYrxBTaCjcAAGAADYAAMgIEzzsBMJQPyxV7PzfEHcllXdgkAfx88vU+eJuL15/6Le+5zY6EtFoKFSbso4xd6f71m3l/Mt1rv/+0bswyvi1+BbZ7sXnR3X6Sr89t3L4pOLxbV5qJFXeH87aG7qRbdc7+7I64Op0XRMSUD+FV/8mf4nHff8S3s2c4EvhiWi91kU15GL5ilbfQV7lTHgru9mXzgE0d8Md/uA7VANna4pLbSYrw61uT/Jt18PfJ3sctG9RGfaBosqQSW8IWS6y/sWRLq9hHOuW+z1GfKOtdtdW5j2z1gSQzLbvbbRm64x+y2pNcPPk59iycDhn5TCbO7SpS06txkc/yW/ANbwBZgAAyAATAABsDADDAwQ8mA0mJOLkizbd4KgnML19ztp9v5/ecv86fgi0VLp2RA6YFgSsbSfcL8Srn1Crfzv3fX/+JvD3jo/BZ1/9A28TBBv7BauyI6vliIPl8Wi1RrUbT/+IY4vyojF0XJxnIhemjWrxaJzB/CvmpLtZD72aIhU10vt9nbh+4mq18udkv8sIWZTiaJ3Rwl31ZynLtFr4zbc4dKDqFLgaM5rkcpGTC0/xt0C3aSvxeTAW833Xq2I4L8Ou8WLt9wS7fuuPWn/eoBl+phgnq7vPR7s10r/o7YBnvOAV9s8wSdfYvLglupb5sJSQvet/TzSPZ33Nbaorv+d/mDTHmb1f8sHpR8LTgmW+MztyVsApuAATAABsAAGAADs8sAkgE9NrHWi7mGCfW5i1+59V/YMwH8QvrRp2LRKRYthUWcKFOc2HdcdPGrsbyu+Y/d7Wf6Pmd2JZqd15gMKOjAF6v6/Cq4lG0sFlRqEdwWmMQDBFXyo12mutOLBbu81eDIyQC1QOcPOMx0a5CD61K63aQxGTCy/yV3KYlDAZP/vuvoWRyD8CyDvuuv3XFLX5TfknDhy9X8GRmMxZRckH7p1mcqGSfZhpBjhL5x4dsn6jaKuk/6t3OYt0+Q3Vl/4v28IV5lvKGsiNWwD7GFT7AABsAAGAADYGCWGEAyYMRkQAXJBXHl77BpO3NhsSAWFMWJPV902Yv4tHCqf491XXBLA5m08Iu28LCyH264q3+46FbYQ/z0Yr7LQpSX0edXdmKLF5Vw4U9GD88s+FK+baDYGdWrBfWOhHaZ6kDHt2sr/52NZMBR/C+5a04GlHZO2APKuWur7OGMe+7QP5zv6apbubXsvv7nF92lLx+ye/JHSwZMug3Rdwv9u43DaqfRppkU2H+2aD8zoMduP1FJsGJ/weIfi38wAAbAABgAA2AADIABxQCSAUdKBvSc2N6ttqp3WSyIMnEBrxdQ19z6K0oC7Lr+DxfdpT+0/F1cqLb0f8YXVZtu5aJebDdsZe6ph9eNuOCZa7Lx79jD0PxV4exNCNoW1feP7vIHF+64x5/JcnwRphMFfMF0ideTLaz4Yri02OVl1DMD2FPfwz3lDe+EFxypbelcl6F3BhzJ/w26hUDCfy/ZR/qlsr18RsKbpzfYQynr8l88ZLfijJIMmHwbou+O3DdqfecX3OUv7rhB7OdVf9/6Ub8Zwpdndi+0yxnH/xaDOAYuwAAYAANgAAyAATCAZEDTQlVlTqwOIxYEE0sGzDu+IDQfhFiQVVx5t5IN6gq7vrLP2y0tRHkZfX5ls/LOgLmeenL8wZ57/Vf+xoK8k773mbqq/Mud7Aoql+nwt4fuc9M+H7oHv1KSZc/lSQO26DooLXZ5GZUMUA+n3P6p9AC9BbF7Qz/8UehSWvypWxKu1voezf8NuoX6+e8l++T+m+uVniGRyn50n9/WMkoyYPJtiL5f8Av3nd03ks5VX7ngbvNXklr1sltK/MMTrbiEY9qu+A4mwAAYAANgAAyAATCgGUAyoCEZcPX+RsNDvebdpT/z99BXV7WLr0D79Z77yFiQigWFtVinRd1Sn10ptV5RV8EdnmXw9GdHi0Fx5Tt7G8D77vO/8kVXywMErYWJ2j1gL3iakgH+jQ5s23N9z/j+L6vuu8v17obaBn5L9dKjTWYHv5CXr6sjwPkizN9CkScY8tdK6t0F4grsQf7Kv6otviBWyYDevBPPRDjYduuf6QfEzbtLt7hvm3c5lBIypWcGHM3/Tbp53vjvwyQDpL91cuvcxWU3eJeSNI0PECz2mcm3IfrusH3jg4viVYXEbUiOPWW39RgPv+QJnq1beqcPBrlkS9gCtgADYAAMgAEwAAbAQBMDSAY0JQPW2LvO93fd/tsdt/18w22/yp/Cf3iw4x5/ISfmfNLuF6T7v244/3C1rV8fuqV6gSsWFMWFjYf4Q/EKwPCMgJcb4SFtt29VbwjYelHLy+sR28T33OGrDbe+suxur6y6wa9+0bHr9tnCSy/mxaJ62AVPTH60JAN6PZcvAOvFYLC7ZW//ezkpIuSmh9K9quy1svbEbb3ki8095+/PXojyUtCQV5cP/RPfw8PxNtzWfXrrAl8Q62RAz83pp8Z7Dl5WHAQWlByv1/JXSwpdCj4oJQPmjuT/Ft1GTgbILfyewddP7znP8YNHG+H++f13bEHctOOGsy78N/k2RN8t+IX7TvQtv5Nj38eTh+6B77/h745bf85iTngdo75NgL8Oc9Pd/QOxis+mgQ6/gQ8wAAbAABgAA2AADOQMIBnQNRlAC0rrc3/H9b81toAbC8HqQX9p27NYUBQXNrXjzn/q1tm29qouuagNx3695y7HhVH+ADl+3usHy+x5BCe0M4Bk/eBG9oYGLqv4/1Xf3b4sky+8g/NF2OHgjtiGL+rxi/MXP7vr83nn8PVdfSB3TtC5aWHXtmDuubkPvnH93ww/KZZeP7qR3e7gZZC6FF6TWLhNYK53FP+36cZ/H2ZnQM9lD/fjtnjbd0srfUe2Hm1nwOTbEH13lGQA19n43+SB39bz4mfHdyJx/vG/3Z9hF9gFDIABMAAGwAAYAAOJASQDGpIBc+c/dDd/XHX955vujX73+btd9+bFhnu8csN9dD4ZVMMVtu1v7rj9/bQY3H+5Gu9hFwuKtmRAWDS/767+sOq2Xqqr5UGevlv/4ZpbyBa2F9zN+xvu9VsuA72+TF61T4vcSqcuC1FeRp9f2UO2kT+Vnttv3i1cW3Trzwybh50ZD91Kw+vqyP5cprC1fv6i+9rbgO2C2H+16fo/XskfXkfJCbL3j31hu8N3O25w62J9rzZfEBs7A6iu+QV33fKb1+nZqlv6k759INkk04Xq5J/FZICvZ1T/t+nGfx8uGeD9dO7ysuu/YH3DXyl/uuyu+v7E9RlpZ0Blv0m2IfrusMmAP35TZryBh4UfN2KSxH64YOKG+gI+YRMwAAbAABgAA2AADIABi4FTngyAUy2n4ljHq+l8MY3/8SC6qWeAJdV+e+huZkk/xEPEPjAABsAAGAADYAAMgIHuDCAZMPULgO7OBPjJVp2upsP3SACcIgYu/ESv09x1W7eM25JOkS6IVSlWwRawBRgAA2AADIABMHBSDCAZgAn0mVwQIhmAoHpSQXUi7X6w7LbqW1z2B4vmsyUm0i7i45mMj2AF8REMgAEwAAbAABjwDCAZgMnumZzsIhmAAHdmBrn5a26d3jrxru+WPoBvz4xvMf6cyfEHfCJGgQEwAAbAwGlhAMkATMbO5GQMyQAE4dMShCEnWAUDYAAMgAEwAAbAABg4CQaQDEAyAMkAMHAmGTiJgIo2MZCDATAABsAAGAADYAAMnBYGkAzAQhALQTAABsAAGAADYAAMgAEwAAbAABiYMQaQDJgxh5+WLBXkREYVDIABMAAGwAAYAANgAAyAATAwOQaQDEAyABlAMAAGwAAYAANgAAyAATAABsAAGJgxBpAMmDGHI7M2ucwabAvbggEwAAbAABgAA2AADIABMHBaGEAyAMkAZADBABgAA2AADIABMAAGwAAYAANgYMYYQDJgxhx+WrJUkBMZVTAABsAAGAADYAAMgAEwAAbAwOQYQDIAyQBkAMEAGAADYAAMgAEwAAbAABgAA2BgxhhAMmDGHI7M2uQya7AtbAsGwAAYAANgAAyAATAABsDAaWEAyQAkA5ABBANgAAyAATAABsAAGAADYAAMgIEZYwDJgBlz+GnJUkFOZFTBABgAA2AADIABMAAGwAAYAAOTYwDJACQDkAEEA2AADIABMAAGwAAYAANgAAyAgRljAMmAGXM4MmuTy6zBtrAtGAADYAAMgAEwAAbAABgAA6eFASQDkAxABhAMgAEwAAbAABgAA2AADIABMAAGZowBJANmzOGnJUsFOZFRBQNgAAyAATAABsAAGAADYAAMTI4BJAOQDEAGEAyAATAABsAAGAADYAAMgAEwAAZmjAEkA2bM4cisTS6zBtvCtmAADIABMAAGwAAYAANgAAycFgaQDEAyABlAMAAGwAAYAANgAAyAATAABsAAGJgxBpAMmDGHn5YsFeRERhUMgAEwAAbAABgAA2AADIABMDA5BpAMQDIAGUAwAAbAABgAA2AADIABMAAGwAAYmDEGkAyYMYcjsza5zBpsC9uCATAABsAAGAADYAAMgAEwcFoYQDIAyQBkAMEAGAADYAAMgAEwAAbAABgAA2BgxhhAMmDGHH5aslSQExlVMAAGwAAYAANgAAyAATAABsDA5BhAMgDJAGQAwQAYAANgAAyAATAABsAAGAADYGDGGEAyYMYcjsza5DJrsC1sCwbAABgAA2AADIABMAAGwMBp8juuAAAAIABJREFUYQDJACQDkAEEA2AADIABMAAGwAAYAANgAAyAgRljAMmAGXP4aclSQU5kVMEAGAADYAAMgAEwAAbAABgAA5NjAMkAJAOQAQQDYAAMgAEwAAbAABgAA2AADICBGWMAyYDT4vBPVt2bgx23/klDZiiU2XODpYYyJX2Pcm6pzlGOL/Xd4cGeO2zTdZS6Z/GcYM++Wzojui8N9tzhYHFyA1XdDzyDI/WjKbPzxO11UvpOS7w6bv0n0Z9DnS1jyyT1DL48wfYnqdvY6r7i1l/5cXG0+Hdm48DY7FvPmcbZF8bGdeX7N2tXJjfujduOqM/2Vadxq+7rk5znwD+2f2bYLkgGlJzfFMibfivVd9TjXdrsFGgKiYKjnHtU3ej8LjpSWXx2C2aTWDycoO0nO6lddIMJJAGCzCHBVU/m/f+vVt3VY7DjZO1ViCXHoNfcNMSr49BTtzGJ/jzOBZCWt8t3xP3WWH7UfnzU86dje24Vn6uLBXUsHXccHWdfGIbrOp7Zus1uMuAkx86JMN9p3EIyYCK27zIWzXAZJANKzm8K5E2/leob5rg14Zt0m8PIF8uOeZCy9I5tHdfCYzILwiMFt652scpZx47dpuPznZ7UXl3bGd/CekJ9TMs816sH+3FPZA2/5m2PzxdHYtqQtVzfFPbJoeQfo81Pe3+25J9Qvyvz1HNzlhytPh3zeNfaHnEzTLt22emMA7aslt9CnDcStUGvEXcRjnXssHzZketKB717z9uGjnW3k2W7iR4bqR8R1+2fObeVLY4rmT5R2wVmMLZN3sbtnEGGnkMywAri/lhTIG/6rVTfMMetADvpNoeRL5Yd8yBl6R3bOq4OPYXBuatdrHLWsWO36fh8pycHY53QTaiPaZnDwBPaosne+OyjBzWz7VPn/ynskydlw9Peny35J9TvdF8Q3y05Wn065vGutT2KC8O0a5edzjhgyyr85G0U+CjftjXqGDDqeZl8JT924LqbDB3tVJJjksdH6kfEdfunye0xjZ2d/Xwk+2JsOx47t7M263IgGVDqyE2B3PgtBC22FVjcbxzKsy3CDfcC6XoOD+oFQ2yzCh60nUzcRxbLJPB1fUIurrs+N34vtBd+Zzod7DkuSxjkSvagASR8Vlum1/294Kx8zPzqdqyrqVQPnS/KSPljvVx3+l/XI65EVAMyl7FoS6rPfyr536wthns/ua18EJJ+SvfPyuPeRvYCsliObK3kyGUfwk5eL6qXbMZsLmVJuoRgq+RI/vDtq7JkF9ZfQt3he+6PVFfiPwX4vDy3gea1ZOfcV+VJKrWdZGZykf0YK1oGLl+3dpUPB4sVV8x+JJP8VOdlfkiTUSljzqL8Xdkm+H7HrS/5559wlnX7rF7ii/o29UmqSzxDpdnHtCPD9z3BKGNX2oX5i/kp94XklvzN26j6u5RPxoCONja4metp+zF5TDux/sv7MulIbai+qnnsGtvIptweVRwdYmwLsik9W/0m7U3PoSnK0es5zW/0kbKFlz/+ZpyX2Ypsa3zqNsUzUYx2i3UbZUlGYlK2xfpZLZf8XfVfQ3byrWZBx2Jqn2z/5v/6P+sYkMZ9kjXWWbdH5+rj6XvFRbQL8av6Rapfc8Fu24rnsr4fjiU5uW7aXqkNGvtZX8zsp+TOficZUmwg+4X+o/nX/le/kx2pDpK1UYdaJl3GM0r1pDkR56mpr5I+1VzInx99p2xAMidfq9hVkC+vT8mjxjhLP9Fm1sdpHGP+Dfb332VbZOdQXyxDejCuoh3IPvIZEW0ykq1kOe4T4gmf2rf4jp0B5Xv1eKdVAaoa+FIQCJ2PB96lfgpuWT31QNQ0QbcGpFAPn0BTMElyDCVXi05pcGfBJMjF2qu3O4tgR0GT26OWPQZoGly1DQy9lwasfdpezc6rAp+SaUD3Y+eDbQiYXDZth3oCEWUNv9fBnbVL9tG6i6Ci9abFrZpIUhCP52o7G3aJZbn8VrlwjE12yD8iqTCCnahebhPSjx8L5cg/up0rbl34isqlwUrbRn/P+h63R/y/o/+yvprkiPb+ZNUN+IOchH5GecsmNWOcnUwPzU5ru5WOWZ1+Ec39EW1Sy1q3w8+rEj18glbHLItbxlEXHUISQPW/q2t98WDUvI9qbqyJdhcfJz1S/87tFn2tbVV/1wxW9krsht/jxI7idDXpi+1m3CTZuC+qulgMDOex763+q+rldXr9hA66zvC9JWZoPqlOxUhmS92Wt2ldl0jAhXLJppTwiPaj9hRLvD2hY4h7jDNLDt8veV/JdLRt2cp9gaPoB9aHKGHFF5x0TPuQ65r+t2UkJlMdNW9M36PpwZg0xmlqn/uvm162PklfH8dUGeKX29XoJ5m+3k+Ki1BGLBzVmMXsRxxHHUObnGE1Pqi2pE68bO0rHlOMMaRtrmT7oI15ulDB/cvOMXXI43VoO/ZV0qfBNqVYa+id+VH3W9P3KRZUduH61fJFeSlJyMvU4w1no26nMY5lTOS2ynimWMd5pj7GZCT/NvXxMmOcN/w/i3bCzoDSQJ11WtZB1G+hE/JBgdXpf0uds67DDKCsfuv3OtDEgSa0oQbBIeTKYFfnZgOb1Z4ehEMZH9zyIC9sFPTLy+iBOJORFrIxAFqBNNkxDBLaL1pP5quqvbzObLCpzykdJ7mFzrEdy2d8kPHyqzIWD7G+pK9pP9PWUseR7GTVG2zboEuj7TtwQ4Mi82mbD7wvSmWy443yMTsL20tbku/5Z+CAXdkWk4VQVzfdeZ16cZTpUstoM5h0Kf0uj9eTI2b3Shauewcdgn15kiHJIXTLeOft1OcoX5X0l8dtPWSZgkzk89BuA+MGo9SfZVJG9XGa3DXaOF+sSD8l2cVxb88YM30Z5Sttb6tv15NwGn9E/WQbHbfi8SSXGaNMLqR9go+0bRQDgqE2WbTOlqxZHVKm1Afyscy2D7ODb68kf3bcalfVFeW3ywZ5BAOaJcVEXV8nPWLbSSbdp8z2M/um85MvK32Iu3RclvX1x3mWyW8+DmgZQ92CCyPuGLommZTtMz9KmUNf0D4x66/qlfEj1yfJUbWj9bN9oGTSPumig1ik1nI19lVbHy2//x5kPuLYGerQ8pCdS/qJ4wUORBnqz3p8a2PCqrvtnNpnqn3Tv4Jn7Wt8t5ib1WNIBlBQ0J+qowlA9G/hu7/yoycFddATwYy2BekJJeuYVgfWbQZ5W4JGUS7WFumt69ffrfb0wOHLxDZJT/ZJAdnSz59bOJ4NCDSAhrbKdszOi37QfuL2yIOzrydONMheUddS+5Vv8kmM8lnQmdkoysjaLNhFMFmyn3mu1HEkO1n1dtAltkUsRHt6mXK/hPKsrP6uJzyZTeoJRSf/mcxzNur/DcZzP6fzpMyV7cXEzqgvbr1kult9i9r1bVg6yraTTJWdSozWfZH6mdXPg98Yy110aLBv8CNjXyZMJK9BdlVXSf/KZtRHmbyRu/ZJtWCqK+Pcb6b9tCz6O/lKHRf9rvqNGMjkjP5TfcvXEX8z4q5og+TgPii1q2RlNo6yWXUrX1ZlZV2BY8EHxcw8Zsi2fDnyP+li6Bxlrfsnayv1KylTaKcD9xnbxIb2Q5RB2zdvt1inyZraCULtcF900KMan8nucueIt0XmI8aYHYdyvaLvSMaCPrKcqofrFevJfW6OHfzcYBODHV5nnSSL8ZrvjDG57sIgKxPaUvrV7VvyD+8D31YD80VGaxm5vWq5MhliX6K+ausjfVrVL7mp5aT+49tr5bZqy4yR/vyifuy8Egfav/p7sIfSNSvD4yr5XZ3TRUbqf9w2pJ8V/4Js1B4+LfZm7RiSAaVOkXVa1mFKv4XA6AdLGfSKgajUthFgq6BH9ZIsKmh0lovOZ5/6XP09yKraswbqcF7LAGrp5+vXx0NdcpuzGABb2vIDSZrIMV1Ldg/H8+BcrKex/cpWue+VDb3ObNJkBiBtl5L8VjnrmHGVb2g7WfX6Y226BNkrG4QJVBy8vN013/kkVk4Oui3kOvsv+DOXgfsktC/kzHnh5f3/WuasLzdyVHHb1m5Jx6xtwU6JUT1JUszGOtjxDjpkeod6KvsJbjK2DBsrX5X0r9qkeMTkjTp0Yyj6tAPjuc2tdvUx/Z3ilToubFP9lscY7b+KQerjXj5xjqjTiMPMT9V5pXaVrMzGwn56cqp8WZWVdRX9a7WhjqWFM3Fg60jlkm2kDLTDg+wY5OzCvZJH2MKMl9q+Wg5iw/q0y+ZMKhscRY9wbsM4bcXAYBNb1mif2m6m7MKmKj5onqmsOi7mElaZFpu08hLObxhP2n4nmax5lt7xNqIPWnXwNjMZrdlTNvW+a++r3fxOdeWJc2bTFh9Rn019WvWZon6VjOG8Uhvaf/p78J/SNSuj2LXO6SJjqY8Z/tH9C98VE7HfzdZxJAOKjq86qRj467LmIBLrkZ2/fSAzgLM6cBZE/HmyLXuyTfWrslHe+nddv/4eyus69HdflxXcSIb609LP16+OW3aWx5rbkmWVDFr/+D2vs1RP6XgVXCvbiIEstKG4Mu2sZFV2KQZvq5x1TPmoWQ8lC9nJqreLLnS+/xR15HYnvrkNdX/qInupTHa8VX5LRuuYtJmW2fsvHIuTrLY6rN/lMVkftV9ikH43EhW1f6TMVj+nqzI0MZPymIxa9hUM1HJlx4y6VV2ZL2s95HFbD1km2aazDpxp8m1Mcvn6rHb1Mf29lkPpKftMV//Vvgq8eVuyRXHWD3W/JHtwH1Sy8n5Z2aoqY42Z0ZaZbzVH1J60x1A+Uv7gssVFQSaHbK86Rx/T372s3C4ke8dP7VuSOztutVtqwy4r+3N9rrDB6HpYvtHHzPbNfmHoldlDltFt6T5C7GkZsvOyvtBkE8vO6liL3BQX8n4k9aNyul9x+fn/pK8+pvW36x1SB8FQJbdul+RJn6oN4t74zGUeduwsx8ggT8lH/Hj4XyVQIys0/nWLY/kc3WJM2YfLwm2kjlu2KvWF5AvNGr7Pqm2QDOCdS/0fgpq4CkgdXgYG68EtMXCHYCnL+4AgHkKm2s0DBrXLAk84pzloNMrV1qYKNFUHUe2ZE986+KoJp3hImDGAhPr1cf29Dso8U537iD3gpy4ffRF0Zg+/0TawbErn+K1ufIJf1x0nl1Zdhu9DwOZbCesJEdfJ20L4zvSFEbStctqGTJ8o+yh2Muut+CjqorlXdQTbxAVyfcVW2T0b8FQddiCvBtxW/1n2E34t8C8e7JT7JZOZ+YDYrLiQi7TUZzq0a/iw6huKW6EPxRW1gybYlMea2q9Cz9zXzTpQW7xe61jtKxE/cv3zGNnFx0Y9+gpbWNwpGYXNcr11f839bbWrj9X1ttg4m9wZfq/KaB18/Ttufa0v45jXTfch/Z3xGmNGKCPHtcr/iiVhO8vfhWN6oWjp6X3FY7Joi40DlvxGX9d+o/5DfbTyc96fWrkXcsn4kJ9bcyD00qzIOnTM03qU5NZ+z2XxMTg9aE23E79rXmpf8XHAkqkol2Ev8kXkry5TyaxYr9nk7Ve6Sl61/kEfpUvT/ELrRDJGXgzGos2ijnXcYuNeVcb7nMYD2/+hPTpPyV3FR3krh5bXsn+mA83xRDxm/c7SsfZ/tEPQlZ2j+3a0Rc61JTMl4Kj+igGyVVWH4NaQh/+en5/3wbwMjVOMPcsWWtesjOXb/FjefkFGETeM2N5g65zN3B8oc3ZtgmRAW+eggSW77ylBUXXUdC8dBanYcbI6ZOCK5Zgsqc66bBZEfPsqaKgyqY5Ktkwu1l42uVZ1VTKq9vz5oVxev25bLMT0wEVyGMdFPa9W3dLaTrZtjQYwum9P6Mnkq35nwZva1Z/MX2nyQcGf/NyhHl8vq8u3P1gybFj7keT3n0KHOCD7tpvZSfaqyxk2pcE06Sb92MlOZr2JSVOXzBdaF2ljb4OgDxvg9HfqA6E9mhhpf4bvsu50K0/qx1kfsOpROgyWqnqFLdV5ucxVmxW3iaPku5oxpjfvZ15Xs10lm2U/K9bounPGiNn0KqiSvdt1SPqSLLL/9t2SxRbrR8HWQVddV5uPSQ/jlU3Ejm+H/ld+JHkFc/W4wPtr7m+rXX2MvrfY2LKN8nvuP5u3qI+uU39n/UdwHspRPCzFNta/ansmRoYY2/y5mZ7a/7ytyp48DgnZzZgq+TFfA8tkyHwe5wh5wiDa2mAq2aOyJa+3Oo/YkNwW6zRkzJmksUnGYC2LGLcN2UkGcZ4xTpvtK5/menN/Wv4v2Jn4zfhU9fFxl/o8nct0lfGJj80tvAQ/NDGa5BH2y2KK7f8gF8kteK6SAHquZPugRYfaDlo+3pfSb4wlxmDVB7kdbH2IJf5py0wXClKdSQZj7FScWWOXPt9iUZbpuyXtX/092E7papVhnFZ2VecUfKBlNG1l8Mzti/9TH5x1WyAZUHe0WQcB+h9XULADPex/XPZHO8OzNjvM+gm2nmQNb69RGJu8jfXiYfx6TV6H8cs8iq9wzlT7AQug8iuzMd8dn22shT3sOz77wpbHakskAwDcsQI31ZOI42ABAwh4Ow7OxtrG7CzylgbpatPxxqpJ23jS9dOV25OyHxbox8vrFNsbyQCMsWMd/2zWJ59ctdtFP4ddJsEAkgHHEDQm4TjUeQoCwlJfXWWst+Tx7d/gDxOXqWfgGBaSU2+DScebCdt43AskxDbErWnts+NmfVr1hFzH1gezJHFgTD2DAv44Nn9g/TP++QiSAejA6MCTYiDsAkj31IZ71ZAIAG+T4m1i9U54oToxucc/YE5uEjIpG9M9wWO+Yo/Yhjg2rf0WyQCwOWY2wy4A/kwQ8aDX0zTOQNbJjeGn27ZIBow5aAC0090h4D/4DwyAATAABsAAGAADYAAMgIFZYADJACQDkEUGA2AADIABMAAGwAAYAANgAAyAgRljAMmAGXP4LGS4oCMyuWAADIABMAAGwAAYAANgAAyAgWYGkAxAMgAZQDAABsAAGAADYAAMgAEwAAbAABiYMQaQDJgxhyM71pwdg31gHzAABsAAGAADYAAMgAEwAAZmgQEkA5AMQAYQDIABMAAGwAAYAANgAAyAATAABmaMASQDZszhs5Dhgo7I5IIBMAAGwAAYAANgAAyAATAABpoZQDIAyQBkAMEAGAADYAAMgAEwAAbAABgAA2BgxhhAMmDGHI7sWHN2DPaBfcAAGAADYAAMgAEwAAbAABiYBQaQDJi1ZMBS3x0e9N3Scen9yap7c7DnBktNAeWKW3+1596sXTnz2cilwZ47fLXqrh7F/p1s2mTvDr+FNnbc+ictZWtZDlt93FLPUewxyXOPu79MUJfA3mDxzPexaR24Yf8TjAFd49kE+9/YuWyNTdW4enjSff4UjBHomyfYN6elz9WcNs9VYaexx7Fp8f+My4FkQAsAV9d2jMXzohsc7Dm/AIp/LQu8qh5W/oAtftlgGesTi6sxDuqtE4gxB7tOARbJgKECbCebHtGPoY22ZEDVD8704Hnc/aUlHg3FiaoLE96j9YlgPyvOF/ujjNuw/9HsfxT25zrFsxHkq33Px23//7HExNbYJPk7kv1ULOle1+kYI9A3R2B/ZCamtK1iHJ9Sec+a/aHPiV6oQTKgCUBjAkGLej3Yh8HkwFo81YkDnZ33ddMxo525MNDzScWYBtXWCcSkA5+lx1lMBpxynSwmdV/pUkafM9R3i5Wj8jlknSfeX46qbzp/Jie84/RfoS4aE/IrsJK1mbT/UP09sdp9sWmcY/lpUrHKqje0z8duQ8Zx2MXS88j1jnncsuxzZBmPZs/QX1VSD33zaDY9Un+dAA+Wj6dNRshztpg77f5EMqAhEIWAQgt2Xy4MbOVBPg9AHQfWwoDpByi+dT6vf4TONJEJxDByyAly1YE62qnBV9PXEU+5TgUmhZ27lDmSzyxWhmHNKjtknSfeXywdRjs2kxPesfrPYqfu56+MHWSq7Zm0/5H6/2icV4l0dSvcpGJVoV49dou4OS6bKL7G08aYx62CfcYj62h8WPMo9M3RbHmSfmxq2/JxU3n8drb8D38O708kA4oDczUo8h0A7QOGmix2HazNAdMYlM1y2umVDGnbopoUGTKFwBlvedhx60v+Pn+9y6GSJ9WbJ0XIPuGTboPgMoe25a0SlX2TrnRuaEdk76nMYni+AMlRnS915j7zQUHU2WELp7THnsuu+EUbynZj4iboLPWk38hGVbAaUSdu017uF2mbig9pA+3bnpM6lxhIrMnyXlfGmfaz8GPPxck6ldO/+z5Jv0UuJW8lfSq5pH7Vsb5baqnTHEDCOX23pHyqGaNEIdleM6PtRTzM1f5L38nGdSx5aPVFsg+zeRbHJJteHsle3Y62ieWLnqorxgZ/XNo69reYRB2R8aCPalfJRvpI2yabSEYko/q3zJ+ZPb296r4WdfPHahsYMZPkI67oe0leKid/l9yn7e7SNjk/xBHZXz+PpTo/6Z3HkfRb0l0eq+OG8gvpET49X9nvuu2WGK36nu5bvD3t1xiXYsxss5v8PZed7Fp/xnr5ccPmbTro3zObaRtRPEu8cztU/ys5oqxSx8iOloHG8LovNHJJcZLiyatVdzvcYsnHQZJVth99xPsc1UPxX9hDnS9+437Q/+eMk3+79s22OK99QPUSl9HWOqZqHbT+FHOiD5Uu9HtnG9LFLR+/pT2TjJX9SHYa20QM0MxYcnCZ/P9aN6G70iubryWmhVyxjvx88rH3jThH1x1tW3MT5Gwb+3V7+XjImdB9SNual8X/uv/i+ySZQDJAByr6HgIDDV4ewhSEyg6RZULg6RIcdRDq0eKMt+9lqIK2CMYkb/15da0vHvoWZIiBkgJxqrcKTuk7tXEoJvn1YMF1qQcBHswo0Ar5Mt0sHVJATedW5VL9VCYF2xRY9bGkTyij9E9t5MGl0iGdT37nA0oazFi5zB6SBWJGMjGaTmlBkMtP8ia71QMg910Y5Mo2sxkw2sp8S9ymur3emU1pMsBlUhxX9rJYaddH2DiT0a6T/JN9kqyMoazPZG3Ufo36LbpB/J8mYWmRlzFK/T+02YUj7Rvdd8gvMrFV6dHiq4xrXxfFGN+OPD/6O+o7IuNGrAt+ZX6ouOK7p7Td83jn5cvsvdTvfI+3dW4VG7Sf9HfqB83yZvXX9o8xq/4uFlCqP2uGszp9XwvnUPyqeBGL7MzvlT5Rjjje7BiLfcajb4f5rJJN9sFMPu6PIAdnzPCxjh1Ct1qWTnaTckWWM/mZfpl81NfIttTfm3VYGrDyRtJJs58Wpfw8JlewiWKwkw3UOSU/13VFHoLNZXwJvjbtQ/GjklfrFngQceWKWx/QQ3dH8JHiI+MtjlHNfTMfd9tZpBgV7RRkadEhsxkbP6IPOU9Vfbz/5jak+MN4iXWxY8GPqe7MVkfsm7lcuW+5HsR5ms/UNhcL+Ur/VMaI8d7un6y6AX9ItdI18y8xzfp/JX+yV/BvHOv42Kj7ov/O/FjL0/5wbaseHNNjHL4fnQkkA9RAEaHygYAFAVpkyaCeO8AHBwpK/P9Yr9VeDMopi051yPPsgVqWUTKFgJaClzUJzHRSg1E2INQ66OMhMAqbWROhfCAk24pBIJu0W7rngwAtZEknHawbbaX0jmX1cT2ImPaw5NULWatMu07ZoMWYynwQZGf+D2V5u5Y/LL8prnw92i7GAq6yoWqjYL9o76iPOi+22aQPl4vrSfIbdcb2qAz7NGWVdZj9XPc70YaSK7Oj+t3XJfqVbz9N2LTddL+k32VfkDpQmeH6jy2HbEfpEuxQtS1jnJQn6MAmWUE+ZaeMdV+3trv+ThN/XbfwD/O/Pm7JUNcl7K7Kefnb5e1gz1BvSiRVfrNszHXI6/WykP2F3Exfebxqg+Iq8SLL8Dbr/zN2/XHpa8mLrIPLSW1mPmYyhzKGz6tY1Wy3oIvmwvBjlMO3W/uDrpr6T7IrlRtFB2HXkgyWnsIWiotO7KhzQn05P1434bcgixGTSrJzOYUekg2yIX2O5CPeVjavqHgLuogYm8eSUfxo1duqg7CH7A/Em+6Hsk+UbKiOd+BB+FjZcXh7qPZVfYJ59ps8XvHZPFcsJANYnRVPSh7Nqsk0P8fqK8pfWZv896Oez+vC/xQj8DkaC0gGlDqrDwRicOjScWWZpkAqgFVBKAS/wmTfDMBKh+r8lFjIryLVi6nQrl5Y0QQnDezFNtX5pr5KNz0RrOwg7Ua2sQYBOdHigZk6gDoW2ve2SPpQ/dln5nOqs5IvDsClwVoct3WSNrLKKPmDb9WxzKa1nKF9pWc4xllI/wdbKh9Gm5Ta4KzpMqW66olj9J2wE9nY+lR6+7bb9Knli31A9GHfhlFnfSxN6JkNTVl5HZUP07nJvqLfZW3IRYPoY5kdfXtKpkyvZD9RF/OXYC9rwzpfcc/qqjhRctW/i3bMHVXcftSuPBbqoC3C4jPZQbZT16P9pb97GYPuHWNCpjPvs1Lmqt4qnsrYVcnWKm+UizNU/0+L1FAm2aDyA5eJ7Ck/fdux/wUWUx3yN3aeYMRmwdIzxhBvO2//jFXLbpY/qjbb+xaTmdrkty1FnyedLbsF/wjWyA/6PNae8kcVd3j57jpk7ZPdTBtSLDTG78is4kLJatmAEvOJFd5fyB7sk7i0+lnR7rR7gtVD/hLMMTvXOmU2iv7iNs/P40xazIZ6SReyn9Cpux95W1a97TqktoQfGuxZxZ7aBg029G3HOrvwEMp4P2n7Jhnz/llgskEubzMhG/kg6kx1Kqbrctqn+nv0SdQnsRfnddoewv/ElIpdoYyvi+SjcqXP6nxus+gPrjP+P9En60deZsgPSAaUnO07OQ3GdRkrsEtoZKAoBiTdpg5COuvOyhcDZihTBxoutw5o/HspOCt5im2q8037qLrsxViXAG+VkfaufGEdo4mTNaixoG34vKqzajsOGtyGzDcyO2/Jq65dkkskAAAgAElEQVSmjLhQEgN/bL9Bb85DLF/rrXwYec78xuxEdegypbr0QF+yH9UbPw2dij5S8oU29rI+bPOnzo3tEzd6oOdyKTb4ufX/IQ6IbY0GG0yvUF5NTHkf9P9HFo32eNnoTx1TOvmqTTdvBz1JHA/jJR2K+pAdNFv6O5Xzn8SIoQNvR/8f43pmw8SFl19fvbKOiZiR1WdwGcpomxs8cT1JV4oDXm/GV9HWQh6bhWgL3R59921Ru3TMTMhZ/rDb1P7Ivls+72C3oh2i3N38If3cQYcgm+RF2NW0IdlLxyYuo+Kigw3KyYCmdhpkydqs+ohggvsrlC+3NZKPlP+EbevfpM9qG3K56rG6Ke5mHOqYy9rqtgCsbcV3m2T2rGXlxxtsKOzHz4k2UszQ8WALPn/qwDWdS58NcnnbCdnoHP8pzrPl0z7V36l+mdRI8Tr4TttD+J/6lTqnljO0FxJTZXapTGLI1sXiCMfI/vicFAtIBvCgw//3gUBPYnSw4OWt7WehfPPE3QxCvl7z3JbgYQUvfYx/N9uggT1NOK3A6uXWx80BNbOZFUxtvWT9VhmrLusYBRCrDvqNbJ70jp1O68BtyBiQ+ttttZex5FfHtDyFSUeRLSazzVnOQLRFdi63l5IzllXHC/bL21Dn+foM3e3zvFyWD4w6o5yMBTpmyirrkD7VdVgyWMd8nUnmNGGo6/N6h3jky5UnHN4WQR4du7L7kKUOyYbyeLNusmxVR6VbWmyWdNVxUdYl+762afXdlE37S38nv8ZPSz67vWijus51/4A0tqiOth/03UAkf7rKK20Q24uylvjvooMvU/VVbzfOV8nW8rjdhs0as59l/9CHpQxJV9mO6WNuD+v/Yps8VnkZZVtSX6aD1QYds+KR0q9NB6tdcSzoo2Wnq+tNsUDqZ8dOVUbZpPJLBy4tm3sbaftY5cSx5raEXcgHQ35adZg+EnLpJGc3Pqx6rfYT/3m9ory2Z627KFNKtunjZl2aBy6P/M3SrUmPtkS81CG1K49LGag9WSafm9ptK9a0PZT/2/uCqk9wacltHUt6k274hE2OgwEkA0SHZdCFwJAPtCHolCZ61hWmEFDY1ixqz9dPE0kdhHiAFxP/pmBjDLx18BdbmFSACwHdaMPKoIqJb5BZTujMwSHTzQqA1jEd0K0ylj3kMevBTE1Z+dweVbtC99qnIllUH+OTbMse8thoOukJVsVkzmoVQGr51eKQ2yXXubKhZID1Dc6wYr6SRU5cQ/28fcVgOdBZ9mnTp/6d+lZoi8tj1WnoRjqaskrG6Aoz9733ET2sSPqcJvF5TPC2ezPo14t+LZOXe8etr8mruqbt6r7JOae4xTnu5CuzrvQAMO3bvB3L3sp+wdbqmNFumNCRXynpwb4HW2h/ZfHHT+p5X5HyaX1M+4a4uuPevMp9SCyImFuzpDmw5A1lRDz2vCR7675fySd1sGWuuHuztmokk+r+zm1Z258zXfmW2S7Y2tp9w9mt6k4sVrL6bbJUd5M/yJ5UNujG+papq+HzTnbrwFzWntUWJcrJj7WdijqYzHK71jbjMbSW1eIsyai4MGVVZQr9qpVLrQPFT92m/m7MUfK4xB4yV+udePKs8Qezed54vOcs1v8bsnbpm6OwaNbbpgN/SB+xRL6vzxV+N+rLbWgkicN52laSh3H3zVwu5ltioTEOSfmI9VAv2cizl/k4P69iOsWhLEZkddSsxdjFZde/5dxpFipbGGMI9R184laBY2QAyYCisdXklJeLATndd8Qn2RSg0mc92Yr3t/HtVtYingJJfR4FRzN4U9nqkwJMdU+S8fohI8BRUIznmO1oHfQgUsicW3UFGSrbVROkPFB728kAb5WxfCSPSd26Bd7Wc8iGTA8+uY1+Z5zQ5EUOCKPpJAYt1kblv8RkmnxW7fDfSR6SVepMr9PJfUzlw6flW/IbZ534pT5E9qPvTZ/Mxl30qfRgCxaa3NLE3Ldl1in7UdTTlFUyFsqyOmM/inrJvvNmrXo9pvZB5dcyo1XfbvEJtam48G1J9qx4IbcqRxuoukQSjCZwtb/zdkZk3Ouh21WTfEuffBJYxyW2hVOyLu0dfuOTSrKn+qzqMHxBMmvmiUN93OBLyyfGllC/bteyscFzLVvGXdBNMmonAlUcGSyqGG206esWfcPLLvuP1jeTT5zv45vs35FT5qNUZ122q93IfzF+aVsrHc16fZnanuTvFh2SvFUSYMnvOhEcKtv73wx2pC0UF6asqoy3IbMB94WQ0duHdIs+NvxitNk6RzHGEC4Hl6+KtcxH3ibCbspfgRFmy7ps0I3rU9KpxY/S/oU5kbKxqUPkjyeFyDf06t801gv7BB1T0jmO+1o/wzd6t4z2edbOkPbw9pH+l/E39puoP/Mt852WQ84Vvc9zH2tuBksyDlW/s/bM/sXPYW3U8qY5isVdHRPqssV5QO0/zRK+WzbFsXFxgWRAQ8czB4iG8uNySqmePOBNqCOYg8SE2jpBe5bs3HrcHCRgn1a7nUZfT5HMx9b/p0hnMDXGuIK4jitNZ7xv+xipF4pnKoagD6MPn/E+fKb66ynyFZIBTc6aqsDLM5JjnCAa+mPR0WJfJAMwIBv9ZrKDmHEF79hlaOkXkGeq+wXiOvidbIw6efsuDdiV3bMYj6ZqTnry/j7rPEM/MHZcDCAZ0DJghAlUh22Jk3VYvR1Jb/Nqkb2LTNngWW/7at7uNOMdFMmAqV70dOH+1JUBc2DuSPH++JLJp65vHcmuMz4WwnbHG5eQDDhee4Nv2HtGGEAyYEYcXZqgVcmOdO+Zv78MiYCWCR4WZhggji1u0H2GZ/yK17HZs6Vvn0E56L7fM719+gz6rTRm4/js9eHocyQDMPdArAMDE2AAyYAJGDUGbtSNTgsGwAAYAANgAAyAATAABsAAGAADU8gAkgFT6BQkE2Y48w8eMVCAATAABsAAGAADYAAMgAEwcAwMIBlwDEbG4h6LezAABsAAGAADYAAMgAEwAAbAABiYJgaQDEAyAFk3MAAGwAAYAANgAAyAATAABsAAGJgxBpAMmDGHT1MmCrIgMwoGwAAYAANgAAyAATAABsAAGDgZBpAMQDIAGUAwAAbAABgAA2AADIABMAAGwAAYmDEGkAyYMYcj63YyWTfYHXYHA2AADIABMAAGwAAYAANgYJoYQDIAyQBkAMEAGAADYAAMgAEwAAbAABgAA2BgxhhAMmDGHD5NmSjIgswoGAADYAAMgAEwAAbAABgAA2DgZBhAMgDJAGQAwQAYAANgAAyAATAABsAAGAADYGDGGEAyoMXhS4M9d3iw5w5frbqrn6y6Nwd7brDUNXNzxa2/2nNv1q40d6ylvjs86LulFllGzZgFHQaLtQwdZWqTJdhix61/0tUWZ6Dc0P4/AzoXOAhM+T5R+H1UVsd+3oT71tjlPTF7VnHhMMaJs8tuq88CMycY20L7ftzxMgzvFxnvC3485f3iROLPrI15p5yR1n5+YrG20CenSR4Rg06BvNNkO8jSvN6BfabSPkgGNIB5dW2nSgJQmaEXgx0X3hMedOXksKNMpHPps8PEyLebJ0Lqya1PsMS/ySVCxjohGNr/YxhEO9h5rDqW/K2OT2wyHvTtxkOQITLEeaKFVM/NTahv2Wz3XIgZSqbuycMx8KL81J2N4Red3esu6bXoBkMlV0v1jPl4YGYCyYAubGf9fXi/hH7RltSZUL84OhPdfDmx+NPUfzLfdJO11SZNvtC/BRl0rMsvUGRzlya9Sr/ptkvlcHwqJ/et3JX8NinOS+3h+NniB/48lf5EMqAB3E6Tqobz53odF94THnSlHh1latSr5+Y6DBi+XZEMCHqqY720gJqqRdOEfdJ5oO5g5851tfm08PtYJpaFujPZg77dkgH83KKME/JjxnavWtiGHURc16DPnpuuK+7TsgifAjkmxAdnM/7fhe0xyCPjfWHBOoZ2ol6c96H/H9N4NHS7BbtQPZZ9JhWLrbZKclgyhPNlQqAYD6le9WmWb5JLnV9mYUr921n+Fk5GrmeK7TIWv0/Kbqi33NdgG9hmdAaQDGgI5p0mVQ3nIxnAF/7VxF8kB7jtpm0AmhZ5rMkft9sx/G9OFCfVbpcFk9F2UcYJ+VEnA0KsKN42MQWLXmGzaZFnCuSYEB/mpKQL22OQp9O4NYZ2TB0FZ10mJlO6KLLsM6lYbLVFdtS/FWTQ8agYD6le9WmW122rc7r5f0r9O5IuXXjuWmaK7TIWv3e1A8p160ewE+w0WQaQDDAHhWqSmrax14tacyBWZcWCwA74YbIWtxL33VKn4FvVxWWKV9KDXGzroJCh5+TksItM+RbZMFmIMu+49SX//IS8XKnDmpMNYXstV/ou286vGsvf5RWSuIMhyOttROcrv8Xjtb2iruwc0/8Nfgn6JT2E35WPSnaL8jc8m0Hrb1+F1vom3+nzU8Im142ufEum6iAVOC5zGLfsK14jx4KH4QJf0MGyKfWttjbV77YNCzKZXMiyUr7EhLQ9scnObZSL6lkMzybxsYFsKVhjxysfMB/F36gu+XwTKV++w4E4kOUMPUzfVkySzGYfaGMq1Ftmu+o/TF/GiLZRjA3EjJC5oQ1fLjIgy6W+xHwq6k3HM3mCrJZfZBvUJ8l+5BP67j9l3WMYc7wObb5ps4lm+4Alj/VvzG9Rn3grRLKR0FOd08RC2VZW/Jf2z30sf9f+4W2F/03eai70b9GmiRvrooOMN7ys/r+yHZ9XRHmpbeUL3V+FzWM8oT7B+h73L+8D1A4/RjsGuQ9DOVYf/43KRyZqPU17cRsQOymGpjgq/Sj09rKo9ufq3WG8nGkbZU/fXs5QJWPwY6tO2odpbPd8ydicxoiMwyxO1M/Kqv2i68nGSPIj+SmzD8WMfHzQvLa1FX5vs0sXeRRzlk1wjPcX/H9WeUAyoCEYhEDOA042sFSDRRb8YxCkgSZNsEOd8Xc+YOYBMkFXD0pclqU+m/jzc+uBgZWVehRkYuWrSV4aUKrAzNugQTKVSbLawULK0KVMGuD4QBnqYQt3PYjQhC/6hAZebvMwQPbFww8zv9BAwvko+F8MinV7SeakR5SpnjSkMrY9gk2zNmVZbQ+aGIqJSiaTnyCQ/otuwH1fl02y1pMJZT/tz4oRyUMmmzFJyNmS+rVxRb9nHJDfurSZ2TjvQ9SO+WmxQu3TpyiTmOAMZPZqlYvqkXb3fWDAH1oa2uZl8rhF3DTKU9/2xNmqZOaT2WFsZ8mR/N+JqUa2/SKYxy1DNuGXum19zGiDFsKxn9RlYkLB+z2ze9LN5Ciek8uc/JLbLPiA9c/wnfVp/TvFSCErcRo/6xjP6vH6kL7D+Ea0k9mk8knSr7JRm9+kjtQP+EKnkj/Vq+12xa0PGh6AqhnwdunkY91OnYhh/sl8b7VFftC/BRl4X6bFHmfGjtlZu9QGLRi1jKFta0HI2mqNNbZ/pSy5zXQ86sJbKMN5jT6T9pJtEzupTNWWTzroY0xvbxttL5UMCPXwMqz/aP2kTClOdNFJ9gU+thsc1AxTPzbb1czFJAHT3xgLKCaK+RBjrGqr3ddBHzbHI1txe3exSzd5kq1NW2TyozzsdDYZQDKgobPrIFtNBtQA0Tj4qIHQGMhDxzKCL+9w2aDSILM/T5eXelgy8SDvQedlrOBNE6NkCy6v9b+XIU3M7M4kA3w9SGv7igHXy5bLIPTtMvh5e2of6O++jPKftjPpLY/besgytj1CfapNaqPxN3WOsEcLO9L3lVyWrLLOAiPCV2Rj7a/SuQ02MXSwZAw2Cn5sbtNk0/K/0W5sg0/6rHLBJ9TPbCb0laV2uUr1aNtpG+vvvnxVV+yjiqHInToeONC6d7adJQfJXvpNHpcc0rnlz4wTS1Z1rNSGOB7swhejhk0tLvQx1bb2S5Bfx0TLJ1RG/Rb9mLUjbZbZScgpfRDr1P29k00Ud6KdJJOWR9ieFiakc12HOKdkh0J72Xjgy3XQp4t/kr1q/Zp8oX+rZeBX8mOfZboI3dnxrO36N7N8aLs5dub1aTaG8C/3X9CT4qWuk7iQx0eyvY57wR5VvdKusq3Ah457in/JKMlMnyPaxcsnWG6qx8us/Vcnp7itNR8mc3k9Uo7S+E76ps/MT9zXQrd0jm4rqyOzS3d5coZZu9o2+H4qH44HH7czjWRAQ+fOgrkKVOF3sZ2ctrBR4FSB2gfZbAChoEUDX+40344cmOwyfILA25F6GDKZOtRt8kDNbaVs0dbZpAy5/P58WUbJGdtmx4MMZHP1SYNdg5xhQBG6Mx/oAdG3r+oq+iWUo7qYvFEHnbCpJhrJf8RP3qawc4mneoJTZf+r9huvBNSTmNS+5C3YSXErfCX0lb4VNrJsqiZQQj9mr7bjlozhnNY2K/tw3dP/5EOpUyaL2YY6R5SxmZALvy5yleohbmSfSAyoiW2ws6rLy6t8XuldlaO6BAfkL0PXZFO+YLbkqO3WiSkpS+aXWp4gI+/nXC8ha922ONbQBreRig3cVm2xW8gt2vbySL9kukS9UswQPuEykn/8Z9aO5NXXUZS7k2+IwSSXbROpH7dFpivzm9BR2Yjq0DEh1kdjA7eH/t+yTwcfxzaiX6gPajswe1ttkTz6NyVDNYbldWvdySalT7O8bjvIZPTZIBPpWX1SfND8ltqvxtYUb4M85KeOvIlzyH7KXnn7Fn+Gjnqc8rZhPFb1qvOiXXL/dLVLJ52Cn7zdk/2CPLF96ZsQi8m2ZCf+qf1u6ppiU/S1Po/Xyf9X/hQ6dmxLnEN1a193lYfOxycW+jPMAJIBDc6XE458cuN/L06YQr1qoCkFupag1dgOBXwW3EOgZAOV1KOjTGQXFbjjYKoDL5UvfGqZYj2xvJKrMMETg2hJtlhn7jM+aIvBXPtAf/d1Kp2LfhFyab2qSWC7PerJompT2K3E0xDJgCAHv8/TsLslq2BK6MsmuXWCJ/YRy6Z6ksV9N8T/lozBVq1tVv6JE5oh2oy+aPJRXZ+Uz2ZCsC18KG0a2zV85X8LvhFXhNQk1bS5kqkTWzqBV8tp2tzSQcvFynRiqsV3oQ75nAPph8KiWMjf0Aa3kcmAsmkXtkTb3h6yjmLMYXWLvsllZGWmOhnQwW9CR2Uj6h+Zr4P+lT2HXhD5czv4uIt/SL74mfmc9QP9myGDtEV1rq07q5ezYOwmDLLptsM5ss+GthtjjeQ36qzaJ86rOOzPYQvooLNa6Nbnc3sHndk8KLRl2EvKYMkndazKq2Nmv1JlSMdgR78gZzoVmJWy1RcNOuoU9A9JqNpWDXbT7Yjv2u+mrik2xbFTn0f6Z5+VzU1fd2yrk687y1PuF8IumR44D/Y5OwwgGdDQwbNBVg0s7QOuGmhCcOIDQgVSFcTtwc53tqZ2rN/0MamHkknplHXu8Du/mlfDX9AlOz/atzBQ0u9Z4FZyUjkhb0ud/hxRnsuu7K3b19+NurSdSXd53NZDlmkIKJb8pi1YHeoc6X9WzpyQ5PJasso6S35Qxy2bmgtTLmO3/y0Zgz86tCl16dYe+Zo+m+tQdjDtnrPaXKeXM/eVvtWgkk+3r78bdSmGSE/dn0wZTZtbdrXkoHKl3+Rxs/26f1hMZMcsWdWxUhviuGkvyz+kX+FTta19nMlPsYB9CrlCfeMdc2zGvD7SN5qViiFtE/3dHu+03kJHsx/Y9USOMzsrf1i/d/CxljO2x/yTHQv1GmMsJfb4YtCSwTh/WDnM8pYNhI+Vv4OO+lju30x/so1vz+vq9WEXMzKuqLyQpeDvoEPOf5LBkk/rYLBt2cbwQ7kdq13FYGnu16gTl53/n9edZFO/ad0s5rwP9HF9XvSTqt8f92UtX+s6qQ51vMwr8/Uw8lA7+MTugBllAMmABsfLCYcR/EKA0rsD+APZdMCvvosr0nUd2RYvIVcV1MWDWehhNDrgUX1sMJV6dJApTELSYjmcL7ag1fKITLcR8IUOdBVO26sexMXVaV9XbStxPLdfLpuvjx6OZ/jMy6QGFppsCB9kZRrOyyZrfGKn7V3ZyRzMtL1MWaWdc/1rGxkyxSv0YZJR2UiykXzBy1pXEe3z2EBME1nGoVUP2T5eXRA2qDgTsojfky2K9tT9I5yvJkmhDPdZ5WvxEL5Cu2lCVfcJrq8/h/oj90dHtit7NcllsZUfqxjh9eRlqL9xW3dhS3MQ7GHaPPlK28z2PbHYwlRtXy537P9aDvIF95HVzwvn8TYq3zDZrHoKi9Skv2ET3bauw9A39CHGl/RJHQ8ynY1txYLxmmdWr9eZfBX6m4r/od2sHWajUH/OnpSXxok0/sQ+xOqW5+R1ehuLmGA+6I61IXSnfqtk7+LjDv6x/B/0EWMs2aGLDNRXkj5Cd62b9T3jjtpPdVZy89iZ273Sg8eawu4hS4awuO+79bWdbMdld9542zXDilNp/1wHe0zievt+W31PMaGqx+84oT5iPQQzle9ol5onqpPaTbsM9IMwpZwWVzE+mj6w/Z7XU+ur4oOYQ5XqD8e9nLavO7XVahdbD+l7I/42yozysN/ZZQDJgIbOH4ISD3bWZKAOSumeWD54WwNNGjTCOX6CYw3EmVxVkE/tpEG6Cp71fWGvVt3S2o64n03q0UEm41U3og0/abFskclsdRyth3xacQo2JKd85Y9IpNTtSdnktuB84V/JVE0u6F46+1Vbqd7a1qbOWh/uf98W6ZHeKOF17DxZy/iqZWZcJjmr3/iEI9pT1xMn1lL+N2uVvWUdjNn6vNAmkyHqxO+VVb9PbTLAcxT6IPHgP1P/ijbswLf2RZq08b5ATLSz3SwX1SPZioun2heDpcrHaUIp9a2O23VpfSQXhQltp3jm7SHZi7EtskmLHOYXzZT3SZHtWj5i0oiN3rdJx9rnlvy6Dc1H+L1b32/kKWvb8Esmi2w375tVHcK+WTucT/pf+0f2CRlDVdyNfpGymfGQ6UN8JZ9U48PwY5qKsayNyg5SF8snSYa6bFcfZ21pG5B95WdmT81Y0aa+ntpXdf/I66r6kIgBIp4xRqj/mYyoWKJ0NWMNK0P+teyd+qLtm0wnIxbIMl3mKUb/qm0pbaX09rYL9qHY5H0syyR+qjKZ7h3t0qwT81uM95IrLYe4qCQYqM8z/c7jZEGfwnmj+FrLnNmO5lAU26056ZDylOTEcckT7HE27YFkgBUMcWwKtgpZg/TZ7IQIrrPmV7AN5meNeegL5tsZCItAY5EP27Xb7rTZCL4+ez49bQxC3sQgkgFY+E/Bwj8BmTonFkzJFpZ9cOz02gdsn17fod/Bd2BgMgzIK+uTaQO+mw67wtfT4Qf0B/ihYgDJACQDkAwAA1PKwFkdqJAMwAB8VtmGXmB7NAbCdni6RQFj8pkek+Hr0foIYgvsNikGkAzAoDOlgw4WTJPq9Kj3pAcUsA0GT5pBtA8Gp4SBeO+8/awA+GlK/DSOuTJ8PaXz7TPE2Dg4ncE6kAyYQadjcEXgAwNgAAyAATAABsAAGAADYAAMzDYDSAYgGYBMJRgAA2AADIABMAAGwAAYAANgAAzMGANIBsyYw5H9m+3sH/wP/4MBMAAGwAAYAAP/P3tv92vXUeb5/w2R7+OLBMsXfYFRk066f6CgCRJMyAgagunMJEwwRBDRScMMqJFRnwltSJpAJgrQ6baJsSa20kT+RT4hlqOQnwnEdqZtRzlydNQHqS/7nn8AqX6ql6fqqZe19ovPy967PhdHa+/1UvXUU59ae32/q9Y6MAADMAADlgHMAMwAHEAYgAEYgAEYgAEYgAEYgAEYgIHOGMAM6KzDcQFxAWEABmAABmAABmAABmAABmAABjADMANwAGEABmAABmAABmAABmAABmAABjpjADOgsw7HAcQBhAEYgAEYgAEYgAEYgAEYgAEYwAzADMABhAEYgAEYgAEYgAEYgAEYgAEY6IwBzIDOOhwHEAcQBmAABmAABmAABmAABmAABmAAMwAzAAcQBmAABmAABmAABmAABmAABmCgMwYwAzrr8CEHcG19w2ytH12sE8DaWbO1edasddpHrk8uHzeHO23/EKus3y0X+35z8vKGuXbi/sU6LzAe6A8YgAEYgAEYgAEY2BYGMAOGQHrguLk2IESdSNvcMFv6bxtE2+ETl/IyXfm7I4ZLM2AvY4libxozYKSfYjlDfbzg6zEDdkv0jtTjGMzH+rg4PmrW9XmhGMMLMa6m5h4zYNnPIcQ/MranHgeUAUcwAAMwAAOrywBmwNAFQUtkunWtO+j2onkW0d6+yHZCoTAVvPEwS9nzwdo0A/YolnjCqcwAL7TW11QbW/001KcLu77NQ8zDjse91/Wr/tzxtk5bl89JPTMliP1ibNi+8kL/kjn5QF7H2npat5djfHaeSi7K73k7Zy+f48kZDMAADMAADMAADOwlA5gBQ+KjEpkNITp07MT17YvqllC4ZZ+tN4mJnYJlGjNgt2KJbcQM2JbpPzGfg1y2eZx83OqevL2wHzLhGvmqWG3nZi/H+Oz9Wbaz/N5u4+z1UA45gwEYgAEYgAEYgIG9YAAzYFAg5UC2L+LzfbIOlFkEMmVYnscv12+mZ3Kbdbj9czPAC5U0dTm7Ux7vUKbt9bTmcHdTxTaVGTBHLH5mQ4pFYnVtkJxIH5Tla4HlPqdy7CMaUlaWdymrWJY5K9+PENuf1ZPn3ddT5C67Qyxi6ah71lrHOJSHW0Z4iDGptkxqxy2Ss6LcwVwV+9mYM16yfGyYray9A/yXZbaOGS23yHFhhuW5LPporO6yzpK/mGdf/2DO7H6SZ3eM9PvkZ+td/5X5cDEX7Yix+BwLC9L21EdFrpplq3ETt9vj6jqlHs+6aleZV81JuS3WMcBH0bZpxi/7kEsYgAEYgAEYgAEY2H4GMAOmujBVF8XT7F9d3PvjkwBtl1cLhfK4MBVZX2yHC/EkXI6adV8q7OEAACAASURBVC1yWtv1hbw2D9Rx2xFLVcba2Sjg3TZVnxvcZd4ywWXhn0KkNfrHCyh9lzfkVeVRRFbqo9a077p+d1wsJ5RbiqwHjpt1/RI21y4txNo85MJsn5mmHV6k5qLd5Xrg/Rf+pNqu3x+n42zFUJ+U1tYbuVZ9XZd7vzm5Hl6UGHhNYtf2w9k49b7MiW+vxFj2T1mu7BdYUjFlPy4lhw2mvIkTyptm/1CGa3vkxcYRmBmKJRzn+740wMr2hv6J5ZfbVT4GZhzl+S25KL+3xqSuo2Yjy3Mrr6zbpdlA9A0swgAMwAAMwAAM7DOYAVNdfPqL4CS4/eCRC3T/IsEkNOx6LWYcaJmwbV1Ui/hUd/FKUTnVBXw5sPO6ajGi2qIEiRdsNxdLLizyuFz5qj6Xo1JUZTmzx5fiJi+zOaDLMqW/i/Uu1iiipNxG7kZj9vtrQ6EZU9WOvB45JstfEa/sk4lS27bKaJgmb636h3I9tF5yVi9z5saPz9osfSVLlwNtNNi6VOxDOYp5KY+tY3V5bdZT7mvboc2A6cqePK7Kevz3Fp8Tx9BYPqY6l6jcuj4ov+8zFX/SVywR9TAAAzAAAzAAAzCw8AxgBkwFaeMiWB+XXXT7fb1BoMW0/SyCoV1eLppCOVqgunrKMsP3TKR6waVjEHPCigr5HAXlvnBHUZWxLbHEeJNRInVOFDI2v9thBtgydA5jv/n8isEzJEL1evdZHq3IltK+dr8mgZn3ndSdCdoYX9EnU7ajzpkVk+MCvFm/6zvhNReoQwxJ39pllSvpg5FyJY6Ul7xe37Y8h8K4MB3rVSz7uMJ4KmbF6JjjZxej9GkRg/SP3kd/lu0Dy4njauA4166iTbGtGYs2Pyn2uE9x7ND7P/J6Sp7L7z43w3UM5G6gjTH/bF/4Cwf6CrZhAAZgAAZgYDUYwAyY8sIzv0guOj8TA/6CeVDQuPraF9W5ULB1FCLO1dMWaDIgXRnZ8/R5XbYdIpzkGLss27cdscTynajPRYorvxQoWR4X0wxo5S62U9+lVlx5sZQEWtWvY8dJjpbFDHB9mP/HjYylUYYnjJ3BHBTjUabeW5Es+Yv9kYyy4b4sxl08VtXjmJaxOMX+oYwsF27ddMeW41PG7HAbVKzNfNh6NZN+/7ye/NwhZk27Tr+vM2eqnOtY+JzOF+SCXMAADMAADMAADOwtA5gBrQv91rpSqOp9im35BXWrg8uLbL9PLRTk0YFpRUer3Hydi03u0sY2hAt5dRF/87GU7c7jaJVfTXHPBJctbzrhlJ1Uir6J24r17T7L62vGHHNo48vb6OvKy2ivax1XGDRFvEPt2LaZAYO5brUn9XUrR/m68ePb/RDKH8pB1gcplnYu/PY8JnVMKGt8e91f7XE1XbmurjhrqD7G9nUrL+MxNsrJxlOrH3y7koFStrP8PqmOxvahvmI9swFgAAZgAAZgAAZgYNcZwAyYATp/0V6+xKvx3Ky76C72K14iN/3FfX6B7o4rhMPYC9Yk5ng3zwmqfHaA7JNEQDAhJpgGk2MRE8OKgkJIhDjSDAovTvQU51rMFWVM2Xd1nHlOo9gqppBXxzVy5wyKaKK04qvX+XJzPty6WI4XUeW6Kh6546uPywSfiLGW8JNt7bpsTjwX+d1jF0PFhSqrrD/kTD+qUZerXjrXyHHiO/RbUX98YWExxjJ+1MsrY9uKcuz69BfqKsaaGFK6Pf6Yof2tkE85dG2v6g3H6n7MYmmbAfKfKOLYdseoF4iO5UMMBhVLfR7wcenySyZtDPXLMcO4r8a4zi+fE2vkglzAAAzAAAzAAAzsDQOYAcVF92QQRbTmzy7rC2ZXRjAE5Jnm9L6A0NEikpQAbQsFmS6fxKMXhar+TETk8V074f/NXRafqtvGZ7eVF/nbEUsZZxZDFJvSjrNmzcWVhFMm5qSfVF6TkTB58EyKRdqf76fNjLrffN+qeEvDQ2Iu8r2+1hDnah/Jk8Skmczjy02dxF0Zd6M+iU2WjfpteVEgynPpGWvtvGcxXj5u1k5cqt7bUJYrbXZtULG4HCvBKqZSGlcqB+VxWsgrbuoy2+1otj97BKc+rmyXq0vlbNpx5fIgfSPCXZUTt1dtVjxW29pcSC7r80BtBogBYY9xfTZWR9g2yziN7VJtZ13NGTkhJzAAAzAAAzAAA9vBAGYAF53qbmi/g6olvLdjgFFGv0zR9/Q9DMAADMAADMAADMDAIjOAGYAZgBkwducVPuADBmAABmAABmAABmAABmBgBRnADFjBTl1k92lRY2NmAK7torJJXLAJAzAAAzAAAzAAAzCwEwxgBmAG4PIxMwAGOA/AAAzAAAzAAAzAAAzAQGcMYAZ01uE74ShRJk4lDMAADMAADMAADMAADMAADCwXA5gBmAE4gDAAAzAAAzAAAzAAAzAAAzAAA50xgBnQWYfj1i2XW0d/0V8wAAMwAAMwAAMwAAMwAAM7wQBmAGYADiAMwAAMwAAMwAAMwAAMwAAMwEBnDGAGdNbhO+EoUSZOJQzAAAzAAAzAAAzAAAzAAAwsFwOYAZgBOIAwAAMwAAMwAAMwAAMwAAMwAAOdMYAZ0FmH49Ytl1tHf9FfMAADMAADMAADMAADMAADO8EAZgBmAA4gDMAADMAADMAADMAADMAADMBAZwxgBnTW4TvhKFEmTiUMwAAMwAAMwAAMwAAMwAAMLBcDmAGYATiAMAADMAADMAADMAADMAADMAADnTGAGdBZh+PWLZdbR3/RXzAAAzAAAzAAAzAAAzAAAzvBAGYAZgAOIAzAAAzAAAzAAAzAAAzAAAzAQGcMYAZ01uE74ShRJk4lDMAADMAADMAADMAADMAADCwXA5gBmAE4gDAAAzAAAzAAAzAAAzAAAzAAA50xgBnQWYfj1i2XW0d/0V8wAAMwAAMwAAMwAAMwAAM7wQBmAGYADiAMwAAMwAAMwAAMwAAMwAAMwEBnDGAGdNbhO+EoUSZOJQzAAAzAAAzAAAzAAAzAAAwsFwOYAZgBOIAwAAMwAAMwAAMwAAMwAAMwAAOdMYAZMNDhd999t+GPHMAADMAADMAADMAADMAADKwiA9zFX667+DvRX5gBI2bAoT+9w/BHDmAABmAABmAABmAABmBgeRhYReG+E23aCXFJmctlMGAGYAZgeGD6wAAMwAAMwAAMwAAMrAwDOyGcV7FMhPtyCfed6C/MAMyAlTnx49gvj2NPX9FXMAADMAADMAADO8WAFe47Vfayl6tNjZ0Ql5S5XAYDZgBmACdL7gTAAAzAAAzAAAzAAAysDAOYAcNGE2bAcon1nTZXMAMwA1bmxL/sTi3xD/9wkRtyAwMwAAMwAAMwMC0DmAHDrGAGYAZogwEzADMAM4A7ATAAAzAAAzAAAzAAAyvDAGYAZoAWvHweNkAwAzADVubEP61bzH7DPxDkhtzAAAzAAAzAAAwsOwOYAcMMMzNgWBj3aBpgBmAGYAZwJwAGYAAGYAAGYAAGYGBlGMAMwAzoUdjP02bMAMyAlTnxL7uLTfzDP1zkhtzAAAzAAAzAAAxMy8AsZsD/c99D5r/99/zvMx9f3VwzM4CZAdo0wAzADMAM4E4ADMAADMAADMAADMDAyjAwixnw9TNXzNbGNfP+u+lv68q/mO9+YTUNAcwAzADMgAEDQCdmlpPItC7lYu/3Q3Nhc8NceGY1T3yLnXtyTv/AAAzAAAzAAAzAwHYxMMt1vDUD8uvfu80j//i6eX9FDQHMAMwArXmZGTBgDMxyEmmeuJ551WxtbjT+XjU/3gnn+fHT5l1d34Uf7qC7+3Xz0v/FOGj2+070LWXuIMtceMExDMAADMAADKwaA7Ncx+dmwH8x3/yHZ81zz/7UvPTmNbN15f81zz/7v8wjH10dRjADMAMwAwYMAJ2YWU4ik06gP76wYd498/WdEzTOCLhiXno8nah+fOa0+fqOiUjMgEl9zvbEIrkgFzAAAzAAAzAAA7vJwCzX8bkZYK9xr5jfnX/VXLB/b/7WvG9vtl05bb45hyFgNYC+OZjPQNgbJjADMAO05mVmwIAxMMtJZNLJLTMDnHDPZwe4Z5XsnXzZpmcVFHf49UklGgz2uP87Jv79IwByMrInIl/naXeHf2vTxmP3SYaCj/mHYbs9kcm2vKyt0Xr35iQ3qT/YTr/AAAzAAAzAAAzAwOoyMMt1fG0GqOv0cI393JnfzmgIhOvl7Dr+6+alC2PX67vTH5gBmAGYAQMGgE7MLCeRST8mmRnwp+Vdde9Aurv6zgzYMFvxxOH3FdEfTQN3x1+X4z+n4/TJxJ+MohP5+GnzkpgBUeDb/WszIBkAd5hDzqCQk6OuW9fF50kssB1GYAAGYAAGYAAGYGBnGZjlOn4aM+Drf3q3+eYMhkB+7d9uq77B52/Mhf3Gbg7a6/HiRtw0dWneMAMwA7TmZWbAgDEwy0lED7DW53KQ2pOOCHw3G0AGtQx+Pb0/DvpcrNt6snL+9A4TTyrRTAgiXn8PZefGgj355OWXMR/KTAzMgFY/s679Y0deyAsMwAAMwAAMwMBuMjDLdfxEM2Djt+b/C48N/Ou70zz6m19Tt9rtrsPl+t9em8fr/TvCTOGhm4Nl2fa73KybjjHMAMwAzIABA0AnZpaTSGuQ63WVsA5Tjuwz/Zmgb5kBcV872PPnjty0/4bQd6ZAOMFk5SuTwZ2EsmPzk0sVczAb/AwDzADdv3ye7seHPJEnGIABGIABGICB3WBglut4e00cZ9C6m19KXH/0v5j/9t8fin9PnFU39NR1dd6mSQI9v+b2x9pr6/BIbksPKLPAXqPHeO367Hp+Ml+YAZgBWvMyM2DAGJjlJJKfAOpB2BbWdsCrgW9PKEOD3w3ySScWXW8qtxb9fr96fX5iqmNOZeazBHS9fJ7EAtthBAZgAAZgAAZgAAZ2loFZruNHzYBC8Nt94+zeYlvq0/yaOq2XNrev6aPIb+mBeHMwn/UbjxmMRepMS8wAzADMgAEDQCdmlpNIPcjTgLPbamHtB/K7F14172o3zw1+Pf3IniyS+2fLabp/z7yaHMJoKmh3MZVhDYf4zgBdd+MxAf38kjMP4nQmawyoMmc4AU3KFdtzdsgH+YABGIABGIABGICB2RiY5TreXeNuXDPvv+v/9PVvmffpzICBa/94vdwyC9RNt5YZkM0AsPva2QttU6GMufyOGYAZoDUvMwMGjIFZTiLlICu/N80AN4ALQR0G/0tnrsR/Q5K7j16Ey38FSC/4G1ofTpzBZPDHeZPAnfgmmAHvnjmtHk1QU6bsycyelOxjC9EgmO0kXeaI7+QPBmAABmAABmAABmBgOxiY/zpehHa7H6Y1A/xsX32Dz5aX/puAu8Gnr6HVYwD1sfnNQZsfG8cFe1Nxjn9djhmAGYAZMGAA6MTMfxJpnzzqE1vDzWs5gdFFnLbc7dmvbWBsT9l1LiiXnMAADMAADMAADMAADGwPA/Nfx2+TGeCu372Ir2/i+TY6Q0DeB6aNgYk3B+XR4jALeEatgBmAGaA1LzMDBoyB+U8i053Ems4iZoDhR3A6fsgTeYIBGIABGIABGICBNgPzX8d/1bxwMT0yII8O6OXvXvjqzl6vTqMH7D7aQJjBEMAMwAzADBgwAHRi5j+JtE9K8WTtBvjA9PppBv8Mgz3WOccxzAyY0I9z5PRm+oNj6Q8YgAEYgAEYgAEYmI6BHbuO343rvyn0gL1Oj/9RYMaYMAMwA7TmZWbAgDGw1CeRGU8K/LBM98NCnsgTDMAADMAADMAADCw+A0t9HT9mBsg7u7L3fs3WH5gBmAGYAQMGgE7MUp9EMAN2dvoW+SW/MAADMAADMAADMLCwDHAdP2wQYAZgBmjNy8yAAWOAk8jwSQRHnNzAAAzAAAzAAAzAAAwsKgNcxw+ziRmAGYAZMGAA6MRwEhk+iSzqiZ+46DMYgAEYgAEYgAEYgAGu44cZwAzADNCal5kBA8YAJ5Hhkwg/suQGBmAABmAABmAABmBgURngOn6YTcwAzADMgAEDQCeGk8jwSWRRT/zERZ/BAAzAAAzAAAzAAAxowcvnu81QDrT24XOfJgEzAwaMAcwAfki4mIABGIABGIABGIABGFg+BobEL+tzYwADoE8DQPc7ZsCAGfDtx44Y/sgBDMAADMAADMAADMAADMDAKjKgRSGf+zQGMAMwAzA9MH5gAAZgAAZgAAZgAAZgoDMGMAD6NAB0v2MGTDADbj9w0PBHDmAABmAABmAABmAABmAABlaBAZnloEUhn/s0BjADMAMwOzB8YAAGYAAGYAAGYAAGYKATBjAD+hT+LcMHMwAzgBN/Jyf+VXCyaQN3ZGAABmAABmAABmDg5hjADMAMEGMAMwAzADMAMwAGYAAGYAAGYAAGYAAGOmEAMwAzADNgwASQxMggwXm8OeeR/JE/GIABGIABGIABGIABGFgcBkTniO5h2a85wMyAAVNABgknrsU5cdEX9AUMwAAMwAAMwAAMwAAM3BwDonMwAfo1AaTvMQMwA5gS1smUMH44b+6Hk/yRPxiAARiAARiAgVVgADMAEwAzYMAEkMTIIFmFAU8b+OGCARiAARiAARiAARiAARiwDIjOEd3Dsl9zgJkBA6aADBJOmpw0YQAGYAAGYAAGYAAGYAAGVoUB0TmYAP2aANL3mAGYATwmwGMCMAADMAADMAADMAADMNAJA5gBmACYAQMmgCRGBsmqOIC0AzcbBmAABmAABmAABmAABmBAdI7oHpb9mgPMDBgwBWSQcMLkhAkDMAADMAADMAADMAADMLAqDIjOwQTo1wSQvscMwAxgSlgnU8JW5QeMdnAxBgMwAAMwAAMwAAPzM4AZgAmAGTBgAkhiZJBwopn/REPuyB0MwAAMwAAMwAAMwAAMLBYDonNE97Ds1xxgZsCAKSCDhJPXYp286A/6AwZgAAZgAAZgAAZgAAbmZ0B0DiZAvyaA9D1mAGYAjwnwmAAMwAAMwAAMwAAMwAAMdMIAZgAmAGbAgAkgiZFBgus4v+tI7sgdDMAADMAADMAADMAADCwWA6JzRPew7NccYGbAgCkgg4ST12KdvOgP+gMGYAAGYAAGYAAGYAAG5mdAdA4mQL8mgPQ9ZgBmAFPCOpkSxo/m/D+a5I7cwQAMwAAMwAAMrAoDmAGYAJgBAyaAJEYGyfYN+q+Y//z8pnn8/4S/Hzy5ICL8SfNXNqbnXzQfXElR/JS5++0/mk99nx+wxPIxc37zinnxkSInj5wy1zc3zNZrxxaEzSK+leSz5zYeMS++s2HOP7UiOdij8XPk1BWzZcft5jnzJGOEcxcMwAAMwMAUDIjOEd3Dsl9zgJkBA6aADJIkoG7ugvWD3762N4L74dcm1NuZGfD935uHN/5Y/P3e3DHFidOz8LL5VHF8bjQsuvngBdj1U0fqH8s9EjPbNcbKcpxIeueUOaL6tlrn2jwiop46Z7aKMsp6mt/tcU6gWZFm/xrmi4qrWcaebR8W6Ul4bke7hutZrHz4c/+Tr22Y5riRftrj8eP7Zpk4u7nf1EVkhJjoUxiAgWVhQHQOJkC/JoD0PWbALpkBH/3Bpnnk21+pBZhcSO7UcqIZsOon7gFx7kyBWUwAmydf1uGfPzXSjwP17VT/zlhuJYZnPH5ZfuRsnK22Vut20gxQJoIXaiOmw0L1w7BIL/NXfp+Nj+F6Zitnd85hE82ABehDGyMze3aHh0VklJjoexiAgWkZwAzABMAMGDABJDEySKYdVOP7+UcEWmaAmzGgHxn45Ivmkf/zmvmou7C0x10z//mT4e69e8RAtskJr3j8QI515ajHEuTxBNl+4KBxdct6HYNc1JZl6H2syfCDJ7MyWu1r5yUJ5jvOyV36P5i7vyxtOmhuz+7gF9sOHDR/8vM/qLv75fZJd++l/NoMsOVasZ/iUo8YfPmyObxR1pVi1sfo2QfRPLBtevuy+RNXTmj3uZeVseDzEo/Nttl6inbF7fa4P5i7fx5mPZx7Ocafz1oYeDzgwEHjRES4k53f/bSC7Yp58VS40/3asbivnt7txe7Q3WJbr2yTpb6DmW/P6/f59fHNJqZbQjWty+tMd/FDXHKXt4pbYrDHnzNP6v2U+L+9nFHgZgrIsb5Nec7ybbcf8EI5xaXuSpdlH7Cx6HwGIyTGPqnstF1z0Ko75S9wX5kpRV51Ttx5pdi+KY8J+Pbmfd9aF+qVc9QMyzzfUm/qC1u3br/wXR4X86Iep9HH5W1I5cfjYpvttjC+HtF5Sf3hz59628boTJWqf0J+5hk/7XP3/PmnPHIHAzAAA4vDgOgc0T0s+zUHmBkwYArIILm5E5cW8VqYW4HvTwiTzQB7nOxfmgrBCNAivbw4nmJmQBWDK8PH/lcPy4nLf4+C35ZrjQSp230vjQo5tlwm0StC2QlpEbel6C7v4n/5svmUujvvjAErsl3cvmwpV+7m56J43AywYlyOb5X98IghMFifjS0aHMGEKNqZ5aAxC+GOc9q88MaAb1fIpzIabPwudsmprb8SkWW/eFMgFzNBlFpRF4Sv3e5Eh4ihR06Z8+qxg1KQOCGi9rXvJRChJaI31emFT9ruY5xHzJRx2LFcravEbJGTwZyJQBPhVgjX4jgXvxbGdrt6xruMK8tZMGtijoqyby/NgAllu7qkP9yYKdocjIiyD1r5y8sqciCGRqyrvV3qKXNwu+ub3OSY+3xc5MSNBWWguLo3C8NF9Y+t1/ZJ7INm3gb2Ga07jK8YS5mjgTJH6m/NDJhn/Myd64HYKK8cZ3yHCRiAgb1jQHQOJkC/JoD0PWbAjpoBMshLES/rw915EdT2IqqaGbBpkiAv9p9GgM9pBjiDoHypoC5Lf3YXf9YsENMita99og/iVQtVuWse7vqLGPfH+/0rQS8XnU5UB6Gsyhk9tjQYQlmVgNZl633CewPyOG27R2J1deqZBXpfK+612A/mQTQ56pxa88DXr8pR8ZZtyYVbXZ7NVy14vDhxgk0J59Gy1H5eqI6If7uvFski2KOAbMfZ5irfVwSeviPrPuv6sljz410dlfCWfawZkAvVLCdOAMosiHrqts2ziGDfFlVeI6asX6qY1LGhDwfLlvwWQjfPp+pzGWNhWedUzJBgNpXl6rZUcZf15O3I8lnEkccrfTK0rAW2PV7ntK4rj6Xcf6h+XabfZ1LdZQ6CYaX4t2VOem+F28fNBFH9cVM5G8ol64f6nvWwAQMwsEwMYAZgAmAGDJgAkhgZJNszsHfGDGgK9vICsBLt9cm6NTOgte52XZb+7Oqc3QwYEvdD0+3T/l78xun0TpjvnhkQmXDC+4/mYW1qTDIDhsS9lFW8nNA9ViB96swEeazCL2cxA5xgUCIjtkPKLwSS367EihJ2uXjy++SiW0RJ2Cb1ujKUiC5Fs0xtl/1VbK14x9a5GLXwFyGs16k2NcuqBKyMn1osZvXp41wbJR/2+Fa+rHEQ8tKIKROZumyXHx3LhLJDPpN4bN3t9mXkhoJvd9ZGW5ZrW4i7iuug8Xf3Q9ur7XU9qZ12m+LkJjiQfJftSXXVArw2sXLzoMnKpPGj2pDqrnOQj62al7IdNhZbXmv9UJysl3HMEhZgAAb6ZEB0jugelv2aA8wMGDAFZJBsz0lyZ8yATJyrC80s5kq01ye9lvBvGQ3Zuqrc7TUD6jvuKW5nFmhRre6Gu6n4etuQOL+JmQE6v/ljBDZGdZe+7BNbZxZbatPtug3lcfZ7MAuSIXLQvRdgFjOgFhmq/lBnEimyTYkVJVJ1WfaY7M6l2s/mym0Xka+nYts6K4Eo9d78shKuu2EGiImRtcvnME0xVzlt9XWRP8lhPD4r2+apNgOmF4b22NIQGI6vzqna18ZVzgzQ66q41bGSB9nH5kCbNrJ9rqWvJ+bPlZGv0zz78a1z6lmsx0bNaL1PXo8vW6/zn3V/1bGoehwbCH+fR5WXubjgePIIAzDQLwOiczAB+jUBpO8xAxbBDIjT8f1z+Y/Hl/x5E2HwMYEDfv/4HH/rgsg9djA+fb9lBvjHFfQjCr6uGMsOmgH+2Xo9nT4/WbeerX9Yptg70ZyOlVkGWkS7H79tMQPCDIVsZoAX6flsgRD/mBkQTITmcbZfi3bJ+wdmMQOmEd5DYsaJFSVStWBxYl9EcLzrHe4Gq2PaFx0tMZr3tz3O1VEKzRbval0tXBvvDHBCekRcufhbd6gLsViKNBG1Eo8WxWJKDLbH50QEomuHFuxZWV5MxlkFE8suc6uFadqW92laX+U0i6Xsy6LsIpe+T8vch2PeuTJwp7tub5urFLPd7nOoZmdkcdczA1xshRlRtV36Vi3tcbnpMKlu3x7p6xhrHE95O1ozFmRd610Bkhufa9V+FbPsw7LMNd9hAgZgYHUZwAzABMAMGDABJDEySLbnRDg8M+D2A36bexmffeb+4fK/CWhBXrwzwF3QiYEgLyisX+LnxL7814DCaPD1yrHqhYC27OK/CWSmw06aAbZuJ9b1lHj1PH24Sy6PCXzq5/Yt/2m7u1uvnum3hkA0A6pybR3FsVrcu7rUIwjlNH69b7zAzt/6H2c5jJoB9genfvwhHnsgmAxS/9uXzd0zvjNARIMWHp5vL+Lyaf4iapRYUcLeCSMRLEEIy/HnT50y15XQFdEn2+0yF0x1/WWM84iZlnhrrfNT3eX5/lr4u2PizAYRVBNitmIzE5NBxErOokCVeovZFU6shm3hPzjonOmcnn/KxpLHncesyxYxrepVMaXzXd4+qbsqt6hXGIt9XZStj7dl2naUfe33kTzXF2JSRnlcir0+xm6T43xs0+ZLl1XkLrYtz5W0XXI2XrcaX+H84eIcKVuX69sc6o/H6Jj953nGz6R8sr3OMzkhJzAAA8vCgOgc0T0s+zUHmBkwYArIIFmWQU2c/ABNw4ATGplI3eG8KQMhxlfcIY7ro5mywzFtSz21AN/JdlgxzKIZHwAAIABJREFUV4vAZcjT7DHmYrhxvDNKcjF/s7mfWOe2MNNoC+Wqf61Kfm6WY46HIRiAgWkZEJ2DCdCvCSB9jxmAGcDFWFcX5P5O5K4Jy2I6tv2RcsJLzRyY9odrsfbDDNiR/hg1iuQO/PYaAZHJkTvrO9LWrs47XKDDEAzAAAwsEgOYAZgAmAEDJoAkRgbJIg1cYuGHZHsY2H0hK1On/XJ4Cvj2tG83ONn9HO6agbMXIlU9ajLr9P/tYIaZAbsxZqhjO1ilDDiCARjYDgZE54juYdmvOcDMgAFTQAbJdgw4yuDEDQMwAAMwAAMwAAMwAAMwsAgMiM7BBOjXBJC+xwzADOAxgb24E0qdcAcDMAADMAADMAADMLAHDGAGYAJgBgyYAJIYGSSL4N4RAy4yDMAADMAADMAADMAADMDAdjAgOkd0D8t+zQFmBgyYAjJItmPAUQYnbhiAARiAARiAARiAARiAgUVgQHQOJkC/JoD0PWYAZgDTs/ZgetYi/BAQAxckMAADMAADMAADMNAfA5gBmACYAQMmgCRGBgknyP5OkPQ5fQ4DMAADMAADMAADMLCqDIjOEd3Dsl9zgJkBA6aADJJVPQksRLvk34nN+f+9n3xtw2xtbv//HB/LjfsXZJu23g2zNRT3TbZrrP6F2Obatwr/HnDRL3Lsvy/cMFvvnDJHdnH2ih9XnvFV+neGduyuUnv0ueBPfv4H8/DGH82nvr/oTM8Z3/d/bx5++7L5k10cBzq/fJ6z3+gvZl7CwMIyIDoHE6BfE0D6HjNgV8yAI+bFd4KAHBORe3DStBf+23uB7NvaKrOq6yZF886ZAUGEBdHfasvo/yW/yXYNX3j63Db/D/tT57xBEWLeUZOkMAMyg0Tqn0XASr7k2NLgsW2bpbxdG0c5J4Pm0FA8E9u1N2aA8FeN1wMHTd3Xu2vGSWzzLX0+m+NnqI+mWf/ly+bwxh+dGLeC3P4d/vlTu3oBuBdmgNQpbX544/fmjmnyNc8+mRnwlLn77Tzfs+a8ir00GrL6FkUIv2w+tceczTfuFiV/xEH/wYBmADMAEwAzYMAEkMTIINEDZ77P4YJe30V+6pzZ9gvSeS6wDhw0rQv++dqZTrJOMFTizeZhCYRDEKbaADhy6px58ZHUPpufUTNgzr6YnPcJZoDKuRdtO3T3vjADJO52v+d5k33TcgqBNlE0T6pjJ7aXcfvvmpvUxoH6F7JdKdbWuaHqY9uGZRjXMiYH2J3YV3J8a+nMgD+Yu78sufOibbcNgZtqQ6tdxbrynOcE9bmXo+lxx7k/7tzd+6Y496bAzHm2ZU0yLpr1Sf/u1dJypTgLJtTKzgaJ/Nlz6w79lsU69qpPqXenz1uUP8yY6BzRPSz7NQeYGTBgCsggudkTSXXx3Pjx8Xe4ZeaAEsz2Qvu1U2FWwRXz4lOnzHV791REn9t+LLtbp8VIefF2u7oQdtvinVipu5z67gWOmxK/WcwgiGWpfSQut021w7a5ED66zTrmmG8nMlJc2T6ufNnWuEjIthdtmpAzF5c2bhr9ZWOschv2m9SuPO86div0bc5UPtUFkC5X+sMuY16K/Lp8q+NjzLHPdd32x0LXW+RM+i8ea3NfHh9yIgzEvI23qxVnZKDsx1h/qtvmxeZA5zU32vJ2xXxJfAVn8VjHyfDYa/a/7gN3/MDYnKJduj2tGQfZ9s2NzFy022w7NTOxXa7d3lSKHFV95i8eJLexP4T7bH9fVsrrWNl+m40lxdY4T8R+1u2y/XjOvHjqipsBc/3UsXRejEZdUXeDUduWVrukjT6uxJesH11WZsBB44Sy3G0WYalnECgRffuB4o6vHHfAl3P455fDHeHfmzuckP2jeTger49VQlH4DmWku/flowT6+OEZDa28lGZA1mZXf3EHP8YsF6d53alNfrsrT98JV3nx/TFkBthyf2/u0PlWxzrTooolxKSP0XVH88DXaQW4K8ftU+Rd+qi1reoPdaw97tzlMOvhD+bu74cZJzF22y61f+BGmwF5zsqZGkV/xDbZto/nzOY7L1tzZMu1cen+LOvW2xqm0YSc+fNdca5QjI+OT/aLhh15knMPS8uC6BxMgH5NAOl7zIAdNQPKC+X6BOR+5NTFtf/RCxejQaiki2e73l4Uhx/FsD2KBScy0g+mK0sLW7c9v9AdvjAuY/eiKoqKKGikPr29PHb4Arxdv2rj2A95oz0iamOcQeRGsVLmzH2XnOg21H2lf0ir3BZxNtuV1VWKZxEyks86h7cf8OtS21SMtmzFkbt4V99L0V1y9+RrkgNbZpGHgittKlU50XW6nExql6+rZS7Esou2xfVB2DlRGzjP21XmsGiXbaceH7p/3GcvRl0unbC0x/v+afavzlM4fmhsujaMtEva2ORMx2lz7L4LN4ErZRTlObHb9UyXMkeJqVYby7KESRlf42ULC8nEcrmNfTDSH4FJl8+QWzkvprqvDL/HQ4/Pkbynvk55kL4YXE5jBjhhGARStn8paINgC2LVCzArtMJ6Kwzd8S2xpYViiL+5r7StrNsLNi0upX/1uUXy4GKLojqP2+6Ti+6yLrtdt6Go24lDtd1+j6J4KH5ZL8JTjm+VrQ0VOU4tm/XZ7aGd6lGQrJ1Z3x40t5ft+PJl8yn1CInLobTL7etFtjcabPw2dulX/VnKlm3yXdpcGFIi5mN/qba6sVHmrOivsh3uu9QtOcm/6xkbtj36uzDklpNyJmNXjfvseNnOEtEPAzMxgBmACYAZMGACSGJkkNzcj87whbYvtxQn9gfaH+MEn7poTRfmSZA4EZCJL3Ws3MWLF9oHTUvEpXKLiwMrbLKyg8iQ8pzw0XfucsGfiwYVc3Gybtfv8yIX+YN94GLQIrYU2KFNKo91znRsvt6m2C7iboo0tU+rXXZdXrauO+872+a6jnqfmJtwoRTv9ko/hZjG6y76vrh7WrWlkfcYb8FMxnOIpW6XvlNc5qieVRLbLGaArlPHZj/rbc2c6rar/lDMpPbL9qF+kO2tmBvHqDp0m/TnOle+nHJspBgb3OicKEalnroOnxNdZravyqk7duAOvD0mL9vHHg0SG8toDlQ+nRkQDA91jI5xUizShtZ5MG5r5GfitlLMuO/qzmkmnGxuvXhyorsUWbZ+d7wXdUlwq2PU9hRbIRSlHWUssl7qESEa1qf6bJw2/41ZQnpfdfc8F3s2niRMXZy2rUV9KX5vHvgyVFsl3uaxfr+8Xht3nYtajIr4te8eKOK0dTbrS32XzWJQ+9r85fE02iJtskvdl6qcFK9ui465jtsekxs5+li5s99oq4sn39f2S2KhnecUY93GdKzNWTCGBvp+ppy5c1kyEzU/fPa5Jg/kYVoGROeI7mHZrznAzIABU0AGybSDqr1f+8I97asvduUEpkRD86JXHaO2+zLz+vIL8RnNAFu2mq4bP4vInCAw/AV3ffGe2u7bqy/ms23hR9/Xmwv+uF8jhqrN9kJH50l/dhdBKp/h4jcX7NIv+bJZjytvqF1BCFU5lTu6qt9DOXUd9T4xF7pdru90zibVHXJUxCaCs+qjRt5tHC5eJRR9bHXMdbtUbl3sxcWebpvKsS2/ik1vD2VFdqV9wrCYCbLeLWtmUx2JlbROxa7zUsXs8yA5dbmp9lFlzciAjqfKr47Lluu+y2M2Yaly4vutnVtXdpYvzdmksmsWpC5Z2nbk/SXjI+Vej2fdbluGPj7LteZCGwvZ+jr/EtfoMgjuwan4SuRV5bS2KYGYRJUSXGp7Kq8Wc3GbrUNEuxZker1st0u5eyzjp8GGLTvFVt+F9iK3fslfZgY06t89MyD1tRW1D8e772F9q18cK6ofGuz4sup2J5Huj4/94fIeBLqqMwlt3a/lZy3+W+XW7dLx5aaFLtvnwPWv46Xd5hRjvV2z4TnM40v5CEaB5i981vtEluO5qzjvNPoiHsO2me4Wk7d0blj1XIjOwQTo1wSQvscM2FEzIFycVgJJTjb2Are8E6rWKbGQLnrbF8X+pJVfbE8UBWNiStXdPCGWAqP6wU3iJ8Uu7U7LsW1SrxcgjR//Rgxu3yLf2bqqXSqfYVZGdueyapePvcptsV/drrxvpG1pWW+v66j3icdn7Uq599tHjrNxhwssbYLo+PVnV14j73Z9lueYj7ruul2JB1uOrS/rg6xt9b6Dom/kuBhvdldbsaCOTe1P25ttUMdowepypmf8SG70/rKuWNb1lH1r85Gvq47J+su2ITdbqv1DDKndKedu32J8+fbZfSaVXbOQjg38DPWHFvAqb60YfZl1LLGuLB+pbXF70QcT1ztxLlOkG+UpkVeV5QRxcbdWrUuiSgmuWc0A1R4nBsUQGIsrHuP7bPJjAlZMKnHajFHlxm1X+4e7x3thBsg7GzLxOZgb1Q8xR6ldSSCndbrPs/zb43WeVJ2pHC3S9efSgBmPS8fgP/v+SoZAXrbdp2Qv7Wvb5usb6q90bCMPRd+ntjb21Tm24766XppwjD6ez5gCMJAxgBmACYAZMGACSGJkkNQ/ojP++AShlQkW9d8EnPBRF9fZxXbzojcJklJwuGPVxXRWVrhQL5/NzvfRbRu5mLYn1CkuqH3ZV8x1ecdB40Q8fDGvYnEXAdOZAbWw9e2IQlfl1PetyqeNr3HBkT8H7eNybRu4Y2bLbbXLHaP6J2erFkqtOhwvrXrLdhU5G63b9aXcgU05EGbdsZFRn8+SI9uWfD/pv+nalXLR4K6MT3HUyvNoWerYMl6XW2FV5TPVoVgJ4zpyFcZX/K6Oj7kp+36kXdIGF2PR326dLqvV1/oYV4+MH5/fGGdoR2a+hByldktfDvWxbJ9Uds2CtDPmKHImd/mFS5V7ldtWjL5MX5cwrOspz5t6m2dAciXtmrB04mZOMyC8BC4JLS2yakHmBKsWkJHnWszpdslnJ9LEDKjqHm5nKy+l4MvL9u2IswxinKGOMmfOAEnPlTvRLDMUgnjMZhW48vJcSRune0xAtdXVXfRfGV+M39eZGQdxmzy3X5Sltmftiu8fmGdmgI3fC3qJxeW/9ciDqj/lqMxdwU/I+WDZLmdiYtU5KdlI9dZx+/cqDOfMHevOcXIuUH3XbBvb83yTD/LRZkB0jugelv2aA8wMGDAFZJBsy0lELrhleq2+UJc7obKtvMgPF8fpore4KI7Htd7w7i+I/bRb+W8E5YWu3qe4IxsNhDR1NxcRZVnFCUfarS7wfT69aMinA6u7le6HP9VZ/usyL4b09qLtUm/ITSYIlJBIsRQXGUX96fgiV5L72J8T2iWCWY6zy5gbX3bMr+wby5bc5nXE2Kp2hVjV8VXeYt0ivEJO3zllXgxv6fc50u22ubIxpL6vyp2hXa1jY5vUhV6+X6o7jQvJT7nM85XfWcq3XT91Kr4gUAvGVIfdX7FScKb7TkylxHiKWZ9T2u3S+VacD/aliqnFjYsz1V/W6d7QH8vOcyLxS5+4YxU3ui3283jZNeP58XndWX9MnBnQyFlsU85E6s98vY3FbmsZXXmcxXGDwjHsp+74tsvxoi5OHRcR3Lg7W5kBQUTHY90U6ySsvEDU09ZFwEkbirr13X01/mzcrm9VTmvB58sqjQ0dW9pWTA9/+7K5O3vJnI4r/GeAaGJ48anLtZ9T2fbYlAMbe7r73Do231f6KM+d5K0WvrJ/XFZ9IsfKTIDUH5/6uf2PAWG74iTFq9uiP/v+8zGm8vOY9Vv7G+1WnImxoHMqRoC0Ky9b56zOids3lq/70rc99ZUaI9mjAqlNfsZROn9JPCxlDLOEhfkYEJ2DCdCvCSB9jxmwG2ZAcVG1bSeuSgDOd0LYtnh2qp2Um03tor+WgHPG5mIyWxgjjKUlGEuc/3dhLNVGA2ODsQEDq80AZgAmAGbAgAkgiZFBstAnQwTHLlwkrfaPwULzvcwigLG5gGPTzzzIZnAsM2PEvoCMLevvBWYAv4XLyi5xz8uu6BzRPSz7NQeYGTBgCsggmXeQ7cpxCA4uBhEEi8kAY3Ph+sVOc5fHHXbl/MzYXDgG6Pch4YQZABtDbLB+VdkQnYMJ0K8JIH2PGbDMZgAXm1xswgAMwAAMwAAMwAAMwAAMzMAAZgAmAGbAgAkgiZFBsqqOIO3C7YYBGIABGIABGIABGICB/hgQnSO6h2W/5gAzAwZMARkknCD7O0HS5/Q5DMAADMAADMAADMDAqjIgOgcToF8TQPoeMwAzgGlVM0yrWtUfBdrFBQ8MwAAMwAAMwAAM9MEAZgAmAGbAgAkgiZFBwkmxj5Mi/Uw/wwAMwAAMwAAMwAAM9MCA6BzRPSz7NQeYGTBgCsgg6eGEQBv54YMBGIABGIABGIABGICBPhgQnYMJ0K8JIH2PGYAZwGMCPCYAAzAAAzAAAzAAAzAAA50wgBmACYAZMGACSGJkkOCQ9uGQ0s/0MwzAAAzAAAzAAAzAQA8MiM4R3cOyX3OAmQEDpoAMkh5OCLSRHz4YgAEYgAEYgAEYgAEY6IMB0TmYAP2aANL3mAGYAUwJ62RKGD/wffzA08/0MwzAAAzAAAzAwBgDmAGYAJgBAyaAJEYGydhAYhsnWhiAARiAARiAARiAARiAgWViQHSO6B6W/ZoDzAwYMAVkkCzTwCZWfohgAAZgAAZgAAZgAAZgAAbGGBCdgwnQrwkgfY8ZgBnAYwI8JgADMAADMAADMAADMAADnTCAGYAJgBkwYAJIYmSQjLlqbMN1hQEYgAEYgAEYgAEYgAEYWCYGROeI7mHZrznAzIABU0AGyTINbGLlhwgGYAAGYAAGYAAGYAAGYGCMAdE5mAD9mgDS95gBmAFMCetkStjYjwLbuGiAARiAARiAARiAgT4YwAzABMAMGDABJDEySDgp9nFSpJ/pZxiAARiAARiAARiAgR4YEJ0juodlv+YAMwMGTAEZJD2cEGgjP3wwAAMwAAMwAAMwAAMw0AcDonMwAfo1AaTvMQMwA3hMgMcEYAAGYAAGYAAGYAAGYKATBjADMAEwAwZMAEmMDBKWRww5IAcwAAMwAAMwAAMwAAMwsFoMiO5h2a85wMyAAVOAk91qnezoT/oTBmAABmAABmAABmAABhIDmAD9mgDS95gBA2aAJIglgwQGYAAGYAAGYAAGYAAGYAAGYGDVGMAMwAwwqwY17eFEDQMwAAMwAAMwAAMwAAMwAAPjDGAGYAZgBsAADMAADMAADMAADMAADMAADHTGAGZAZx2OOzbujpEf8gMDMAADMAADMAADMAADMNADA5gBmAE4gDAAAzAAAzAAAzAAAzAAAzAAA50xgBnQWYf34HDRRpxcGIABGIABGIABGIABGIABGBhnADMAMwAHEAZgAAZgAAZgAAZgAAZgAAZgoDMGMAM663DcsXF3jPyQHxiAARiAARiAARiAARiAgR4YwAzADMABhAEYgAEYgAEYgAEYgAEYgAEY6IwBzIDOOrwHh4s24uTCAAzAAAzAAAzAAAzAAAzAwDgDmAGYATiAMAADMAADMAADMAADMAADMAADnTGAGdBZh+OOjbtj5If8wAAMwAAMwAAMwAAMwAAM9MAAZgBmAA4gDMAADMAADMAADMAADMAADMBAZwxgBnTW4T04XLQRJxcGYAAGYAAGYAAGYAAGYAAGxhnADMAMwAGEARiAARiAARiAARiAARiAARjojAHMgM46HHds3B0jP+QHBmAABmAABmAABmAABmCgBwYwAzADcABhAAZgAAZgAAZgAAZgAAZgAAY6YwAzoLMO78Hhoo04uTAAAzAAAzAAAzAAAzAAAzAwzgBmAGYADiAMwAAMwAAMwAAMwAAMwAAMwEBnDGAGdNbhuGPj7hj5IT8wAAMwAAMwAAMwAAMwAAM9MIAZgBmAAwgDMAADMAADMAADMAADMAADMNAZA5gBnXV4Dw4XbcTJhQEYgAEYgAEYgAEYgAEYgIFxBjADMANwAGEABmAABmAABmAABmAABmAABjpjADOgsw7HHRt3x8gP+YEBGIABGIABGIABGIABGOiBAcwAzAAcQBiAARiAARiAARiAARiAARiAgc4YwAzorMN7cLhoI04uDMAADMAADMAADMAADMAADIwzgBmAGYADCAMwAAMwAAMwAAMwAAMwAAMw0BkDmAGddTju2Lg7Rn7IDwzAAAzAAAzAAAzAAAzAQA8MYAZgBuAAwgAMwAAMwAAMwAAMwAAMwAAMdMYAZkBnHd6Dw0UbcXJhAAZgAAZgAAZgAAZgAAZgYJwBzADMABxAGIABGIABGIABGIABGIABGICBzhjADOisw3HHxt0x8kN+YAAGYAAGYAAGYAAGYAAGemAAMwAzAAcQBmAABmAABmAABmAABmAABmCgMwYwAzrr8B4cLtqIkwsDMAADMAADMAADMAADMAAD4wxgBmAG4ADCAAzAAAzAAAzAAAzAAAzAAAx0xgBmQGcdjjs27o6RH/IDAzAAAzAAAzAAAzAAAzDQAwOYAZgBOIAwAAMwAAMwAAMwAAMwAAMwAAOdMYAZ0FmH9+Bw0UacXBiAARiAARiAARiAARiAARgYZwAzADMABxAGYAAGYAAGYAAGYAAGYAAGYKAzBjADOutw3LFxd4z8kB8YgAEYgAEYgAEYgAEYgIEeGMAMwAzAAYQBGIABGIABGIABGIABGIABGOiMAcyAzjq8B4eLNuLkwgAMwAAMwAAMwAAMwAAMwMA4A5gBmAE4gDAAAzAAAzAAAzAAAzAAAzAAA50xgBnQWYfjjo27Y+SH/MAADMAADMAADMAADMAADPTAAGbAiBlw+MQls7W50f67fslcfOkH5iv37MdBG8lhD4OINvJjAQMwAAMwAAMwAAMwAAMwsGwMYAaMCNlRMyCaBJfM2W9/BENgJI+33ftVc+zEWXPxXy+a5x/gJLFsJwnihVkYgAEYgAEYgAEYgAEYWD0GMANGRKw2A15/+h7z8U/cYx765hPm2NPHzeuX9YyBC+a5+1YPju0a8GvrkqtL5iRmAMbRyJjbLuYoh/MRDMAADMAADMAADMAADIwzgBkwIky0GbC+VibyI+bYr67GRwiunfoSIm8gl5gBJTt858QMAzAAAzAAAzAAAzAAAzCwtwxgBgwIWAvmuBmwz9zytV+YG/K4wJvPmI+PlNUz6JgBezvIe2aPtsMeDMAADMAADMAADMAADLQZwAwYEfATzYAHjptrYgZcPm4Oh7Ju+/xRc/KVC+badZkev2G2blw11948Y459pnzh4FGzrsvY/2lz7JWLYcbBRfP850LH7b/HfOXpX5jX375qbtxQ5V6/aF7/6VfNR4p2lLHf+pknzNk30wsRb7x91hz7/Af8bIb995hv/PRVc+W9UO6Nq+bKr54xXznYhuaWg/ebYy9dMNdk/80Nc+PyBXP2+/eb21QcyQRQ8UpbN8+aNbXvLfs+YA5//4y5eDnNtth6z76k8QlzuIxj7WyakXHifmPbtv52qOOtn5jPhHJvvedL5ukizq33rporF54xX8nqHmgn+zDbBQZgAAZgAAZgAAZgAAZgYEUZwAwY6dhSUFeOkp4Z8MYPzCFb1ud+Yq5EwdsSwRfNyQe1IaDNgDPm9Bv6mPSM/doren39+cb60cwQ0LG//sLxgZjsC/0+YtbWlQDXsb/9k2hwSNtvffAZc1GZAOV/W7jxSopjajNg/4PmuTcHYrDxXD9r1j6qBLs2A176hbmoYw6mzKFvnklGjd7uPpdGhCp7hAfJAUvyBQMwAAMwAAMwAAMwAAMwsOwMYAaMiD8tqOt3Buw333g5CdgrP/2kd8zsbIEbl8zrJ46ah+45ZG615R/8pPnbExfSIwXrR/16V7cyA5xQvWhOf/uT2R12C5kV1jfeOmOe/tr95s/cnfL95tCDT5j1fxVjIBkHdn8duxXsN371E/Po5+8xH//iUXNW7qLb9e/ZNlx1swsO2xckfveMMg6umrPfVIP8w0fNuhgB710wJ0Octx560Dx9QXJx1ayvHXK5uO3P/UsXn76QYjz9uF/38U/8WWjjIbP2Sjr24olvmXtt+/YfMg89/WrMmTU7nNlic6bMAGdGvP0L87f3hlkOLqdfMqdjXmw+P20O7bft+ID5sy8eNaff+EUxK0G10R3P92U/sRE/DMMADMAADMAADMAADMDAOAOYASPiTwtqbQbc9ucPmmOvpCn3W++dNWsfDon+8KfNZ/Rd7Fj+g+ak/AeC678wj8b1uRlw8R/a/6bw3s98WhkIqVNv/d6rccr8xX/wItxCr2PfUo8wuAFxXz574doLD2Zl3/tTeUxhw1w7cX+cFvSVU9LmS+b01/TsBivev2XOilEgsyRCG9MMgdywcLEc+UW8g3/t9FezOG7Zt9/8bTRcLpinJceZGXDBPF3lW+W0bHvMe8ohJwlyAQMwAAMwAAMwAAMwAAMw0BsDmAEj4jAT1NVU83S3++y3SwFv70A/Zo799Bdm/ZVXzZXrxXP+2fPySrhuvmqOuTvY7YF466FPm0e/+wNz8qWz5vU3L5kb1+WOuo9FC3cd+8Xn7omC3gOujInNC+a5TxT1qccfrFHgj/m0eV5mFFw+bh6q8rbfHPuV5CSfhj9mBnzmeTEeLpmTDxZx7NtntNmx/t2wXZsBv3qiMBDsPp80z78lsWyYa6/8wDyazRyo6+lt4NNeGIABGIABGIABGIABGICBvhnADKhEbQJCC+ry2Xj7vflCwI9+y5yVGQDaQLihhbsWy8oMGLyLvd889Jx6zECVe0Puxtt41F18Hbue1eAH/P1plkJmTIS26xcjrh8NZoCKU9XfystWUeaYGZC2JfHeLnPDxHYoM0C3WZ/Mbn3wJ+aKftGijflfXzWnv5u/5FAfw+fEPrkgFzAAAzAAAzAAAzAAAzCw2gxgBkxpBrz+tDzr7pf+uf0SjvvT3fPNS2b9p4+Zhz5xT3hefUiAK5E9YAYc+u7Z9Oz8m78wx77WvAH+AAAgAElEQVR2v/n4n4dn5AeEce9mgDtxHbzfrJ14tTIFbrz5jHloZAYGJ72Sa77DBAzAAAzAAAzAAAzAAAysGgOYAVOaAfGu9Mj+tzyY/tXgjdNfHZmaP8vMAD39Xj03H+LQ0+j1XfLtNwPUowUDpsXQ4Eh3/+t3Bjz0QnoPwckHpjzBDBggQ/X7Fwfqly1umPrRiSnrHut/thXMk9NhJskNuYEBGIABGIABGIABGNhbBjADRgTcuKBudJwWqfFZe7/frcooyKfRT5oZoGcUlO8U+Ig59qv0+MHOmgH6ZX6NFwiO5HHMDLj122firIf6BYKNHNt6dJ7VoxETTya6D+LjDwN1jLRnYj0ciykAAzAAAzAAAzAAAzAAAzCw4AxgBox00MxmgH7W/r1XzdNf/DNz2/5D5jNf+4l5XT3bP5sZsN/9W0F5jv7K6W+Zzxzab+x/NFh7SV6+N/4CwXpWgzYY9CyFIIx1O7Ro1utvXDLrT3/VHHb/InC/OXTPPeahb/7EnH3zVfN8cYdf/wvGay99y9h/Yfjo88+Yb7jc61jCy/4+f4/794m3HrL/CvEx8/xLF8zrP03/1WCyGXDUnM7+DeM+Y1+++LenU76YGYAJgqkDAzAAAzAAAzAAAzAAAz0zgBmwnWbAvo+Yp99ovwjvxvpx9WJBLcAnzQzYZ279Wvr3e2IK+OVFc/KF9K8Fd3ZmgD1RDL/IMMVVPwpw6zfT3f+0X8rBrQ8+Yy5mZkmdQ922acyA9bGXHL59nHcGjHDf8wmRtnNBAAMwAAMwAAMwAAMw0AsDmAEjomjmmQG2rP2fNsdeumCuyZvsb1wyr594zHx8v74DnoTwLfsmmwEWxo98/Sfm9bfTIwE33j5rjn3+A4NT5sdjH4olDHw9A0DPDAi5uu3zT5jTFy6aG9JGK7zfu2quvXnWnGy+rX+/+cz3zporSvDfePu4+YrO/cH7zbFT9t8wKiPgxlVz4/IFs37iqDl8UJ2UJj4m8Emz5spK+bImhC3r7NNfMh/n5YFM2dLs8RkeYAAGYAAGYAAGYAAGOmQAM6DDTu/F6aKdykCBc37gYAAGYAAGYAAGYAAGYAAGFAOYASoZiEfEIwzAAAzAAAzAAAzAAAzAAAzAQA8MYAZgBuCOwQAMwAAMwAAMwAAMwAAMwAAMdMYAZkBnHd6Dw0UbcXJhAAZgAAZgAAZgAAZgAAZgYJwBzADMABxAGIABGIABGIABGIABGIABGICBzhjADOisw3HHxt0x8kN+YAAGYAAGYAAGYAAGYAAGemAAMwAzAAcQBmAABmAABmAABmAABmAABmCgMwYwAzrr8B4cLtqIkwsDMAADMAADMAADMAADMAAD4wxgBmAG4ADCAAzAAAzAAAzAAAzAAAzAAAx0xgBmQGcdjjs27o6RH/IDAzAAAzAAAzAAAzAAAzDQAwOYAZgBOIAwAAMwAAMwAAMwAAMwAAMwAAOdMYAZ0FmH9+Bw0UacXBiAARiAARiAARiAARiAARgYZwAzYMAMuP3AQbOqfwyK8UFBfsgPDMAADMAADMAADMAADMDAqjOAGYAZwHSgAQZWffDTPn7gYAAGYAAGYAAGYAAGYKBfBjADBoTgqs4KsO1iwPc74Ol7+h4GYAAGYAAGYAAGYAAGYMAygBmAGYA5MMAAJ0lOkjAAAzAAAzAAAzAAAzAAA6vKAGbAgBBkZgCDflUHPe2CbRiAARiAARiAARiAARiAAcwAzABmBgwwwAmSEyQMwAAMwAAMwAAMwAAMwMCqMoAZMCAEmRnAoF/VQU+7YBsGYAAGYAAGYAAGYAAGYAAzADOAmQEDDKzWCfKvzeOP/7v5x3v/mv7uor/5cVut8Ut/0p8wAAMwAAMwAAPbzwBmwIAwmDgz4J5j5vy7G2br/bfMyUcOmon7H1icfeYbSM+Yv/+7fzd/f2cLQi8029ta+8++7i/ufc+8+Hf/Xvy9ab4w0H/ztXH2uLavHp/fvI3vmccPbFdMmAHb11fb1SeUQ5/AAAzAAAzAAAzAAAzsHQOYAQNicqK4xwxQd5hrM8CJ98f/xfxFlt8xQ2F8ELTK+8JD1hxYRkOglYd6nTdAtqt9mAH80IyPMfJDfmAABmAABmAABmCgLwYwAzKxmjp/ohmwQHf6Z411vkFei9VUzt6YAbfsszFt593z1P+pbTuxrpXLoXXb1T7MgJ3t053ghDLpMxiAARiAARiAARiAgZ1jADNgZjPgmDm/uWG24t8V86J+TOCRU+b65ob57Ssvm+vvh8cIfnjcvGM/b14154/9J/dIwZFTV1QZdr+r5vobp8y37kuPE3zwL9fML39T7BfqPf9U2O/QQ+ZHr75lbrjybTlXzK9P/U/zqRGzYr4B1RKrAqY2A/znbLq7nSFw55vFFH955CCJ1PxRgPyOeGtmwC0H/sX8Y2kGuHXqcYKHnlEzGGy8vh0xvoeeMW6GQdxPt0Xat8+06s/jlfakY/zMhRSLe4xiMA+N/Lbaty/Eoh+ZiLGnun1uUt3/eO8z6Z0BA+Xe4mJ7s8iXKnNgrMzHE+WSNxiAARiAARiAARiAARjYSwYwAwYEzvDd9unMgGQWaONgw2y9+b/Nxw4cNJUZIObCa8fMB52Q/5z559/YY6+YXz52p7n9wJ3mb854Y+C3P/tceEfBfea5N4vyQznvvHBk8D0G8wHXEKsxd7WAbolnEeL5uwWSeaBfblc+AlCXF47TQrgSueU+vg26nijoYzl1W2y+yvrL7yK+pW3V9jvfVO9baOWyXOfj0LHaOMq83LIvtFE/khEMEYklHScvEBwpO+aBE/N844S8kTcYgAEYgAEYgAEYgIHlYAAzIAravMOGzQC5c3/EvPiOF+utmQFb75wyj973v81vrTh/75x58r5gIrxzyhyp7tp/yHzsf71sbth943YxA94yJ48MmAGPnXazELauvmye/ILd50Pmsz8+X5Qj8ablfIPTi9V4R13fmQ6ftfisxLDLcyl4bc6DmK1EaL6vKy+rs54+b4VyKZ7lbrd90WA7piCwY/0+Ht0Wm6/8WBtbu/4XQzlOtMcyc7bapkgrv/nsiOZMCJvXwgRp110YAHYWgDYQlvaRizK3fJ9vfJM38gYDMAADMAADMAADvTGAGbBDZsD1U/bOfDAAXjuWPgex/+EjPzTnfnMlTe+XmQHRDDhoPvvsef8ogXoE4Ldn1sxnDwVh/9S5/FEDKSMzFZIJIAbHfJDn4jwvoxbQuXiWE0urjEKkxv7I1+fl+W25mA3rMsNApsl7Ud00C+RuexTuvpxRMyDceW8aI1JO3Kc2DcbMgKze8g5/JeAlrzpm/Vm226Vfn8ySwtAYLFuXweece/JBPmAABmAABmAABmAABpaXAcyAKD7zThThPLwcnxkwagYcCibB++fNjz75IXP7XZ8wjz5b3tF/zPzyqn2s4GfmwY99qD3l/6jMJnjZPPHQfwqPF9Tiv2zDfAO2JeQlZ7UAzcW77NcqoxSpsm++vi6vLKuOoWzn9poBxV37AY78zARrSmhToIzdtrm1rpi1MCjYddv1Z8mlXeb5tLnR+bCfMyNiqD2s550KMAADMAADMAADMAADMLASDGAGDIBcCuj4feRuvDMAwgsER82Ae8LjA/pOvnyOMwO+Y86913gfwPtvmV8/97Ug/I+Yk5cb+2xuGF9/2xgoRfJ039ti1R9bC9BavA8J3lqkujKLqe+t8tw69a8FraCVafqtNrnt2dT4JJLTce148mPHcqEFuHwuy2wd31pXmAFFTmIbs/W+rtQeicGXn2YGhMcLXD7stinNjYHxEmNh+0r8MNCfMm5YwgIMwAAMwAAMwMDqMoAZMCBeovgvn+/fDjPgwIfMo/903v+3AWsCvPeW+fWJl/37BaIZ8CHz6Km3Bh4DsC8VDEL/vv9pTl5Q/00gmAp7bQboZ/XTCaQUxXZgBfH6d/rOdFinhHvLDIjHytR8e+c8K8cL3r+/96+9QAvT7rUg9oZCbiKUJkO8u6/iceZAIaD/4t43zeMH/MniCw9pcV22u/xuj2mYASFefce+rjfkSnJgeW7kwR9XvlPBHvueefzeN0dNlNR/q3sipI30LQzAAAzAAAzAAAzAQG8MYAbMagaU5sBOff+OPAJwyjwq7wi46wvmn8N/Dzh/rH3Xf9DEUHHOB3lDrMbceUGqRWsU6vYZfiWiRagm0S7C2P/ru/gcvj6meoGfOlGVwjd8j+UUgl3e+i/brTHghLIW08qgcPs99EzxAkFfvwhsKUvfjS+3aQPC5V/F6fPm8xvLcu8+0I8WpDZPLFsZAlLe398peQ7GSOg7b3y065mPkxQnx5MLGIABGIABGIABGIABGFhcBjADoqDNO2kaUb2j+8j7AH533Dwa3hnw4S/80Jy3jw6897I5KgaBEvnTxrNYA7ItUnczxtoMyFnYzVh2u672jIt+2r/b+aY+2IIBGIABGIABGIABGFgUBjADFtUMOHCn+ZufnTfvvKveCfD+VfPOhePmW/fNPyvAGgaLAp+PAzNg7/pj73O/d23nR4jcwwAMwAAMwAAMwAAM9M0AZsDCmgE3J/jHZgks1qDfe0Ha7cwA96iCfrdB3yfDxRoX9AX9AQMwAAMwAAMwAAMwsLMMYAZgBuzxTAHMgN0/ycn7CXhXwO7nfmdP6LSH/MIADMAADMAADMAADEzLAGYAZsAemwEM1mkHK/vBCgzAAAzAAAzAAAzAAAzAwHYxgBmAGYAZMMDAdg0yyuGEDQMwAAMwAAMwAAMwAAMwsGgMYAYMCMGxZ+6XfduiQUg8nBhhAAZgAAZgAAZgAAZgAAZgYHcZwAzADGBmwAADnIx292REvsk3DMAADMAADMAADMAADOweA5gBA0Jw2e/+j8XPANu9AUauyTUMwAAMwAAMwAAMwAAMwMAiMoAZMGAGLGJnERMnERiAARiAARiAARiAARiAARiAge1gADMAM4DHBGAABmAABmAABmAABmAABmAABjpjADOgsw7fDgeJMnAiYQAGYAAGYAAGYAAGYAAGYGC5GcAMwAzAAYQBGIABGIABGIABGIABGIABGOiMAcyAzjoc92653Tv6j/6DARiAARiAARiAARiAARjYDgYwAzADcABhAAZgAAZgAAZgAAZgAAZgAAY6YwAzoLMO3w4HiTJwImEABmAABmAABmAABmAABmBguRnADMAMwAGEARiAARiAARiAARiAARiAARjojAHMgM46HPduud07+o/+gwEYgAEYgAEYgAEYgAEY2A4GMAP2ygxYO2u2Ni+Zkw8A8naATBlwBAMwAAMwAAMwAAMwAAMwAAPTM4AZMI0Z8MBxc21zw1w7cf/2TZ3BDNi+XE7Th+xDvmEABmAABmAABmAABmAABmAgMoAZMAUMa+sb5trlS2br8nFzeIr9u3ejnNFx1qyRqzjQumcCFmABBmAABmAABmAABmAABhaKAcyAiUAeNetuOr9dbpj1temnXXQrADEDFmqQd8vhxLHNWIYNGIABGIABGIABGICBfhnADJgkGKywDTMCDp+4ZLbWjxZC735z8rJ/hMDOINjaDH+TZhGUglm+u2Vehqt3sFxvUsR6N+s78tnx1thYs489lO8rKMqZFP8+3+5Ury8vy4GLOcTjHrWQum37Upx5fLXhUpaZGTJVuapsnUtVHye8fk949D19DwMwAAMwAAMwAAMwAAOeAcyAUTMgCX0HjAjP7KV/SRQnkeqF9eg7BkT8S/0iXKPZoMR5sU6Xe/jE2ewlhE44KyHvhXYS3rfsk3K1GeDXpfj3mbKccsC47TGufSaLo2ybbWN474IYK1Kei0/FK/vFWB44btb1uxpc2Sr2qtzUH6musE7FK/Wz5McABmAABmAABmAABmAABmCgRwYwA0SMt5aV+C/MAXdMW2hWIrcsvxTM5fd9VmBfyu6gW0BnK7cW+Q7yol2uzFIoF/vkg6OVB3UCabSlEvkuHzY+JexDjkqjIa+7aFMrztIwsOW2Yir7hO/FrBfVp+SG3MAADMAADMAADMAADMDASjGAGTACdEsk12K8LYzr/QphVYrT8vuA8G+V69bJYwTV1Hw9KyDEUAhoJ76z48NjCg2hHoW5i1dNydd5bLTFmwGF8HdxSF3FUpsTjf30zIHqkYdW/a11OmY+r9SJLXJKv9KvMAADMAADMAADMAADMNBkADNgEAx/Bzo9E5+L1ShGw7Pzeuq+FSIt0Z4JlFKclt8HysjLDTHqafa6HCeipzMDyvizWAdzJLMXClNAxyDHFgaEK38oPjlmX3hcITMlpp0ZULS7FZOqZ9r2sl9hapHD5okVTuAEBmAABmAABmAABmBg0RnADBgSM4PisXwsYA9nBrRi1OvCHfVkXIQB6fZJd+lzg2GeQVsIdB2D5LdlBoT3F1TxyTHN7UVdrXJb9bfWxXrmaTPHLPrJjfhgFAZgAAZgAAZgAAZgAAaGGcAMGBCEo8+tZ8JyD82ASgiHmQLqzfn+EQB9l1z2SWaAPM+fzw44atb1VP0sT/ebk+vHzeG4bgqBXsXqoazjs7MN5KWIdW7lkYZoILTKzfonwF+sc+XoGRWxLcODhRMJuYEBGIABGIABGIABGIABGFgVBjADBkTgtc36X9ylTvfi14vnWrDa/SbebS/EaesFd60yynXue3ze/6xZK8uNU+3lMYezZq0loN062cculVlQ5ci3WT9CEcV52FdEe/wXgq06q31D/dqEKOJaX5vCeGjkoMwvZgAn8TSeyQW5gAEYgAEYgAEYgAEY6I8BzIBK6HYAwYgw5yTQQf/3yDxt5t0GMAADMAADMAADMAADMJAxgBnQIRDl7AIMAAwAGIABGIABGIABGIABGIABGOiLAcyAFTcD1taL6f5uCv3YIxB9DQBOePQ3DMAADMAADMAADMAADMBAjwxgBqy4GZC/U8A/k18+398j+LSZEz4MwAAMwAAMwAAMwAAMwEDPDGAGrLgZ0DPctJ2TOwzAAAzAAAzAAAzAAAzAAAy0GcAMwAzIXiLBQGkPFPJCXmAABmAABmAABmAABmAABlaJAcwAzADMABiAARiAARiAARiAARiAARiAgc4YwAzorMNXycmiLTizMAADMAADMAADMAADMAADMDAfA5gBmAE4gDAAAzAAAzAAAzAAAzAAAzAAA50xgBnQWYfjms3nmpE38gYDMAADMAADMAADMAADMLBKDGAGYAbgAMIADMAADMAADMAADMAADMAADHTGAGZAZx2+Sk4WbcGZhQEYgAEYgAEYgAEYgAEYgIH5GMAMwAzAAYQBGIABGIABGIABGIABGIABGOiMAcyAzjoc12w+14y8kTcYgAEYgAEYgAEYgAEYgIFVYgAzADMABxAGYAAGYAAGYAAGYAAGYAAGYKAzBjADOuvwVXKyaAvOLAzAAAzAAAzAAAzAAAzAAAzMxwBmAGYADiAMwAAMwAAMwAAMwAAMwAAMwEBnDGAGdNbhuGbzuWbkjbzBAAzAAAzAAAzAAAzAAAysEgOYAZgBOIAwAAMwAAMwAAMwAAMwAAMwAAOdMYAZ0FmHr5KTRVtwZmEABmAABmAABmAABmAABmBgPgYwAzADcABhAAZgAAZgAAZgAAZgAAZgAAY6YwAzoLMOxzWbzzUjb+QNBmAABmAABmAABmAABmBglRjADMAMwAGEARiAARiAARiAARiAARiAARjojAHMgM46fJWcLNqCMwsDMAADMAADMAADMAADMAAD8zGAGYAZgAMIAzAAAzAAAzAAAzAAAzAAAzDQGQOYAZ11OK7ZfK4ZeSNvMAADMAADMAADMAADMAADq8QAZgBmAA4gDMAADMAADMAADMAADMAADMBAZwxgBnTW4avkZNEWnFkYgAEYgAEYgAEYgAEYgAEYmI8BzADMABxAGIABGIABGIABGIABGIABGICBzhjADOisw3HN5nPNyBt5gwEYgAEYgAEYgAEYgAEYWCUGMAMwA3AAYQAGYAAGYAAGYAAGYAAGYAAGOmMAM2Cgw28/cNDwN56DVXLFaAsuLwzAAAzAAAzAAAzAAAzAQE8MYAZgBsxtevQ0UGgrPwwwAAMwAAMwAAMwAAMwAAOrxABmAGYAZsAAA6s00GkLP1wwAAMwAAMwAAMwAAMwAAOaAcyAASHIIwLjjwjY/GiQ+MyJBQZgAAZgAAZgAAZgAAZgAAaWhwHMAMwAZgYMMMCJbHlOZPQVfQUDMAADMAADMAADMAADszGAGTAgBJkZwMwATiaznUzIF/mCARiAARiAARiAARiAgeVhADMAM4CZAQMMcCJbnhMZfUVfwQAMwAAMwAAMwAAMwMBsDGAGDAhBZgYwM2BRTyZ3Pfsf5ntnXjG3DbAb4/7YK+Z/vPYf5uEvznZSiMdPKn/i9m+Ye8/8h/kf3/1GeL+E//69Z59b7fdNuLz/m7n3Y3uV9x7r3UO2vvg7873XfmfumjgeeuwX2rx951NySS5hAAZgAAa2nwHMgIELuF0xA/7rMfPLN94yN149Nnp3/siJt8zW5obb72MHJov0XYn9pl8g+Jx5+LX/MN/L/vq9oB4X+LnQGd9XnSR2wwwIdWT9GI2KPTQDWnHtljFSmQGe9XlMGdfXqzBGnGDOx3syiRSzA+fjyT/++RiZvP921BnKKM2AJnuYQ7vaJ3NztI1cEMNqm770L/0LAzCwIgxgBgx05K4I6qfOOZG/9VpfZsBt3/03873X6ovju56t1y32BWQpdm/iQtIJioH2V+LyJuoZ4H2ePHuhWho4NieybhvzMxZ3Kcbsvq2cBUE6jyifKT9V3fOYAW1xe9ezktt9xo2jaLwsBhN1nkI7qjvnwQycK/5d4mqMOb2t5K/q/9BXjXNena9F7Ufioq9gAAZgAAZgYBUZwAzQF3Xq8yKZAbsSyxwzDuYaEOWFs8r5XOXt6fHbKUq8OGrdLV1E0TddTNuZn5EfoBZTDUFm+bIGRivH28peVfccZoArIwn/VnzT9cFI3nZh7LgYKyNAYpqXj3mPk3q3eVnyV/W/rW/BYt6Fvm8xy7ptZo9+5M4kDMAADMDATTKAGTCQwGEB/iHz2e+cMr++uuHv6m9umK2r582L3/mc+WAQ1EdOXTFbm1fML398PO33/lvm/A8fcvv47ep4W4b8qVkC1X5qm8T3wb/8jnnxDVtfKOP9K+bXp75jPnsoPE4QZh/8+mdr5tzlq3G/d86umU9FA+BOc+TH58w776o4NjfM9VNHRh9fmP3CbsYLYneRraYWl3cR5SJc7xf28SIkHDt03L5wdzJMw85Eoi2zPC7s7+4suwt+FdtrucjM6i+np4tY+KJ/pl+eN26Luzpn7o68fu5et9+2RbZJPdmz6748Pa0/v1Oe6sumqGe5mFbcprI8K+V3e2Gc90GZc2lrns8kkrMYXT+GbSNtz/p5Qv1+hoHq5ywP/sI+j+3fzL2uX/UsjzJfKQ9Z/LrswFfeNyIk/PG6DyVvki8pV7dV1vnjdHyNfigF/FxjrWy3xK+WUm44D0v8t2RMq1hDXnTbfRtTTvV5Ke8bNTaK+vL9El9SVp674j0cRRuas1KCESVjM68vP3ck4+A5984N21bhYDQOYT6eVyy3oS1ZPsv2lTypfA/8PkpeWCqWyRUX5DAAAzAAA0vIAGbAQKeJ2C6XHzt2ztwQ4Z0tr5pzRz/kxHMl4uN+V8wvHztohrdvGP3IQLVfaQbcc8ycfy8X8GIK3HjlO96ckEcRYgyyv4/Fte/oy802bbsZIBermThtX0z5i+X8otRfCKsLWbnAFfGrhV2xTouiJDRUWUFkxP1s2VqcOU5KcTMiQPSxoWy5oI8CU+9jy2/lp7EuCqbmMc+Zh6Xt1bFBeMv2eLwWI0kYxHhDXrPciMhweWn3YRI1+QsEYzmh3FSPv3Ov8y7iJx0T4tNtKMVYbFfOj2dK9flU9ev967qHyswfg2lzo0WemCKpnTK1XPdNnmdXd8GQ5Evn1Aq2jBmbH5ezlJ/bvvu77IWHbn9d9jxjreIvj98JyWIfiV9Es92nPhe0xl29zpfV6D/VLqkv5b3uYzsuH44vwaxz53Op6ina5AWzjk+N0chqEvwybnKG/PlhNA5Xr365aGiLNclim+v2uRyo8VSy4ONv9N3o2Gd/8gYDMAADMAADy8AAZsDABU1pAvjvnzP//Bsvpt958THzMXv3/a4vmCdfCXfmw4sAo4i/fNo88YU7ze2HPmd+dMHflc8Etgj1UuTHO/b53X1tFNh4PvtPb/g7/ZdPmb/5mDUi7jR/dexlc90J/3PmSVuO1LF5xZz7np29cJ957k3fhvNPhfKPhXcXvPeWOXfiO+bRT945OiNAcjMz4O5iVV00D+RehFEpaKr1DRFYi7PGs9WFEJJ2ZOLK7hMvoOVk1hZ1SUjY/ew+SWRJ2dkFd7hor9unBYOv08WkLtRteVlZjRxInaW5kLVP5T5fX4sFW162TzM3kiO9LNuTf2+1rYzZtbXsh7LN5XfbNhFGYdaHFd55P4U2Fbkt64+5DPnK8tAwE9z+rm7NQJsbLXirHEv/qHY04y9y08yXK6Mcd3lflO2sBG4jxy4XhSmU5adZr+bDfs7HSzP+aop9K/ZiXdUHod5ifbO+Rlvz/BT9We5f1GGPdfUUuUplFrGH9pZ8pP0lh0UcjXpL08eVkcVb1i1ls6zzTU7ICQzAAAzAwOoxgBkgF93FUgRvvjxmzjuhfd786C71Vn8R3EHUixmghX9rXRTqc5oBT77qRf2vf6zFu8RYmAGqjidfK8yAA/eZb506b66/79e72QXqsYY8B6ndM58QWherRd5dmW6/Urz4wWcvqqMoyi5q/fZMjISyq3WN41y9er39XAityoyoREpbhMYpzSI8R/KQx+ov1EvTwAkLKUuEQ0PslsI2y53Oe5bvtjjI4tJ50uVUn8uy8u9eIKkp+FG4JyGdtzWcgMv6y8BsnhMAACAASURBVO82jiLHLv7CpJmmfstFtZ9wkeVN/TgUdU/FTWm4lLl0Zeo7vIVBE/Yfzlcrz2osSf2xD9QUc1t2I8cZE6H+bF2VB5UjaV+xTzN+6YOC+XgecGXlbLl4pZ+kLrWfjKlmfY22tswlKaPKjfSVzmUVixfy8dyQjd+iLTr+RtkxjiKX1TlNyinb574X/S37smTKKwzAAAzAAAysNAOYAQOAtwXwQ+bkZS+Y9cyAH73m7/rbqfn2uFL4f/gLa+aX4bjf/tPn0l13MRHe/Fl6xr+cFaDv7itBb+t58AX/Lwe39MyAH4fHGN572RwdOLY2A5LA//Anv2aePPNGeGzgDfPPn0/bypy4i82B/LW3FXeyho51F7XLbAa0Y485aV20Sy70toE8NAVMuEud3QHXZQVBlQuoIM6yetpCZGaR59pTlpV/t+1oxiO5qETg/GaAzX2Zt4n1u7zkz5nXeWj0dZH3bTEDXE7y8ZPFEnJWttExZ8VeJUa1MA/CVO/TFIx5W1v15+vyeCP/qn9LId2Mv+q7nCNfbrFusM1+PxHQzfqKtrt9MiOpaFexf2lEle12OVLvAZDHAtJYKNqi+3Ysjoq7tolT5lzik7jiewZ0P/F5pS8EhQGW+rzIZ3iAARjogwHMgIGLnFL4yve/kqn51TP4b5mTj3jhLGaAPL8fl++dM0/eo8S1TM/XZUXBf8S8+I66U6/32Qx3/f/rz8xvs/Vp/3deCC//E8MhlnvQlGbAYLyb582PdLyFUTHPScJdWGvR0cx/cbEd9ynWlxfhcnezKD8XKAMXyKXgaJQtdwdFSNQX8fakUcQYY1cnlNZFu9rP5sgKAxd3vBuajm8KmHB81tainmybqi9f3xYirX0mT2Muy8q/52Wm9mmumm0t+6b8bttWtN2V6dalZ7Mn1d/anq0ryotxu3jS7IaaiTwPclxWtuof2V7y1tq/ma9WLnT5rfyV68rvU461VoxD7bHrm/FXY6qVv2LdUJuL9c36sra2xnOxLtt/gL2Y7yJOt75cV34fOq8UcRRtc3kuY7P1tdbF+Ioy4/r2+Ex9yXZyAQMwAAMwAAPLyABmwMDFjoj/enmn+ZufnTfvqBf33bh8zvzoSJqqX4nr96+ady4cN0f/0r9gMJV5n3ni7Fvmhp6eH0X7FGbAgYPmw4/9zPxa/ZeArXffMud/fMR8WIT7nGbA9d+8nLUpxZzMjPmA9xe6rbtPdz2bBJQTEdldsCAUtNBvXNS2xEe1zh2XT7n2F8hJKIqAK+/W2TvvyQxoixcnMIrng7OXcrUu2jWHNr4zvzMPn0n50LnOBMwXf5fFk7W1qsdf6Gci3u2j29QSIq0p6aEs3R+uDfZ4uYNcllV8D3WnHNsfkfzlallbJUdlv1ftHBZknqsQ36T6m/Xk3NR9HfKSsVsKrCIPoV1l32Uvi7P7uHgUE2V8g2La11fODrjrWZ0HVW6cZSL9KHWr71OaAWJg1OO9zY/PZz5jpM5xa9zVOa2PC3lQBpvbR3134yzL61C5asxk+w+zJ2O4rNMzqdtc1yl51GPFt0/F0RoHZWyRI+nLb5h7n33F3CZjqzJeuLCTfmMJCzAAAzAAA6vIAGZAvAjKAW+J32nXiRmg3xkw7bHLtN/NDAi5ANbPzGYiVcSGfu529KLd918mqELfVuvkAtkt07PUWuS7tmXbrVgqRZ1c+PsyWhfqsX069tZFe8ZhWyhJvjMxkcWYC9Xm3fEo9KTdWgTaHLaESMsM8PkWQRLbOfrsc6PsIMjT8Xk8WVslR9J/8l1EsGNlSODK+A65lf6Ypn5h8Mwr5q7v/ls15T7Pwe/MXVX/ltw08iC8i7lSxdV6ptuX43IXjmvmy+VJ7Rvao3nNx+PvzF1ljsvvZbyhL6qxptdLHsOyGm/Sj88+V7ynQYSr9GFr3LVzmveNFtyKX2FBeCrbWvTFw18s+rO5f86xjF2/DAzGfvD/QjD1R7stMjNJxkoVR8Vd28TJZwbUXLT6JY9f9YPkjCWPEcAADMAADMDAUjKAGTAA7s2IcsyABb9YLC/eBxjgAnjB+5F+W8ofnbFxNWxmwOJY3tgGHzAAAzAAAzAAA/MwgBkwICgwA9LjAEO5mAe4hTgGM2DlRORCcDVwLiG26X+cMQOmzxVckSsYgAEYgAEYgIGbZQAzYOACfkgAsz6ZBDcL354djxmAGTAw7veMSeJxTGIGcFHDGIQBGIABGIABGNg9BjADBi7CEf1J9A/lYmkHKmYAZsDAuF9aplekPZgBu/fjD+vkGgZgAAZgAAZgADNg4CJ6SACzPpkEnEA4gcAADMAADMAADMAADMAADMDAcjKAGYAZYOY1OBj0yzno6Tf6DQZgAAZgAAZgAAZgAAZgADMAMwAzYIABTpCcIGEABmAABmAABmAABmAABlaVAcyAASE4793yno5b1UFBuzjhwwAMwAAMwAAMwAAMwAAMrDoDmAEDZsCqdzzt4+QGAzAAAzAAAzAAAzAAAzAAA/0ygBmAGcCb5WEABmAABmAABmAABmAABmAABjpjADOgsw7H+evX+aPv6XsYgAEYgAEYgAEYgAEYgAFhADMAMwAHEAZgAAZgAAZgAAZgAAZgAAZgoDMGMAM663BxgVjiCMIADMAADMAADMAADMAADMBAvwxgBmAG4ADCAAzAAAzAAAzAAAzAAAzAAAx0xgBmQGcdjvPXr/NH39P3MAADMAADMAADMAADMAADwgBmAGYADiAMwAAMwAAMwAAMwAAMwAAMwEBnDGAGdNbh4gKxxBGEARiAARiAARiAARiAARiAgX4ZwAy4CTNgbX3DbK0fXToHzcV9+bg5fBNtn+uksXbWbG2eNWu7XS/1LR2jc/FFP9PPMAADMAADMAADMAADMDA1A5gBA7Bc29wwW0N/wQDADJjRRcMMmHpgIoZnZGtgHJNH8ggDMAADMAADMAADMAADbQYwAyaKiKNmfXPDrK/VCVx8M+B+c/Lyhrl24v7FEKG9mgG9tnvi2KrHFCdqcgIDMAADMAADMAADMAADu8MAZsBEwYIZsG2DsVdR3Gu7J46t3TnJbRu/tGcxTEX6gX6AARiAARiAARiAgW1hADNgIkiTzYDDJy6pRwrqZ+Lz7e1ZBqVgKY8p300QZyU4oSmPNFwyJx8IAuuB46Z81EFmCMRjVdsn1XeLCNqi3HLGhCtbPV6RbZcyVL1Zu13Ztg1+RkN8TKN6L4Pvk7i9fA+B1CO5kfcjFLFvyXoXj8yiOOpmU0jZPv68vqxNoS15u1M/5OttP2k+8nInxePrLXKzmerKcjmUY9Zvy4mTXGPkwAAMwAAMwAAMwAAMLDsDmAETxdEEM2BTT8MPQk2JVyeytegMgrQlKAUmLyC1aAzlqnKiyCzrysShCNz8MQF3rDpumvq8GbBhtGD1BoKK84HjZl0/kuDEuBKrItKHch7FujpmXxDMKt7DJ84m02PfPuPiV7mJsapjbG7X1lWs+8q+Ct9V/pJBkuKp2iz167qmanfNVd6OOh7fhvyllWUuhCGW/DjBAAzAAAzAAAzAAAzAAAyMMYAZMCRM4/patElCc/EWQMsErz02CcnsOC0eY137zC3x7ngBbrG+WXcQuDID4Jbquy/THSv1F+VKjFUcpcB1MQ/nxpdTbM9yU7TPlhfMgMoomXRcub0Za11fbtS0jBMff8qnLaNok4tZmwx2n6KsMr59+4yrW/pA+j/ri2AGZPsU5cpxLLnbDwMwAAMwAAMwAAMwAAMwMCMDmAETE1aIP7V/JqplvRZ+QdzKlPNsmYk8JVTt8fout5QbBKYI5Wbd1V3qtnjMjp2yvviYQIynIYzttkabJeZ2GartmRgeX5/u2ssjEkqQ6z7I4g2zCNRjDCnXrVy1+r5Y5+qSGPJlNBEa8bg+0HHEz2IeteLZZ+Ksh+xxA5Wror3R3GE9Pw4wAAMwAAMwAAMwAAMwAAOKAcwAlYy2cCrEn9o/E9WyXgs/J26VSJV9xpb2+CU1A7zAFTHbMAt0blo5mMoM8P2R5agst/xu6xKTQpkw084MiGaGi7ngYbC/lEBvxGNzFc2CVi7K2QXFPskMmZGvopw28yp29ucHAwZgAAZgAAZgAAZgAAZWkgHMgIlgF+JP7T/RDCinlKtjB0XYVII43OFWwtaXV8bavrucxT1lfe27+ro+/VnEZLGuIYqzPAzEkon2VhnluvK7TMsvTJas3Kb4LuJ3/VesG4g5a9eU8WTHNOORvMqyiGUavthnJU/kOTvCB0vyAgMwAAMwAAMwAAMwMMwAZsBEcTQsuDJRLeUUws/tU0zpnvTSt/oYL+r1fxTw++R3l+vj2qaB208ZCfVxdX2TzYDaeJAY4531IjfVwHTCunjjflgX76JX4tv3T/aW/lY95TqpKxoEdfzV+wFcH5c8hFzFcvxgy15WWMWcZirEdknZsV9a8dxvTq4fN4eFtXnMpnjs8Emh6heOwUCAARiAARiAARiAARiAgZVjADNgItSl+EsiqhTVTkSVolOe44/PhOdvgx8SXiKk5T0DuWhMIj/frzFlXESv+q8HrbjzcnKTYahdlVhWddm419eK3DVyk7VfRPNa/m8Ry7anKfLBOCjLLb+HPs7aePm4WbP/EjKK+Jb4LuJ35bTWBUNA9XEZc6pb9VGRr63sZZOteOp6otEykePEbZZzjlu5kzr9C+swAAMwAAMwAAMwAAPTMIAZsKRiqCXop+nwhd5HzIAHGLwL3U9LOmbIKeMKBmAABmAABmAABmAABhIDmAFLKmwwAxLEDGhyAQMwAAMwAAMwAAMwAAMwAAOzMYAZgBmwONOkmRmwOH2xpOOCH4DZfgDIF/mCARiAARiAARiAgX4ZwAxYUtHDzIB+By0nbPoeBmAABmAABmAABmAABmDgZhnADFhSM+BmO57jOXnAAAzAAAzAAAzAAAzAAAzAQL8MYAZgBjA1HQZgAAZgAAZgAAZgAAZgAAZgoDMGMAM663Ccv36dP/qevocBGIABGIABGIABGIABGBAGMAMwA3AAYQAGYAAGYAAGYAAGYAAGYAAGOmMAM6CzDhcXiCWOIAzAAAzAAAzAAAzAAAzAAAz0ywBmAGYADiAMwAAMwAAMwAAMwAAMwAAMwEBnDGAGdNbhOH/9On/0PX0PAzAAAzAAAzAAAzAAAzAgDGAGYAbgAMIADMAADMAADMAADMAADMAADHTGAGZAZx0uLhBLHEEYgAEYgAEYgAEYgAEYgAEY6JcBzADMABxAGIABGIABGIABGIABGIABGICBzhjADOisw3H++nX+6Hv6HgZgAAZgAAZgAAZgAAZgQBjADMAMwAGEARiAARiAARiAARiAARiAARjojAHMgM46XFwgljiCMAADMAADMAADMAADMAADMNAvA5gBmAE4gDAAAzAAAzAAAzAAAzAAAzAAA50xgBnQWYfj/PXr/NH39D0MwAAMwAAMwAAMwAAMwIAwgBmAGYADCAMwAAMwAAMwAAMwAAMwAAMw0BkDmAGddbi4QCxxBGEABmAABmAABmAABmAABmCgXwYwAzADcABhAAZgAAZgAAZgAAZgAAZgAAY6YwAzoLMOx/nr1/mj7+l7GIABGIABGIABGIABGIABYQAzADMABxAGYAAGYAAGYAAGYAAGYAAGYKAzBjADOutwcYFY4gjCAAzAAAzAAAzAAAzAAAzAQL8MYAZgBuAAwgAMwAAMwAAMwAAMwAAMwAAMdMYAZkBnHY7z16/zR9/T9zAAAzAAAzAAAzAAAzAAA8IAZgBmAA4gDMAADMAADMAADMAADMAADMBAZwxgBnTW4eICscQRhAEYgAEYgAEYgAEYgAEYgIF+GcAMwAzAAYQBGIABGIABGIABGIABGIABGOiMAcyAzjoc569f54++p+9hAAZgAAZgAAZgAAZgAAaEAcwAzAAcQBiAARiAARiAARiAARiAARiAgc4YwAzorMPFBWKJIwgDMAADMAADMAADMAADMAAD/TKAGYAZgAMIAzAAAzAAAzAAAzAAAzAAAzDQGQOYAZ11OM5fv84ffU/fwwAMwAAMwAAMwAAMwAAMCAOYAZgBOIAwAAMwAAMwAAMwAAMwAAMwAAOdMYAZ0FmHiwvEEkcQBmAABmAABmAABmAABmAABvplADMAMwAHEAZgAAZgAAZgAAZgAAZgAAZgoDMGMAM663Ccv36dP/qevocBGIABGIABGIABGIABGBAGMAMwA3AAYQAGYAAGYAAGYAAGYAAGYAAGOmMAM6CzDhcXiCWOIAzAAAzAAAzAAAzAAAzAAAz0ywBmAGYADiAMwAAMwAAMwAAMwAAMwAAMwEBnDGAGdNbhOH/9On/0PX0PAzAAAzAAAzAAAzAAAzAgDGAGYAbgAMIADMAADMAADMAADMAADMAADHTGAGZAZx0uLhBLHEEYgAEYgAEYgAEYgAEYgAEY6JcBzADMABxAGIABGIABGIABGIABGIABGICBzhjADOisw3H++nX+6Hv6HgZgAAZgAAZgAAZgAAZgQBjADMAMwAGEARiAARiAARiAARiAARiAARjojAHMgM46XFwgljiCMAADMAADMAADMAADMAADMNAvA5gBmAE4gDAAAzAAAzAAAzAAAzAAAzAAA50xgBnQWYfj/PXr/NH39D0MwAAMwAAMwAAMwAAMwIAwgBkwYgYcPnHJbG1utP9uXDVXLvzCHPv8B3DQRnIooLHkpAMDMAADMAADMAADMAADMAADi8MAZsCIkB01A5RJcOX5B82tI+VMB/wHzL1fe8KcfOWCufbWT8zhmy5vcSCbrv3ES55gAAZgAAZgAAZgAAZgAAZgYLcYwAwYEd3aDHj96XvMxz/h/x765g/M6TeuqhkDl8zJB24W2qNmXQyGy8cxA0b6ZbcGB/XcLNMcD0MwAAMwAAMwAAMwAAMwsKgMYAaMiE5tBqyvlRB/xBz7VTIErr3w4E0+LoAZsKiDhLhK9vkOEzAAAzAAAzAAAzAAAzCw7AxgBsxtBuwzt6ydTbMD1o9iBozkctkHCvFzsocBGIABGIABGIABGIABGFglBjADRgTs+MyAfebQP1yIZkBrZsCt9zxmnv/VRXPjRnoJ4Y23XzXPP36PeseAmhEgjwnopZgMDxw312S9rNOxD25X5dvHD/Z/2hx75WKI+6J5/nO5qXHtxP3mloP3m2MvXTDXJO4bl8zrJx4zH99fD/5b7/mSedru+15q49Z79uWKz5iv6Pj4fJNmUZ37VToR0Rb6FwZgAAZgAAZgAAZgAAZ2lwHMgBGROmoG7H/QnHxbBPAlc/pI3nEf+faZJN5FxKtleumgEutqe/wvBiL8B8V+qHdwuyr/8hlz+g2J2S7Duw7UDIdrLzyh2qX33TA3XjlqDql8HfrmWBvPmjW1LwM754N8kA8YgAEYgAEYgAEYgIH/v727abHjuvMA/BlE7+2FCMxWiyF4wIGADQkm4FloDALHOIshMUOCJ0wISNDEOIFgCMZeGGSQZyERCI2gPQaHIYhgSwbbgTQCEX0Af48z1Kk6VeecOnX7ZeTbV13PQnTfe+vlvDx11f/frarLAAPnaUAYsKFgzcOA6QaCV8MbN94Phw+mQrkuki9dez98kQr7Lw/C269eiWcCXH7pv8LtLEDobzr4nfDdeGPC34U/p3UefBTeHG5W+OK/DF9duFjsDwfQ4utZGBC3fy/c/tUPw+W831kYEEOILw/COz+7Gm+Y+ON3Pg4PU7se3Qsf/CgdsD8Jt79MY9Bt8+VwJZ458J3w3deuh9v/+5EwIB9jvzszggEGGGCAAQYYYIABBnbIgDBgw2TkYcD4Sf1YGB+Fxw/vhcPfXi0L670r4e1PU5H8aXjne6l4Hn7+aAoKHt7+aXYwZEV769sEFov904UB937/fLbPYd08DPj7x+Htos3Phjf+ON0o8d7vrwzrH9PeDeN6numXfVcezdP8eDAmxoQBBhhggAEGGGBgBQaEARsmeXMYcD8cvvVydu1/KrKyIvl/ftN4/dVwK51V8Pn74V/H/WfrfWthwMfh7cZ1//mNEB/+6efzAz8LC+I9BWKbfxg++GsKPY7C13d/F954aTiLYexTGhM/hRAMMMAAAwwwwAADDDDAwC4ZEAZsKFzzMCB9tWB5qv9X4XC/+qQ9/wQ/P4ug9XtR9G8hDCj2lx2IzWL/+NefefX98EW6yWDq35cfh9s36rMlsm1tGO9dOjC0xZwxwAADDDDAAAMMMMDARTYgDNhQnLbCgIjhe9fD4Xj3/Hvhg2vZQbKiMCCOxT9dDfsffjwLBR7+5Q/hx62zEDaM90U+0PQtO0YYmJ99Y0yMCQMMMMAAAwwwwMCWDQgDNgz4Yhiwtxeu3DiYbqz3lz+El9J2nv3NdCPA9E0A6bWNP485M+AHfwj30qfvrcsPfvbR1J5iv8dst2vTGc8MKAvc7saBvwmH400Fj8K9915wQG+ccwVyach4GA8GGGCAAQYYYIABBrZlQBiwoVjbFAZc2ns+vJN9Td90Y778WvrGDQQX93dc0Z69/vc74dfFp+7Phjf/NN3k7/G5hAHDQfvqzekrFYt2OKi3dVDbD2sMMMAAAwwwwAADDDBwnAFhwGJxvhc2hwF7ofgKwewu/Ff2s7MG/vZpuH3j1fDiC93XC3ZfI3g1vPHbm+HPn9+pvnrv5+FgvPTgfjj4VffVfj8NH7yXbuiXf0vBUXj46fvhjX97Ibz4g1fD/h/vheLbDooiPAsRnug9A66H23+9E7+C8Lv/1B9oz1x5Ofz69tQWZwZ4AzruDcjrjDDAAAMMMMAAAwwwcD4GhAH/nzBg79nwxu37YyH+8O71cCVu7/nw6z9NzxeFejrV/9FBFQZUn+6n5bLC/pmffTR96p5ejz+/Cocf3pley9a5tPfthQGHRRumbxaI/f38pnsGbLDlDe983vCMu3FngAEGGGCAAQYYYKA3IAzYULAde2ZAt+4/5zcT/Coc/Oezw3Xyz4YXf/F+OPzL/fAwv+P+374KX3z6UXjn31+Yf+3gsy+Ht+/em5Z/+FX44sOfFNfdP/8f74c/f55dEvDlx+HWL14Iz+Q3LtxKGPDDsP/fH4cv/pa15dFRePjg03Dwzk/Ci8VlDN5wvOEwwAADDDDAAAMMMMAAA7tkQBiwIQzYpYnSFm8cDDDAAAMMMMAAAwwwwAADT8qAMEAYUJx58KRg2Y43KQYYYIABBhhggAEGGGBgdw0IA4QBwgAGGGCAAQYYYIABBhhggIGVGRAGrGzCJXO7m8yZG3PDAAMMMMAAAwwwwAAD2zIgDBAGSAAZYIABBhhggAEGGGCAAQZWZkAYsLIJ31bKZD8STQYYYIABBhhggAEGGGBgdw0IA4QBEkAGGGCAAQYYYIABBhhggIGVGRAGrGzCJXO7m8yZG3PDAAMMMMAAAwwwwAAD2zIgDBAGSAAZYIABBhhggAEGGGCAAQZWZkAYsLIJ31bKZD8STQYYYIABBhhggAEGGGBgdw0IA4QBEkAGGGCAAQYYYIABBhhggIGVGRAGrGzCJXO7m8yZG3PDAAMMMMAAAwwwwAAD2zIgDBAGSAAZYIABBhhggAEGGGCAAQZWZkAYsLIJ31bKZD8STQYYYIABBhhggAEGGGBgdw0IA4QBEkAGGGCAAQYYYIABBhhggIGVGRAGrGzCJXO7m8yZG3PDAAMMMMAAAwwwwAAD2zIgDBAGSAAZYIABBhhggAEGGGCAAQZWZkAYsLIJ31bKZD8STQYYYIABBhhggAEGGGBgdw0IA4QBEkAGGGCAAQYYYIABBhhggIGVGRAGrGzCJXO7m8yZG3PDAAMMMMAAAwwwwAAD2zIgDBAGSAAZYIABBhhggAEGGGCAAQZWZkAY8LRN+P5BePzofrh1bUWJ2Wufhbc++Sw897TNlfb6D4UBBhhggAEGGGCAAQZ21IAwYHFirofDR0fhcfXvcP+ci/DzCgO+fzf88pNvwlvVv9df28J41GFAbMs/wkvfP+2+3wuvV+1/6933nqo3p+fenc/BW3fuhsuLjk87Rpbf1mlZ9sMaAwwwwAADDDDAwHkaEAYsFlF9GFAU/7EQPwrFc4vrXzDYrQI8FunfhG89EHgSYcAQZpRtfS+8PoYBb4aX7nwTfnnjzZ0OB2IYMLa5M9a3WyBwwY63tbyv6OdOv9+c5x8n9u09jQEGGGCAgW/fgDBg8Y/RRhiwtxf2D4/C48Pr6/sDrhUG7O2Frjj91gvoJxAGXL7xj7D5LICnNQzYC5fi3LiMwn8Y3/5/GMbYGDPAAAMMMMAAAxfHgDDglGHAKx/eD48f3AyvdOtduxm+7q7f3+9+dpcUHIT9tL3hLILxMoO0Tnp9tm62frFuts1u3fha9lzcTnY5Q7WfGF6Mlzqc9F4DV8OtB9WyzTCgUUAPn8CPlxMUn2KnwjU71b1xint5Kvxn4bnjwoCxbeVlAHlIEcOApfsO1G3+ZAo40ifxqU3TNst9zT6Zr7dZ9bPebjde/baHT/qHyxmm/fVvOmm94k24Hp8hpBnn4JP6kopyH29lr4/bj9tM81Sv37Wl3kZ9hshkI41dbE81DpeK/XwzC2yKdbN29v1vOE3Hl5/rCyzNuTlngAEGGGCAAQZOZUAYsAjmBGcGpEK8KsBjYFDd5K8vyhtF/LhuV9gMRX39XH4mQhEG1G28Gm4dDkFF6yyGuG5V5Ff9T+HB7FKIseCekrBZgT1bZigYs0DguXfzT7Bbr38TisJ6LKqz9er9tJaJRWZexKbiNX9u6ksqbpvF9yd1odsHAfklB7FozQrdE/Uz325WFI/bnfWhPxOjPMOhb0ve7rGgT3Nbbad+/fKNz8b7L4zFdzZn/Tzn4zYEIdky/dkJKdAow4KxP3tVW+t57F7Ptlm3sw8O8nZ0++mPgSKIS/3281T/GRQBk7EzdgwwwAADDDDAwIU3IAxYRF4X2nthJezAmwAAE7FJREFUVuQPYUBZOM/X6//Irp5PZwbk3wrQKtaL4r86M6C1jdSf+FoWPsTn+8Dh6w+vzmAvhgBpe2PBnT4tzgu/vqjuire8KI39joVoVsin7Q0/Y6GZiuhZcTgU6/U26uWGtk1F51SM1u3pC9uuD3VROX2SnRdFsSBN7cvbnBWtcfm6TZv6mT65L7YxD0ZaAcVYrI83QqzGNrajem74FL8fi3Y/U59b/a3bUcxZ1s/y+VZ/9kKxTD2v2bbalz5sartQIM2hn8P7Ru7J77P3fE44YYABBhhggAFhwOIfiam4yE7Bzy8D6NZrFePNIryH1hXcYyHeWrcu/Lt91M9Vj1MRP7uPQVwub/v0+9iGvRRwZO1aGo+q2O2L6rygHoq/sUidQoP6awFnBW0qtrviMP2et6MuGqu29IVj3pZuvDcVjkNROp6av7x8bGtRtA+fzjf7WbZhsZ8bwoAyvJj3oWxP4xP6OFb52E+/j9sel6lDg9aZB73dfL/d7+O28nkqgoh527v/cIowILvUYLa9sY1T+9NlD7Nl8zbE4+poupQnf83vCkIGGGCAAQYYYIABBkYDwoBFDNUn+a3lWgX9lsOAPtHLLjFIlxR0YcB4uUFf0C2mf6mAqsOOvM91AT4raPvir/x0vtpv3EZ5XXhRHHYF4JbCgDgWseBMBXG7eM2L4DR+i8VwGq/j+jkbu6UwYt6mWXvqeVkaw9S27Gcf6HTFdhqDbYcByccQauThzCn6keYlBWN52JVe8zONtZ8sMMAAAwwwwAADDPQGhAFZcVSiOGMYMFzDXF460A12tb1WkFB96h/bUz9XP87bn7/W2n6+bPP36WyIWfvrorNbfyh6UwAwK1SrfRSF//Ba8VwszstP17sx6IvWqWCdnQnQatsxZwbEsS3Wmxfe3TKtPhVtrvo4trcKNep15ttt7X/+3Hy9oY1pf0WfTvJG3xfim+ewXKbuSxzLNE+pHQvjv7TubNxO3I8NZhtzk9rq50lsWIYTBhhggAEGGGDgIhsQBiwWDFXx3lpuoeCe3Vsg3cwv/6S+tW5ezKf91c/lj6/dDIf59f/5a3vD2QL5PmM76vsItA7wbt3qRoMLxVks7tIny7GYr2629/274fUbb/anosTX66I+v2FgX/wWZwfE/ZafXp8lDMhvkpcO6FhYj8Vru/BvFd8pBClPV89ufndsP1v7mhf+rUsdmu0pbszXGMMYaqRxfzO89O7dcDn5GtYtwoD8E/oUiKQ5jus1Lk8Y5iltp9X2btyLMOC1z8K0fPVauoQgm59u/fLGjA2nY79arj2X7PvJAgMMMMAAAwwwwIAwYLF4OHsY0B1YfSAwXac/u6b/CYUB/Vcapv3UhX52+cDw9YJnPoV6IQy4NBST4x3uh0AgXd+dn4LejUssZtP19nfuhudu/KO6NGAoZrNlLjeL6+wMgmbbyuK6Dy2q68+rewGkIr9reyr028X3dFbE1M+sPSfo53y7ZXv7N+f5c/P1+jexvn+pDdUYZv1JRfrU7jK8SduPP9McFEFAetOcTu3vt5X2nV6ft73rUx0G5O0oQqB4XG7qR9qPn70V42AcGGCAAQYYYIABBk5nQBiwGAacbiDBM14XwUAKAy5CX/TBMckAAwwwwAADDDDAwLIBYYAwYLybpANl+UBZy9gIAxhYi3X9ZJ0BBhhggAEG1m5AGCAMEAYwMBoQBvhPce3/Keq/Y4ABBhhggAEG1mJAGKAQHAvBtaDXz+U3eGHA8thwY2wYYIABBhhggAEGLpIBYYAwQBjAAAMMMMAAAwwwwAADDDCwMgPCgJVN+EVKsvRFMssAAwwwwAADDDDAAAMMnM2AMEAYIAFkgAEGGGCAAQYYYIABBhhYmQFhwMomXGp2ttTMuBk3BhhggAEGGGCAAQYYuEgGhAHCAAkgAwwwwAADDDDAAAMMMMDAygwIA1Y24RcpydIXySwDDDDAAAMMMMAAAwwwcDYDwgBhgASQAQYYYIABBhhggAEGGGBgZQaEASubcKnZ2VIz42bcGGCAAQYYYIABBhhg4CIZEAYIAySADDDAAAMMMMAAAwwwwAADKzMgDFjZhF+kJEtfJLMMMMAAAwwwwAADDDDAwNkMCAOEARJABhhggAEGGGCAAQYYYICBlRkQBqxswqVmZ0vNjJtxY4ABBhhggAEGGGCAgYtkQBggDJAAMsAAAwwwwAADDDDAAAMMrMyAMGBlE36Rkix9kcwywAADDDDAAAMMMMAAA2czIAwQBkgAGWCAAQYYYIABBhhggAEGVmZAGLCyCZeanS01M27GjQEGGGCAAQYYYIABBi6SAWGAMEACyAADDDDAAAMMMMAAAwwwsDIDwoCVTfhFSrL0RTLLAAMMMMAAAwwwwAADDJzNgDBAGCABZIABBhhggAEGGGCAAQYYWJkBYcDKJlxqdrbUzLgZNwYYYIABBhhggAEGGLhIBoQBwgAJIAMMMMAAAwwwwAADDDDAwMoMCANWNuEXKcnSF8ksAwwwwAADDDDAAAMMMHA2A8IAYYAEkAEGGGCAAQYYYIABBhhgYGUGhAErm3Cp2dlSM+Nm3BhggAEGGGCAAQYYYOAiGRAGCAMkgAwwwAADDDDAAAMMMMAAAyszIAxY2YRfpCRLXySzDDDAAAMMMMAAAwwwwMDZDAgDnrYwYP8gPH50P9y6drYJf6oOlGs3w9en6uvVcOvBUfj6w6tPVaq5f3gUHh9ef6ra/FQ5etqOce11LDDAAAMMMMAAAwxswYAwYHGQr4fDR0fhcfXvcP+ci/DzCgNiYX4UHj+4GV5ZHLO9EAvbUxXwG8Zzi2FA3+5qvo/p65MqiOswoH584v2kOcrMPl3BSPuYe7r6sMHzhuPmxHNsG/4wYIABBhhggAEGGHhCBoQBiwPZFyZF8R8L8aNQPLe4/gUrCobC/OsHm85KSMXcpmVOMS7bDgOKT+f7swyOCz+eRBFXF//14xPtoxUSXbsZDsezJBqed85uo41DwCEQOMVxs3Pzqu0nOobNmz/sGGCAAQYYYGDLBoQBiwPeKEz2hk++i6JxJX/ojmHA8intr3x4Pzw+PAiHT+uZAfW8xj4fhP1FI09m7uviv358kkKiW2dzwdz2fJJtb2+Zdht7Vy6j2N48PBnX2mscGWCAAQYYYICB3TYgDFgs9DYUJun08fTJ9X53bXt3inlWOA5nEYyXGaR10v5m62brF+tm2+zWja9lz8XtZKe3V/uJheV42vhJP7HvPhWvli3am+0/9Wev/yT9cL8bt2rd4bVxLB61z66IRV/e1jiu1bbq/hYF/PyeAWX/2/vt3qSaBXg91nt7oWzjfHvH7693NY7F4fXZvuu2pMflvss5iMtUcz+++Raeeivx7JZiTjN/3ZxuHOf5OJRBRJqH6/EeDqmv/Rk1Zf/Ls2zax1zq/9ifvXIbs7M36raP45LadbWax3Is437qMRu3Mbyhp7G7VralHId02cx0fBb9rdtZWO7202270bbxmNvt/1ym+dJOY8EAAwwwwAADDOyiAWHA4h/WJyhM0h/zVaHQF21lERsLmvwP+9m6faESC6dxe8NzeZFQFKh1G6+GW4fTNf2zIiquW7arRtm3c17k9sVhv263TF30xJAitrtrU76Pvo3FDfKGvufb6McsL3yG9fJtxfXybdfjMxV7Xb/iNsex7IOUohjL5n42VkPBOWtjvr2hH+M2i9PyU3CTt7fv02ybXQCSzXHdljQn03p1v7s31zRe+Rjmb7r962Nb84I/79P4fN7uen/Xw2HW3hQcTNsels/mbgoypu0uzfm0neUxzJeJ4zP2oe5nfkykdpV++/Gdxq1v19TOzlK9TOrzPACc1tvo71jLw9wNxmaBR2a3PoY9zt37nQcGGGCAAQYYYGDJgDBg8Y/quqhIn4ZOf+yngiAvTFJRVj7XAay2NysGWoVPem4qVIozA1rbSP2Jr2Xrxef7YmgqKqcDIxWc83YPy+T76kKFsfjqX+/W79ft+jmN0awgGtpXPl+NTdGHaVvdPmZtL8KRsn+xT3nRmrbb+Jn6nz7FLoq8uHzZr3RAbd5H2a+yz9XYZ+2stxkfV+NdOMj6M/WjnvuyLbH9cU7TvJXt2TzO07L9OJTjfmk4E6TcRr//1nOTuX6ZaQ7KkKTbVxzDbKymfgxOcqfZuOTtzIOX/vl8bPLf835WzzfHrhyHeh77ffXb7F4rx6JxrOftH/ZXH3f5Nv2ez5ffeWCAAQYYYIABBo4zIAzI/+Aufm8UJvkn+92yrcIjPlcXYj3EogBorVsUtgPe+rnq8Vj81QVSXG46PTkvsPIiJBZXjxqFSTEWdV/7omcs4oo+d+N2TAE/jt0wTsX62UFbjFG/z7wf0+9pvMtiLIU1J/kqxrJwG+Y+H9PYlvZ4FsVlY7k0TsX8Z+Nb7nt+yUL9ejyoKwf1gR7XKS7HqIrZcQ6mueq3cZJx7uZofnxMrqp5iH1t7L8OyOrHg+E0fl37Ur+muU9zMvVjXCafv9iGVru6vmTPL1kc9j32sbCZzGbbGce3a9/UttONcdpu9jMd17O+ZcvEvnpcHxMeM8EAAwwwwAADDJQGhAGLfzi3ipdy8HYhDOhB90VILJBSkdAVDfWnyUt9HQvYVFRX/RwLm6yo6bY/7KsLFMYiKRZ003JdYTa9lm03L7ry3/M2FgVX38e8MJwfzFUxlraVCqhZUTa1JxaQaexa/V1qY9rHWKhOfU8Fc2rz0ljU+z7ucex37NOG+Uqfoo8GGp6L8U1jcfw4pwAp9asopuN4tOahsf+6+J89nl/qsTSGSxaKYyIv+rN5K9q/YZ6LfW8Yu5n3mb/jx3hTf6ZxT3Pm53y8jIkxYYABBhhggAEGjjMgDCiKghxMq3jJX68/LU+vLa1XPd8qJloFXv1c/Thvf/5aa/v5ss3f+zZ2BdSs4JhtrytousK3WycvSrvHU0EcC8exIE1jVBV5cduNfcb+TNuqi+Q57lYRmva56bX5p/HdtuP+xrZX8zcbv9br5XPl9sp2pWBl3G8WTDT7nc/1rC3DtotlyrbEsZvNab9ec3/jPlrjWD9XP+6229j/7LnlZVKBveRpbqE1Bq121cdxqw2N9jfHbmH7cezK1zaP8dD2br3h2JifXZAtM86N5xYdGCNf1cQAAwwwwAADDMwMCAMWUSwVBdkf3M2CoHFvgVlhmf7Inwrd+EdsUbwN+6mfyx83b1iXCvO++KjPDtg/TK9n/ZiNQbdu1bZGX+MZAQ/yswK6bXbjlq/bj2Ne7KYCJw8cYnE0CxWqU6xj36vQoBiDuuDK+1q/dlScOdEuzvq2p0J03sZurg/CrWtdv8vtd/PZL5+1dyjs0va6ZdKn7Pn41G2pH7eszOe1b8+03Xn7mme2dBaOGee6PakPU78a+5oV/slKNj7NZVJ7BlONMYzmUnhSeEjrJgfDmBRh1/DcGPqkOckN18HQwvFbGSjnpBqTY8Y4znEcj9T2Tcer1/rxMg7GgQEGGGCAAQYYOI0BYcCsEE6Azh4GdBOQCqTx2uZUrKT9NYrr5k3h8uJ/LNSGAmEojMZ9FMV014+p+EnLTAVb6ucJf7baOyv8u23VYUB6Ll3bXRX4aTyy4rlv60HYb+1zKKJSf8ob/ZUFVyrG07J53+NrWQFYF7jpIOrncSoM621OxXYqEKd+9l+zmBe782W6NtX7Pu5xbFvlYtau1n0gsrGLQUxrfNN8ZMuO85FeG4r2aVz7rxCcxrech34sW8dT/Vz9ONkcHKf5mrmf5icFTaltbR/lVx7WgdmZj99ZGDBZ6Nozjc/Qr41jnPruZzoW/WSBAQYYYIABBhh4sgaEAWOB82QHFlTjycCuGWiFFLvWRu1x3DDAAAMMMMAAAwxsx4AwQBgwu3bEwbedg884b3uchQHMbduc/THHAAMMMMAAA7trQBggDBAGMLASA8IA/xnv7n/G5sbcMMAAAwwwwMC2DQgDFIIrKQS9uWz7zWX39icM2L05cVyaEwYYYIABBhhg4LwMCAOEAcIABhhggAEGGGCAAQYYYICBlRkQBqxsws8rdbJfiScDDDDAAAMMMMAAAwwwsDsGhAHCAAkgAwwwwAADDDDAAAMMMMDAygwIA1Y24ZK43UnizIW5YIABBhhggAEGGGCAgfMyIAwQBkgAGWCAAQYYYIABBhhggAEGVmZAGLCyCT+v1Ml+JZ4MMMAAAwwwwAADDDDAwO4YEAYIAySADDDAAAMMMMAAAwwwwAADKzMgDFjZhEvidieJMxfmggEGGGCAAQYYYIABBs7LgDBAGCABZIABBhhggAEGGGCAAQYYWJkBYcDKJvy8Uif7lXgywAADDDDAAAMMMMAAA7tjQBggDJAAMsAAAwwwwAADDDDAAAMMrMyAMGBlEy6J250kzlyYCwYYYIABBhhggAEGGDgvA8IAYYAEkAEGGGCAAQYYYIABBhhgYGUGhAErm/DzSp3sV+LJAAMMMMAAAwwwwAADDOyOAWGAMEACyAADDDDAAAMMMMAAAwwwsDIDwoCVTbgkbneSOHNhLhhggAEGGGCAAQYYYOC8DAgDhAESQAYYYIABBhhggAEGGGCAgZUZEAasbMLPK3WyX4knAwwwwAADDDDAAAMMMLA7BoQBwgAJIAMMMMAAAwwwwAADDDDAwMoMCANWNuGSuN1J4syFuWCAAQYYYIABBhhggIHzMiAMEAZIABlggAEGGGCAAQYYYIABBlZm4P8AHUraBm60cecAAAAASUVORK5CYII=;" vertex="1" parent="1">
          <mxGeometry x="92" y="100" width="667" height="453.98" as="geometry" />
        </mxCell>
      </root>
    </mxGraphModel>
  </diagram>
</mxfile>
